<svg width="26" height="26" viewBox="0 0 26 26" fill="none" xmlns="http://www.w3.org/2000/svg">
<path d="M16.411 10.1718C16.411 10.1718 14.6618 15.1022 13.8306 15.9629C12.9994 16.8237 11.6277 16.8476 10.7669 16.0164C9.90611 15.1851 9.88217 13.8135 10.7134 12.9527C11.5447 12.092 16.411 10.1718 16.411 10.1718Z" stroke="currentColor" stroke-width="1.73333" stroke-linecap="round" stroke-linejoin="round"/>
<path d="M3.98156 19.9333C2.50378 18.014 1.625 15.6096 1.625 13C1.625 6.71775 6.71775 1.625 13 1.625C19.2822 1.625 24.375 6.71775 24.375 13C24.375 15.6096 23.4962 18.014 22.0184 19.9333" stroke="currentColor" stroke-width="1.73333" stroke-linecap="round" stroke-linejoin="round"/>
<path d="M13 2.16669V4.33335V2.16669Z" fill="currentColor"/>
<path d="M13 2.16669V4.33335" stroke="currentColor" stroke-width="1.73333" stroke-linecap="round" stroke-linejoin="round"/>
<path d="M1.73334 13.8666L4.33334 13.8666L1.73334 13.8666Z" fill="currentColor"/>
<path d="M1.73334 13.8666L4.33334 13.8666" stroke="currentColor" stroke-width="1.73333" stroke-linecap="round" stroke-linejoin="round"/>
<path d="M21.6667 13.8666L24.2667 13.8666L21.6667 13.8666Z" fill="currentColor"/>
<path d="M21.6667 13.8666L24.2667 13.8666" stroke="currentColor" stroke-width="1.73333" stroke-linecap="round" stroke-linejoin="round"/>
<path d="M21.6667 6.06665L19.9333 7.79998L21.6667 6.06665Z" fill="currentColor"/>
<path d="M21.6667 6.06665L19.9333 7.79998" stroke="currentColor" stroke-width="1.73333" stroke-linecap="round" stroke-linejoin="round"/>
<path d="M4.33334 6.06665L6.06668 7.79998L4.33334 6.06665Z" fill="currentColor"/>
<path d="M4.33334 6.06665L6.06668 7.79998" stroke="currentColor" stroke-width="1.73333" stroke-linecap="round" stroke-linejoin="round"/>
<path fill-rule="evenodd" clip-rule="evenodd" d="M12.5682 23.0581C12.5682 23.9732 11.8757 24.44 11.1396 24.44C10.4035 24.44 9.7111 23.9732 9.7111 23.0581V21.3152C9.7111 20.4002 10.4035 19.9333 11.1396 19.9333C11.8757 19.9333 12.5682 20.4002 12.5682 21.3152V23.0581ZM11.5451 23.0644V21.3152C11.5451 21.004 11.358 20.8546 11.1396 20.8546C10.9213 20.8546 10.7342 21.004 10.7342 21.3152V23.0644C10.7342 23.3756 10.9213 23.5188 11.1396 23.5188C11.358 23.5188 11.5451 23.3756 11.5451 23.0644Z" fill="currentColor"/>
<path fill-rule="evenodd" clip-rule="evenodd" d="M14.6046 24.44C15.3407 24.44 16.0332 23.9732 16.0332 23.0581V21.3152C16.0332 20.4002 15.3407 19.9333 14.6046 19.9333C13.8685 19.9333 13.1761 20.4002 13.1761 21.3152V23.0581C13.1761 23.9732 13.8685 24.44 14.6046 24.44ZM15.0101 21.3152V23.0644C15.0101 23.3756 14.823 23.5188 14.6046 23.5188C14.3863 23.5188 14.1992 23.3756 14.1992 23.0644V21.3152C14.1992 21.004 14.3863 20.8546 14.6046 20.8546C14.823 20.8546 15.0101 21.004 15.0101 21.3152Z" fill="currentColor"/>
<path fill-rule="evenodd" clip-rule="evenodd" d="M18.0715 24.44C18.8076 24.44 19.5 23.9732 19.5 23.0581V21.3152C19.5 20.4002 18.8076 19.9333 18.0715 19.9333C17.3354 19.9333 16.6429 20.4002 16.6429 21.3152V23.0581C16.6429 23.9732 17.3354 24.44 18.0715 24.44ZM18.4769 21.3152V23.0644C18.4769 23.3756 18.2898 23.5188 18.0715 23.5188C17.8531 23.5188 17.666 23.3756 17.666 23.0644V21.3152C17.666 21.004 17.8531 20.8546 18.0715 20.8546C18.2898 20.8546 18.4769 21.004 18.4769 21.3152Z" fill="currentColor"/>
<path d="M7.4482 24.4028H8.47126V19.9708H7.4482L6.5 20.7924V21.8818L7.4482 21.0601V24.4028Z" fill="currentColor"/>
</svg>
