<svg width="10" height="12" viewBox="0 0 10 12" fill="none" xmlns="http://www.w3.org/2000/svg">
<path fill-rule="evenodd" clip-rule="evenodd" d="M2.63103 8.27981C2.63103 8.15006 2.67427 8.04194 2.76077 7.95544C2.84726 7.86893 2.95543 7.82568 3.08517 7.82568H5.75566C5.75566 7.82568 5.80974 7.82568 5.84218 7.82568H5.8854C6.20975 7.82568 6.46923 7.91219 6.68546 8.05275C6.89089 8.19331 7.0423 8.34469 7.13961 8.5285C7.23691 8.70151 7.28017 8.88532 7.28017 9.06913C7.28017 9.25295 7.23686 9.43676 7.15036 9.60976C7.06387 9.78277 6.91252 9.94495 6.69629 10.0855C6.49086 10.2261 6.22058 10.3018 5.89622 10.3126H3.92846C3.84197 10.3126 3.76627 10.3342 3.71221 10.3775C3.65815 10.4099 3.61491 10.464 3.58248 10.518C3.56085 10.5721 3.53925 10.6153 3.53925 10.6478V10.7883C3.53925 10.8532 3.55004 10.8965 3.58248 10.9289C3.61491 10.9613 3.66901 10.9722 3.7555 10.9722H6.77198C6.90172 10.9722 7.00982 11.0154 7.09632 11.1127C7.19363 11.1992 7.23688 11.3073 7.23688 11.4371C7.23688 11.5668 7.19363 11.675 7.09632 11.7615C6.99901 11.848 6.90172 11.902 6.77198 11.902H3.37705C3.11757 11.902 2.92297 11.8372 2.78241 11.7074C2.64186 11.5777 2.57697 11.4047 2.56616 11.1668V10.6478C2.56616 10.464 2.6094 10.2693 2.6959 10.0855C2.78239 9.9017 2.93381 9.73951 3.15004 9.59895C3.35547 9.45839 3.62575 9.3827 3.95011 9.37189H5.91787C6.00436 9.37189 6.08006 9.35026 6.13412 9.31782C6.18818 9.28539 6.23142 9.24213 6.26385 9.19888C6.29629 9.15563 6.30708 9.11238 6.30708 9.06913C6.30708 9.02588 6.29629 8.98263 6.26385 8.93938C6.23142 8.89613 6.19899 8.85288 6.13412 8.82044C6.08006 8.788 6.00436 8.76638 5.91787 8.76638H3.08517C2.95543 8.76638 2.84726 8.72313 2.76077 8.62582C2.66346 8.53932 2.62027 8.43119 2.62027 8.30144L2.63103 8.27981Z" fill="#A6A6A6"/>
<path fill-rule="evenodd" clip-rule="evenodd" d="M3.36631 0.700195H6.50177C8.0911 0.700195 9.39933 2.00852 9.39933 3.59797C9.39933 5.19823 8.0911 6.49575 6.50177 6.49575H3.36631C1.77697 6.49575 0.46875 5.18742 0.46875 3.59797C0.46875 1.99771 1.77697 0.700195 3.36631 0.700195ZM3.36631 1.58683C2.2635 1.58683 1.35533 2.49508 1.35533 3.59797C1.35533 4.70085 2.2635 5.60911 3.36631 5.60911H6.50177C7.60457 5.60911 8.51275 4.70085 8.51275 3.59797C8.51275 2.49508 7.60457 1.58683 6.50177 1.58683H3.36631Z" fill="#A6A6A6"/>
<path d="M4.67461 3.15466H2.19873V4.0413H4.67461V3.15466Z" fill="#A6A6A6"/>
<path d="M3.87461 2.36536H2.98804V4.84144H3.87461V2.36536Z" fill="#A6A6A6"/>
<path fill-rule="evenodd" clip-rule="evenodd" d="M6.22069 4.84137C6.51261 4.84137 6.75046 4.6035 6.75046 4.31156C6.75046 4.01962 6.51261 3.78174 6.22069 3.78174C5.92877 3.78174 5.69092 4.01962 5.69092 4.31156C5.69092 4.6035 5.92877 4.84137 6.22069 4.84137Z" fill="#A6A6A6"/>
<path fill-rule="evenodd" clip-rule="evenodd" d="M7.1397 3.41413C7.43162 3.41413 7.66947 3.17625 7.66947 2.88431C7.66947 2.59237 7.43162 2.35449 7.1397 2.35449C6.84778 2.35449 6.60986 2.59237 6.60986 2.88431C6.60986 3.17625 6.84778 3.41413 7.1397 3.41413Z" fill="#A6A6A6"/>
</svg>
