<svg width="10" height="12" viewBox="0 0 10 12" fill="none" xmlns="http://www.w3.org/2000/svg">
<path fill-rule="evenodd" clip-rule="evenodd" d="M3.45078 0.646118H6.58624C8.17558 0.646118 9.4838 1.95444 9.4838 3.54389C9.4838 5.14416 8.17558 6.44167 6.58624 6.44167H3.45078C1.86145 6.44167 0.553223 5.13335 0.553223 3.54389C0.553223 1.94363 1.86145 0.646118 3.45078 0.646118ZM3.45078 1.53275C2.34798 1.53275 1.4398 2.44101 1.4398 3.54389C1.4398 4.64678 2.34798 5.55504 3.45078 5.55504H6.58624C7.68904 5.55504 8.59722 4.64678 8.59722 3.54389C8.59722 2.44101 7.68904 1.53275 6.58624 1.53275H3.45078Z" fill="#A6A6A6"/>
<path d="M4.75891 3.10059H2.28296V3.98722H4.75891V3.10059Z" fill="#A6A6A6"/>
<path d="M3.95884 2.31128H3.07227V4.78736H3.95884V2.31128Z" fill="#A6A6A6"/>
<path fill-rule="evenodd" clip-rule="evenodd" d="M6.29417 4.77655C6.58609 4.77655 6.82394 4.53868 6.82394 4.24674C6.82394 3.9548 6.58609 3.71692 6.29417 3.71692C6.00225 3.71692 5.7644 3.9548 5.7644 4.24674C5.7644 4.53868 6.00225 4.77655 6.29417 4.77655Z" fill="#A6A6A6"/>
<path fill-rule="evenodd" clip-rule="evenodd" d="M7.21318 3.36005C7.5051 3.36005 7.74295 3.12217 7.74295 2.83023C7.74295 2.53829 7.5051 2.30042 7.21318 2.30042C6.92127 2.30042 6.68335 2.53829 6.68335 2.83023C6.68335 3.12217 6.92127 3.36005 7.21318 3.36005Z" fill="#A6A6A6"/>
<path fill-rule="evenodd" clip-rule="evenodd" d="M3.93725 9.50167C3.86157 9.40435 3.8291 9.28541 3.83992 9.16648C3.86154 9.03672 3.91564 8.93941 4.01294 8.85291L5.37524 7.79327C5.47255 7.69596 5.59149 7.65271 5.72123 7.65271C5.84016 7.65271 5.94825 7.70677 6.03475 7.79327C6.12124 7.87978 6.1645 7.9879 6.17531 8.10684V11.502C6.14287 11.7831 5.99152 11.9345 5.72123 11.9561C5.59149 11.9561 5.48337 11.9129 5.38607 11.8264C5.28876 11.7399 5.24551 11.6317 5.24551 11.502V9.07997L4.57518 9.58817C4.47787 9.66385 4.35894 9.69629 4.24001 9.67467C4.11027 9.66385 4.00211 9.59898 3.92643 9.50167H3.93725Z" fill="#A6A6A6"/>
</svg>
