<svg xmlns="http://www.w3.org/2000/svg" viewBox="0 0 70.87 70.87"><defs><style>.cls-1{fill:#424242;}.cls-1,.cls-2,.cls-4{fill-rule:evenodd;}.cls-2{fill:#7615e6;}.cls-3{fill:#171717;}.cls-4{fill:#a6a6a6;}</style></defs><g id="图层_2" data-name="图层 2"><g id="鍥惧眰_1" data-name="鍥惧眰 1"><path class="cls-1" d="M25.17,69.35a35.43,35.43,0,1,0-21-17.2A35.4,35.4,0,0,0,25.17,69.35Z"/><path class="cls-2" d="M35.43,62.36a26.94,26.94,0,1,0-19-7.89,26.84,26.84,0,0,0,19,7.89Z"/><circle class="cls-3" cx="35.43" cy="35.43" r="28.35" transform="translate(-7.19 9.09) rotate(-13.28)"/><path class="cls-4" d="M41.16,38.64V37.25H32.23a3.88,3.88,0,0,1-3.88-3.88v-5H29.7v5a2.52,2.52,0,0,0,2.53,2.52h8.93V28.35h1.36V38.64a3.88,3.88,0,0,1-3.88,3.88H29.7V41.16h8.94A2.52,2.52,0,0,0,41.16,38.64Z"/></g></g></svg>