<svg xmlns="http://www.w3.org/2000/svg" viewBox="0 0 70.87 70.87"><defs><style>.cls-1{fill:#424242;}.cls-1,.cls-2,.cls-3{fill-rule:evenodd;}.cls-2{fill:#171717;}.cls-3{fill:#a6a6a6;}</style></defs><g id="图层_2" data-name="图层 2"><g id="鍥惧眰_1" data-name="鍥惧眰 1"><path class="cls-1" d="M10.38,60.49A35.43,35.43,0,1,0,0,35.43,35.45,35.45,0,0,0,10.38,60.49Z"/><path class="cls-2" d="M42,7.84a28.35,28.35,0,1,0,17.6,12.69A28.4,28.4,0,0,0,42,7.84Z"/><path class="cls-3" d="M26.9,40.39v-7.1a2.82,2.82,0,0,1,5-1.83,2.82,2.82,0,0,1,5,1.83v7.1H35.46v-7.1a1.46,1.46,0,0,0-2.92,0v7.1H31.18v-7.1a1.46,1.46,0,1,0-2.92,0v7.1ZM40.13,33l2.48-2.48H44v9.92H42.61v-8l-1.52,1.52Z"/></g></g></svg>