<svg xmlns="http://www.w3.org/2000/svg" viewBox="0 0 70.87 70.87"><defs><style>.cls-1{fill:#424242;}.cls-1,.cls-2,.cls-4{fill-rule:evenodd;}.cls-2{fill:#7615e6;}.cls-3{fill:#171717;}.cls-4{fill:#a6a6a6;}</style></defs><g id="图层_2" data-name="图层 2"><g id="鍥惧眰_1" data-name="鍥惧眰 1"><path class="cls-1" d="M13.63,63.36A35.44,35.44,0,1,0,.27,39.76,35.38,35.38,0,0,0,13.63,63.36Z"/><path class="cls-2" d="M35.43,62.36a26.92,26.92,0,1,0-19-7.88,26.88,26.88,0,0,0,19,7.88Z"/><circle class="cls-3" cx="35.43" cy="35.43" r="28.35" transform="translate(-14.68 35.43) rotate(-45)"/><path class="cls-4" d="M29.94,28.35a4,4,0,0,1,3.36,2l-1.18.68,1.18-.68,2.13,3.7,2.14-3.7,1.18.68h0a2.66,2.66,0,0,1,2.17-1.34h1.6V28.35h-1.6a4,4,0,0,0-3.35,2l1.18.68-2.53,4.38,2.53,4.39h0a2.68,2.68,0,0,0,2.17,1.34h1.6v1.36h-1.6a4,4,0,0,1-3.35-2h0l-2.14-3.7-2.13,3.7h0a4.05,4.05,0,0,1-3.36,2H28.35V41.16h1.59a2.69,2.69,0,0,0,2.18-1.34h0l2.53-4.39-2.53-4.38h0a2.68,2.68,0,0,0-2.18-1.34H28.35V28.35Z"/></g></g></svg>