<svg xmlns="http://www.w3.org/2000/svg" viewBox="0 0 70.87 70.87"><defs><style>.cls-1{fill:#424242;}.cls-1,.cls-2,.cls-4{fill-rule:evenodd;}.cls-2{fill:#7615e6;}.cls-3{fill:#171717;}.cls-4{fill:#a6a6a6;}</style></defs><g id="图层_2" data-name="图层 2"><g id="鍥惧眰_1" data-name="鍥惧眰 1"><path class="cls-1" d="M1.52,25.16a35.43,35.43,0,1,0,17.19-21A35.47,35.47,0,0,0,1.52,25.16Z"/><path class="cls-2" d="M35.43,62.36a26.94,26.94,0,1,0-19-7.89,26.8,26.8,0,0,0,19,7.89Z"/><circle class="cls-3" cx="35.43" cy="35.43" r="28.35" transform="translate(-7.19 9.09) rotate(-13.28)"/><path class="cls-4" d="M28.35,42.52V28.35H38a3.88,3.88,0,0,1,2.5,6.85,3.89,3.89,0,0,1-1.81,7.32H28.35Zm10.29-6.41H29.7v5h8.94a2.53,2.53,0,0,0,0-5ZM38,29.7H29.7v5.05H38a2.53,2.53,0,1,0,0-5.05Z"/></g></g></svg>