<svg xmlns="http://www.w3.org/2000/svg" viewBox="0 0 70.87 70.87"><defs><style>.cls-1{fill:#424242;}.cls-1,.cls-2,.cls-4{fill-rule:evenodd;}.cls-2{fill:#7615e6;}.cls-3{fill:#171717;}.cls-4{fill:#a6a6a6;}</style></defs><g id="图层_2" data-name="图层 2"><g id="鍥惧眰_1" data-name="鍥惧眰 1"><path class="cls-1" d="M0,35.43a35.44,35.44,0,1,0,10.38-25A35.43,35.43,0,0,0,0,35.43Z"/><path class="cls-2" d="M35.43,62.36a26.92,26.92,0,1,0-19-7.88,26.84,26.84,0,0,0,19,7.88Z"/><circle class="cls-3" cx="35.43" cy="35.43" r="28.35" transform="translate(-7.19 9.09) rotate(-13.28)"/><path class="cls-4" d="M23.86,40.39V30.47H31a2.82,2.82,0,0,1,0,5.64H28A2.92,2.92,0,0,0,31,39h2.82v1.36H31a4.28,4.28,0,0,1-4.28-4.28V34.75H31a1.46,1.46,0,0,0,0-2.92H25.22v8.56Zm17.51,0V31.83H37.09V30.47H47v1.36H42.73v8.56Z"/></g></g></svg>