<svg xmlns="http://www.w3.org/2000/svg" viewBox="0 0 70.87 70.87"><defs><style>.cls-1{fill:#424242;}.cls-1,.cls-2,.cls-3{fill-rule:evenodd;}.cls-2{fill:#171717;}.cls-3{fill:#a6a6a6;}</style></defs><g id="图层_2" data-name="图层 2"><g id="鍥惧眰_1" data-name="鍥惧眰 1"><path class="cls-1" d="M28.73,70.23A35.43,35.43,0,1,0,6.09,55.3,35.47,35.47,0,0,0,28.73,70.23Z"/><path class="cls-2" d="M42,7.85a28.33,28.33,0,1,0,17.6,12.68A28.36,28.36,0,0,0,42,7.85Z"/><path class="cls-3" d="M37.09,34.86V30.47h1.36v4.39a1.46,1.46,0,0,0,1.46,1.46h4.37V30.47h1.36v5.85H47v1.36H45.64v2.71H44.28V37.68H39.91a2.82,2.82,0,0,1-2.82-2.82Zm-8.27-3.4a2.79,2.79,0,0,1,2.14-1,2.82,2.82,0,0,1,2.82,2.82v7.1H32.42v-7.1a1.46,1.46,0,0,0-2.92,0v7.1H28.14v-7.1a1.46,1.46,0,0,0-2.92,0v7.1H23.86v-7.1a2.82,2.82,0,0,1,5-1.83Z"/></g></g></svg>