<svg xmlns="http://www.w3.org/2000/svg" viewBox="0 0 70.87 70.87"><defs><style>.cls-1{fill:#424242;}.cls-1,.cls-2,.cls-3{fill-rule:evenodd;}.cls-2{fill:#171717;}.cls-3{fill:#a6a6a6;}</style></defs><g id="图层_2" data-name="图层 2"><g id="鍥惧眰_1" data-name="鍥惧眰 1"><path class="cls-1" d="M24.23,69.05A35.43,35.43,0,1,0,3.74,51.28,35.45,35.45,0,0,0,24.23,69.05Z"/><path class="cls-2" d="M42,7.84a28.35,28.35,0,1,0,17.6,12.69A28.4,28.4,0,0,0,42,7.84Z"/><path class="cls-3" d="M44.76,33.27l.33-.58a2.84,2.84,0,0,0-2.45-4.25H28.23a2.84,2.84,0,0,0-2.46,4.25l1.62,2.8h0L33,45.17a2.83,2.83,0,0,0,4.91,0l6.87-11.9Z"/></g></g></svg>