<svg xmlns="http://www.w3.org/2000/svg" viewBox="0 0 70.87 70.87"><defs><style>.cls-1{fill:#424242;}.cls-1,.cls-2,.cls-3{fill-rule:evenodd;}.cls-2{fill:#171717;}.cls-3{fill:#a6a6a6;}</style></defs><g id="图层_2" data-name="图层 2"><g id="鍥惧眰_1" data-name="鍥惧眰 1"><path class="cls-1" d="M43.57,1a35.43,35.43,0,1,0,22,15.85A35.44,35.44,0,0,0,43.57,1Z"/><path class="cls-2" d="M42,7.84a28.35,28.35,0,1,0,17.6,12.69A28.4,28.4,0,0,0,42,7.84Z"/><path class="cls-3" d="M23.86,40.39V30.47H31a2.82,2.82,0,0,1,0,5.64H28A2.93,2.93,0,0,0,31,39h2.82v1.35H31a4.27,4.27,0,0,1-4.28-4.28V34.75H31a1.46,1.46,0,0,0,0-2.92H25.22v8.56Zm22.16-5a2.82,2.82,0,0,1-1.83,5h-7.1V39h7.1a1.47,1.47,0,0,0,0-2.93h-7.1V34.75h7.1a1.46,1.46,0,1,0,0-2.92h-7.1V30.47h7.1A2.82,2.82,0,0,1,47,33.29,2.78,2.78,0,0,1,46,35.43Z"/></g></g></svg>