<svg width="900" height="520" viewBox="0 0 900 520" fill="none" xmlns="http://www.w3.org/2000/svg">
  <g id="G_RT" data-name="G_RT">
    <path id="G_RT_BORDER" fill-rule="evenodd" clip-rule="evenodd"
      d="M671.576 307.902C682.163 310.401 693.305 308.596 702.551 302.88C711.796 297.164 718.402 288.012 720.902 277.424C723.401 266.837 721.596 255.694 715.88 246.449C710.164 237.204 701.012 230.598 690.424 228.098C679.837 225.599 668.694 227.404 659.449 233.12C650.204 238.836 643.597 247.988 641.098 258.576C638.599 269.163 640.404 280.306 646.12 289.551C651.836 298.796 660.988 305.402 671.576 307.902Z"
      fill="#424242" />
    <path id="G_RT_BG"
      d="M680.923 301C699.148 301 713.94 286.225 713.961 268C713.983 249.775 699.225 235 681 235C662.775 235 647.983 249.775 647.961 268C647.94 286.225 662.698 301 680.923 301Z"
      fill="#171717" />
    <g id="G_RT_CTX">
      <path fill-rule="evenodd" clip-rule="evenodd"
        d="M667 273.662V262H675.325C677.154 262 678.631 263.481 678.631 265.315C678.631 267.149 677.154 268.63 675.325 268.63H671.901C671.901 270.523 673.437 272.063 675.325 272.063H678.631V273.662H675.325C672.558 273.662 670.306 271.405 670.306 268.63V267.031H675.325C676.274 267.031 677.037 266.267 677.037 265.315C677.037 264.363 676.274 263.599 675.325 263.599H668.595V273.662H667ZM687.53 273.662V263.599H682.512V262H694.143V263.599H689.125V273.662H687.53Z"
        fill="#A6A6A6" />
    </g>
  </g>
  <g id="G_RB" data-name="G_RB">
    <path id="G_RB_BORDER" fill-rule="evenodd" clip-rule="evenodd"
      d="M678.576 208.902C689.163 211.401 700.305 209.596 709.551 203.88C718.796 198.164 725.402 189.012 727.902 178.424C730.401 167.837 728.596 156.694 722.88 147.449C717.164 138.204 708.012 131.598 697.424 129.098C686.837 126.599 675.694 128.404 666.449 134.12C657.204 139.836 650.597 148.988 648.098 159.576C645.599 170.163 647.404 181.306 653.12 190.551C658.836 199.796 667.988 206.402 678.576 208.902Z"
      fill="#424242" />
    <path id="G_RB_BG"
      d="M687.923 202C706.148 202 720.94 187.225 720.961 169C720.983 150.775 706.225 136 688 136C669.775 136 654.983 150.775 654.961 169C654.94 187.225 669.698 202 687.923 202Z"
      fill="#171717" />
    <g id="G_RB_CTX">
      <path fill-rule="evenodd" clip-rule="evenodd"
        d="M674 174.662V163H682.325C684.154 163 685.631 164.481 685.631 166.315C685.631 168.149 684.154 169.63 682.325 169.63H678.901C678.901 171.523 680.437 173.063 682.325 173.063H685.631V174.662H682.325C679.558 174.662 677.306 172.405 677.306 169.63V168.031H682.325C683.274 168.031 684.037 167.267 684.037 166.315C684.037 165.363 683.274 164.599 682.325 164.599H675.595V174.662H674ZM689.512 173.063V163H697.063C698.892 163 700.37 164.481 700.37 166.315C700.37 167.15 700.053 167.926 699.549 168.502C700.51 169.078 701.155 170.136 701.155 171.347C701.155 173.18 699.678 174.662 697.849 174.662H689.524V173.063H689.512ZM691.107 164.599V168.031H697.063C698.013 168.031 698.775 167.267 698.775 166.315C698.775 165.363 698.013 164.599 697.063 164.599H691.107ZM691.107 169.63V173.063H697.837C698.787 173.063 699.549 172.299 699.549 171.347C699.549 170.394 698.787 169.63 697.837 169.63H691.107Z"
        fill="#A6A6A6" />
    </g>
  </g>
  <g id="G_Y" data-name="G_Y">
    <path id="G_Y_BORDER" fill-rule="evenodd" clip-rule="evenodd"
      d="M582.576 200.902C593.163 203.401 604.305 201.596 613.551 195.88C622.796 190.164 629.402 181.012 631.902 170.424C634.401 159.837 632.596 148.694 626.88 139.449C621.164 130.204 612.012 123.598 601.424 121.098C590.837 118.599 579.694 120.404 570.449 126.12C561.204 131.836 554.597 140.988 552.098 151.576C549.599 162.163 551.404 173.306 557.12 182.551C562.836 191.796 571.988 198.402 582.576 200.902Z"
      fill="#424242" />
    <path id="G_Y_BG"
      d="M591.923 194C610.148 194 624.94 179.225 624.961 161C624.983 142.775 610.225 128 592 128C573.775 128 558.983 142.775 558.961 161C558.94 179.225 573.698 194 591.923 194Z"
      fill="#171717" />
    <g id="G_Y_CTX">
      <path fill-rule="evenodd" clip-rule="evenodd"
        d="M599.02 165.108V163.474H588.549C586.04 163.474 584 161.429 584 158.913V153.012H585.595V158.913C585.595 160.547 586.92 161.876 588.549 161.876H599.02V153H600.614V165.097C600.614 167.612 598.574 169.658 596.065 169.658H585.595V168.059H596.065C597.695 168.059 599.02 166.731 599.02 165.097V165.108Z"
        fill="#A6A6A6" />
    </g>
  </g>
  <g id="G_M4" data-name="G_M4">
    <path id="G_M4_BORDER" fill-rule="evenodd" clip-rule="evenodd"
      d="M588.576 100.902C599.163 103.401 610.305 101.596 619.551 95.8801C628.796 90.1641 635.402 81.0116 637.902 70.4244C640.401 59.8371 638.596 48.6945 632.88 39.4495C627.164 30.2044 618.012 23.5975 607.424 21.0982C596.837 18.5989 585.694 20.404 576.449 26.1199C567.204 31.8359 560.597 40.9884 558.098 51.5756C555.599 62.1629 557.404 73.3055 563.12 82.5505C568.836 91.7956 577.988 98.4025 588.576 100.902Z"
      fill="#424242" />
    <path id="G_M4_BG"
      d="M597.923 94C616.148 94 630.94 79.2254 630.961 61C630.983 42.7746 616.225 28 598 28C579.775 28 564.983 42.7746 564.961 61C564.94 79.2254 579.698 94 597.923 94Z"
      fill="#171717" />
    <g id="G_M4_CTX">
      <path d="M613.254 45.4546L583.648 76.56" stroke="#A6A6A6" stroke-width="2" stroke-miterlimit="10" />

      <path
        d="M598.105 82.3203C609.761 82.3203 619.21 72.8466 619.21 61.1602C619.21 49.4737 609.761 40 598.105 40C586.449 40 577 49.4737 577 61.1602C577 72.8466 586.449 82.3203 598.105 82.3203Z"
        stroke="#A6A6A6" stroke-width="2" stroke-miterlimit="10" />
    </g>
  </g>
  <g id="G_M3" data-name="G_M3">
    <path id="G_M3_BORDER" fill-rule="evenodd" clip-rule="evenodd"
      d="M501.576 141.902C512.163 144.401 523.305 142.596 532.551 136.88C541.796 131.164 548.402 122.012 550.902 111.424C553.401 100.837 551.596 89.6945 545.88 80.4495C540.164 71.2044 531.012 64.5975 520.424 62.0982C509.837 59.5989 498.694 61.404 489.449 67.1199C480.204 72.8359 473.597 81.9884 471.098 92.5756C468.599 103.163 470.404 114.306 476.12 123.551C481.836 132.796 490.988 139.402 501.576 141.902Z"
      fill="#424242" />
    <path id="G_M3_BG"
      d="M510.923 135C529.148 135 543.94 120.225 543.961 102C543.983 83.7746 529.225 69 511 69C492.775 69 477.983 83.7746 477.961 102C477.94 120.225 492.698 135 510.923 135Z"
      fill="#171717" />
    <g id="G_M3_CTX">
      <path d="M526.254 86.4546L496.648 117.56" stroke="#A6A6A6" stroke-width="2" stroke-miterlimit="10" />

      <path
        d="M511.105 123.32C522.761 123.32 532.21 113.847 532.21 102.16C532.21 90.4737 522.761 81 511.105 81C499.449 81 490 90.4737 490 102.16C490 113.847 499.449 123.32 511.105 123.32Z"
        stroke="#A6A6A6" stroke-width="2" stroke-miterlimit="10" />
    </g>
  </g>
  <g id="G_X" data-name="G_X">
    <path id="G_X_BORDER" fill-rule="evenodd" clip-rule="evenodd"
      d="M495.576 240.902C506.163 243.401 517.305 241.596 526.551 235.88C535.796 230.164 542.402 221.012 544.902 210.424C547.401 199.837 545.596 188.694 539.88 179.449C534.164 170.204 525.012 163.598 514.424 161.098C503.837 158.599 492.694 160.404 483.449 166.12C474.204 171.836 467.597 180.988 465.098 191.576C462.599 202.163 464.404 213.306 470.12 222.551C475.836 231.796 484.988 238.402 495.576 240.902Z"
      fill="#424242" />
    <path id="G_X_BG"
      d="M504.923 234C523.148 234 537.94 219.225 537.961 201C537.983 182.775 523.225 168 505 168C486.775 168 471.983 182.775 471.961 201C471.94 219.225 486.698 234 504.923 234Z"
      fill="#171717" />
    <g id="G_X_CTX">
      <path fill-rule="evenodd" clip-rule="evenodd"
        d="M498.876 193C500.564 193.059 502.018 193.999 502.816 195.375L505.325 199.724L507.834 195.375L509.217 196.174C509.733 195.269 510.683 194.646 511.774 194.599H513.65V193H511.774C510.085 193.059 508.631 194.011 507.834 195.386L509.217 196.186L506.251 201.335L509.217 206.484C509.733 207.377 510.671 208 511.774 208.059H513.65V209.658H511.774C510.085 209.599 508.631 208.647 507.834 207.271L505.325 202.922L502.816 207.271C502.03 208.647 500.564 209.587 498.876 209.658H497V208.059H498.876C499.966 208 500.916 207.377 501.432 206.472L504.398 201.323L501.432 196.174C500.916 195.269 499.966 194.646 498.876 194.599H497V193H498.876Z"
        fill="#A6A6A6" />
    </g>
  </g>
  <g id="G_A" data-name="G_A">
    <path id="G_A_BORDER" fill-rule="evenodd" clip-rule="evenodd"
      d="M488.576 340.902C499.163 343.401 510.305 341.596 519.551 335.88C528.796 330.164 535.402 321.012 537.902 310.424C540.401 299.837 538.596 288.694 532.88 279.449C527.164 270.204 518.012 263.598 507.424 261.098C496.837 258.599 485.694 260.404 476.449 266.12C467.204 271.836 460.597 280.988 458.098 291.576C455.599 302.163 457.404 313.306 463.12 322.551C468.836 331.796 477.988 338.402 488.576 340.902Z"
      fill="#424242" />
    <path id="G_A_BG"
      d="M497.923 334C516.148 334 530.94 319.225 530.961 301C530.983 282.775 516.225 268 498 268C479.775 268 464.983 282.775 464.961 301C464.94 319.225 479.698 334 497.923 334Z"
      fill="#171717" />
    <g id="G_A_CTX">
      <path fill-rule="evenodd" clip-rule="evenodd"
        d="M490 309.67L497.246 293H497.633H498.981H499.368L506.614 309.67H504.879L502.182 303.474H496.167L496.859 301.876H501.491L498.313 294.564L491.735 309.67H490Z"
        fill="#A6A6A6" />
    </g>
  </g>
  <g id="G_RIGHT" data-name="G_RIGHT">
    <path id="G_RIGHT_BORDER" fill-rule="evenodd" clip-rule="evenodd"
      d="M393.576 284.902C404.163 287.401 415.305 285.596 424.551 279.88C433.796 274.164 440.402 265.012 442.902 254.424C445.401 243.837 443.596 232.694 437.88 223.449C432.164 214.204 423.012 207.598 412.424 205.098C401.837 202.599 390.694 204.404 381.449 210.12C372.204 215.836 365.597 224.988 363.098 235.576C360.599 246.163 362.404 257.306 368.12 266.551C373.836 275.796 382.988 282.402 393.576 284.902Z"
      fill="#424242" />
    <path id="G_RIGHT_BG"
      d="M402.923 278C421.148 278 435.94 263.225 435.961 245C435.983 226.775 421.225 212 403 212C384.775 212 369.983 226.775 369.961 245C369.94 263.225 384.698 278 402.923 278Z"
      fill="#171717" />
    <g id="G_RIGHT_CTX">
      <path fill-rule="evenodd" clip-rule="evenodd"
        d="M397.663 233.846L396.983 233.458C395.928 232.847 394.72 232.847 393.665 233.458C392.61 234.07 392 235.116 392 236.35V253.29C392 254.513 392.61 255.559 393.665 256.17C394.72 256.782 395.928 256.782 396.983 256.17L400.266 254.266L411.616 247.695C412.671 247.083 413.281 246.037 413.281 244.814C413.281 243.592 412.671 242.546 411.616 241.934L397.663 233.858V233.846Z"
        fill="#A6A6A6" />
    </g>
  </g>
  <g id="G_DOWN" data-name="G_DOWN">
    <path id="G_DOWN_BORDER" fill-rule="evenodd" clip-rule="evenodd"
      d="M307.576 233.902C318.163 236.401 329.305 234.596 338.551 228.88C347.796 223.164 354.402 214.012 356.902 203.424C359.401 192.837 357.596 181.694 351.88 172.449C346.164 163.204 337.012 156.598 326.424 154.098C315.837 151.599 304.694 153.404 295.449 159.12C286.204 164.836 279.597 173.988 277.098 184.576C274.599 195.163 276.404 206.306 282.12 215.551C287.836 224.796 296.988 231.402 307.576 233.902Z"
      fill="#424242" />
    <path id="G_DOWN_BG"
      d="M316.923 227C335.148 227 349.94 212.225 349.961 194C349.983 175.775 335.225 161 317 161C298.775 161 283.983 175.775 283.961 194C283.94 212.225 298.698 227 316.923 227Z"
      fill="#171717" />
    <g id="G_DOWN_CTX">
      <path fill-rule="evenodd" clip-rule="evenodd"
        d="M327.723 188.678L328.11 187.996C328.72 186.938 328.72 185.727 328.11 184.669C327.5 183.611 326.457 183 325.226 183H308.33C307.11 183 306.067 183.611 305.457 184.669C304.848 185.727 304.848 186.938 305.457 187.996L307.357 191.288L313.911 202.667C314.521 203.725 315.564 204.336 316.784 204.336C318.003 204.336 319.047 203.725 319.656 202.667L327.711 188.678H327.723Z"
        fill="#A6A6A6" />
    </g>
  </g>
  <g id="G_M2" data-name="G_M2">
    <path id="G_M2_BORDER" fill-rule="evenodd" clip-rule="evenodd"
      d="M337.576 138.902C348.163 141.401 359.305 139.596 368.551 133.88C377.796 128.164 384.402 119.012 386.902 108.424C389.401 97.8371 387.596 86.6945 381.88 77.4495C376.164 68.2044 367.012 61.5975 356.424 59.0982C345.837 56.5989 334.694 58.404 325.449 64.1199C316.204 69.8359 309.597 78.9884 307.098 89.5756C304.599 100.163 306.404 111.306 312.12 120.551C317.836 129.796 326.988 136.402 337.576 138.902Z"
      fill="#424242" />
    <path id="G_M2_BG"
      d="M346.923 132C365.148 132 379.94 117.225 379.961 99C379.983 80.7746 365.225 66 347 66C328.775 66 313.983 80.7746 313.961 99C313.94 117.225 328.698 132 346.923 132Z"
      fill="#171717" />
    <g id="G_M2_CTX">
      <path d="M362.242 83.4664L332.648 114.572" stroke="#A6A6A6" stroke-width="2" stroke-miterlimit="10" />

      <path
        d="M347.105 120.32C358.761 120.32 368.21 110.847 368.21 99.1602C368.21 87.4737 358.761 78 347.105 78C335.449 78 326 87.4737 326 99.1602C326 110.847 335.449 120.32 347.105 120.32Z"
        stroke="#A6A6A6" stroke-width="2" stroke-miterlimit="10" />
    </g>
  </g>
  <g id="G_LEFT" data-name="G_LEFT">
    <path id="G_LEFT_BORDER" fill-rule="evenodd" clip-rule="evenodd"
      d="M208.576 233.902C219.163 236.401 230.305 234.596 239.551 228.88C248.796 223.164 255.402 214.012 257.902 203.424C260.401 192.837 258.596 181.694 252.88 172.449C247.164 163.204 238.012 156.598 227.424 154.098C216.837 151.599 205.694 153.404 196.449 159.12C187.204 164.836 180.597 173.988 178.098 184.576C175.599 195.163 177.404 206.306 183.12 215.551C188.836 224.796 197.988 231.402 208.576 233.902Z"
      fill="#424242" />
    <path id="G_LEFT_BG"
      d="M217.923 227C236.148 227 250.94 212.225 250.961 194C250.983 175.775 236.225 161 218 161C199.775 161 184.983 175.775 184.961 194C184.94 212.225 199.698 227 217.923 227Z"
      fill="#171717" />
    <g id="G_LEFT_CTX">
      <path fill-rule="evenodd" clip-rule="evenodd"
        d="M222.618 204.771L223.298 205.159C224.353 205.77 225.561 205.77 226.616 205.159C227.671 204.547 228.281 203.501 228.281 202.278V185.339C228.281 184.116 227.671 183.07 226.616 182.458C225.561 181.847 224.353 181.847 223.298 182.458L220.015 184.363L208.665 190.934C207.61 191.546 207 192.592 207 193.814C207 195.037 207.61 196.083 208.665 196.695L222.618 204.771Z"
        fill="#A6A6A6" />
    </g>
  </g>
  <g id="G_M1" data-name="G_M1">
    <path id="G_M1_BORDER" fill-rule="evenodd" clip-rule="evenodd"
      d="M107.576 273.902C118.163 276.401 129.305 274.596 138.551 268.88C147.796 263.164 154.402 254.012 156.902 243.424C159.401 232.837 157.596 221.694 151.88 212.449C146.164 203.204 137.012 196.598 126.424 194.098C115.837 191.599 104.694 193.404 95.4494 199.12C86.2044 204.836 79.5975 213.988 77.0982 224.576C74.5989 235.163 76.404 246.306 82.12 255.551C87.8359 264.796 96.9884 271.402 107.576 273.902Z"
      fill="#424242" />
    <path id="G_M1_BG"
      d="M116.923 267C135.148 267 149.94 252.225 149.961 234C149.983 215.775 135.225 201 117 201C98.7746 201 83.9828 215.775 83.9615 234C83.9402 252.225 98.6976 267 116.923 267Z"
      fill="#171717" />
    <g id="G_M1_CTX">
      <path d="M132.254 218.466L102.648 249.572" stroke="#A6A6A6" stroke-width="2" stroke-miterlimit="10" />

      <path
        d="M117.105 255.32C128.761 255.32 138.21 245.847 138.21 234.16C138.21 222.474 128.761 213 117.105 213C105.449 213 96 222.474 96 234.16C96 245.847 105.449 255.32 117.105 255.32Z"
        stroke="#A6A6A6" stroke-width="2" stroke-miterlimit="10" />
    </g>
  </g>
  <g id="G_R3" data-name="G_R3">
    <path id="G_R3_BORDER" fill-rule="evenodd" clip-rule="evenodd"
      d="M541.576 424.902C552.163 427.401 563.305 425.596 572.551 419.88C581.796 414.164 588.402 405.012 590.902 394.424C593.401 383.837 591.596 372.694 585.88 363.449C580.164 354.204 571.012 347.598 560.424 345.098C549.837 342.599 538.694 344.404 529.449 350.12C520.204 355.836 513.597 364.988 511.098 375.576C508.599 386.163 510.404 397.306 516.12 406.551C521.836 415.796 530.988 422.402 541.576 424.902Z"
      fill="#424242" />
    <path id="G_R3_BG"
      d="M550.923 418C569.148 418 583.94 403.225 583.961 385C583.983 366.775 569.225 352 551 352C532.775 352 517.983 366.775 517.961 385C517.94 403.225 532.698 418 550.923 418Z"
      fill="#171717" />
    <g id="G_R3_CTX">
      <path fill-rule="evenodd" clip-rule="evenodd"
        d="M538 392V379H546.262C548.078 379 549.544 380.651 549.544 382.696C549.544 384.74 548.078 386.391 546.262 386.391H542.864C542.864 388.501 544.389 390.218 546.262 390.218H549.544V392H546.262C543.516 392 541.282 389.484 541.282 386.391V384.609H546.262C547.205 384.609 547.961 383.757 547.961 382.696C547.961 381.634 547.205 380.782 546.262 380.782H539.583V392H538ZM563.788 385.5C564.486 386.181 564.928 387.177 564.928 388.304C564.928 390.349 563.462 392 561.646 392H553.384V390.218H561.646C562.589 390.218 563.345 389.366 563.345 388.304C563.345 387.243 562.589 386.391 561.646 386.391H553.384V384.609H561.646C562.589 384.609 563.345 383.757 563.345 382.696C563.345 381.634 562.589 380.782 561.646 380.782H553.384V379H561.646C563.462 379 564.928 380.651 564.928 382.696C564.928 383.823 564.486 384.819 563.788 385.5Z"
        fill="#A6A6A6" />
    </g>
  </g>
  <g id="G_L3" data-name="G_L3">
    <path id="G_L3_BORDER" fill-rule="evenodd" clip-rule="evenodd"
      d="M332.576 437.902C343.163 440.401 354.305 438.596 363.551 432.88C372.796 427.164 379.402 418.012 381.902 407.424C384.401 396.837 382.596 385.694 376.88 376.449C371.164 367.204 362.012 360.598 351.424 358.098C340.837 355.599 329.694 357.404 320.449 363.12C311.204 368.836 304.597 377.988 302.098 388.576C299.599 399.163 301.404 410.306 307.12 419.551C312.836 428.796 321.988 435.402 332.576 437.902Z"
      fill="#424242" />
    <path id="G_L3_BG"
      d="M341.923 431C360.148 431 374.94 416.225 374.961 398C374.983 379.775 360.225 365 342 365C323.775 365 308.983 379.775 308.961 398C308.94 416.225 323.698 431 341.923 431Z"
      fill="#171717" />
    <g id="G_L3_CTX">
      <path fill-rule="evenodd" clip-rule="evenodd"
        d="M343.819 393H351.772C353.519 393 354.931 394.397 354.931 396.127C354.931 397.081 354.505 397.923 353.833 398.5C354.505 399.077 354.931 399.919 354.931 400.873C354.931 402.603 353.519 404 351.772 404H343.819V402.492H351.772C352.679 402.492 353.407 401.771 353.407 400.873C353.407 399.975 352.679 399.254 351.772 399.254H343.819V397.746H351.772C352.679 397.746 353.407 397.025 353.407 396.127C353.407 395.229 352.679 394.508 351.772 394.508H343.819V393ZM332.159 402.492H340.112V404H332.159C330.411 404 329 402.603 329 400.873V393H330.523V400.873C330.523 401.771 331.251 402.492 332.159 402.492Z"
        fill="#A6A6A6" />
    </g>
  </g>
  <g id="G_B" data-name="G_B">
    <path id="G_B_BORDER" fill-rule="evenodd" clip-rule="evenodd"
      d="M574.576 300.902C585.163 303.401 596.305 301.596 605.551 295.88C614.796 290.164 621.402 281.012 623.902 270.424C626.401 259.837 624.596 248.694 618.88 239.449C613.164 230.204 604.012 223.598 593.424 221.098C582.837 218.599 571.694 220.404 562.449 226.12C553.204 231.836 546.597 240.988 544.098 251.576C541.599 262.163 543.404 273.306 549.12 282.551C554.836 291.796 563.988 298.402 574.576 300.902Z"
      fill="#424242" />
    <path id="G_B_BG"
      d="M583.923 294C602.148 294 616.94 279.225 616.961 261C616.983 242.775 602.225 228 584 228C565.775 228 550.983 242.775 550.961 261C550.94 279.225 565.698 294 583.923 294Z"
      fill="#171717" />
    <g id="G_B_CTX">
      <path fill-rule="evenodd" clip-rule="evenodd"
        d="M576 269.658V253H587.268C589.777 253 591.817 255.045 591.817 257.561C591.817 258.96 591.184 260.218 590.187 261.053C591.629 261.817 592.614 263.333 592.614 265.085C592.614 267.601 590.574 269.646 588.065 269.646H576V269.658ZM588.065 262.122H577.595V268.059H588.065C589.695 268.059 591.02 266.731 591.02 265.097C591.02 263.463 589.695 262.134 588.065 262.134V262.122ZM587.268 254.587H577.595V260.524H587.268C588.897 260.524 590.222 259.195 590.222 257.561C590.222 255.927 588.897 254.599 587.268 254.599V254.587Z"
        fill="#A6A6A6" />
    </g>
  </g>
  <g id="G_LT" data-name="G_LT">
    <path id="G_LT_BORDER" fill-rule="evenodd" clip-rule="evenodd"
      d="M766.576 326.902C777.163 329.401 788.305 327.596 797.551 321.88C806.796 316.164 813.402 307.012 815.902 296.424C818.401 285.837 816.596 274.694 810.88 265.449C805.164 256.204 796.012 249.598 785.424 247.098C774.837 244.599 763.694 246.404 754.449 252.12C745.204 257.836 738.597 266.988 736.098 277.576C733.599 288.163 735.404 299.306 741.12 308.551C746.836 317.796 755.988 324.402 766.576 326.902Z"
      fill="#424242" />
    <path id="G_LT_BG"
      d="M775.923 320C794.148 320 808.94 305.225 808.961 287C808.983 268.775 794.225 254 776 254C757.775 254 742.983 268.775 742.961 287C742.94 305.225 757.698 320 775.923 320Z"
      fill="#171717" />
    <g id="G_LT_CTX">
      <path fill-rule="evenodd" clip-rule="evenodd"
        d="M766.094 291.063H774.418V292.662H766.094C764.264 292.662 762.787 291.18 762.787 289.347V281H764.382V289.347C764.382 290.299 765.144 291.063 766.094 291.063Z"
        fill="#A6A6A6" />
      <path fill-rule="evenodd" clip-rule="evenodd"
        d="M778.288 281H789.919V282.599H784.901V292.662H783.306V282.599H778.288V281Z" fill="#A6A6A6" />

    </g>
  </g>

  <g id="G_LB" data-name="G_LB">
    <path id="G_LB_BORDER" fill-rule="evenodd" clip-rule="evenodd"
      d="M774.576 227.902C785.163 230.401 796.305 228.596 805.551 222.88C814.796 217.164 821.402 208.012 823.902 197.424C826.401 186.837 824.596 175.694 818.88 166.449C813.164 157.204 804.012 150.598 793.424 148.098C782.837 145.599 771.694 147.404 762.449 153.12C753.204 158.836 746.597 167.988 744.098 178.576C741.599 189.163 743.404 200.306 749.12 209.551C754.836 218.796 763.988 225.402 774.576 227.902Z"
      fill="#424242" />
    <path id="G_LB_BG"
      d="M783.923 221C802.148 221 816.94 206.225 816.961 188C816.983 169.775 802.225 155 784 155C765.775 155 750.983 169.775 750.961 188C750.94 206.225 765.698 221 783.923 221Z"
      fill="#171717" />
    <g id="G_LB_CTX">
      <path fill-rule="evenodd" clip-rule="evenodd"
        d="M785.512 182H793.063C794.892 182 796.37 183.481 796.37 185.315C796.37 186.15 796.053 186.926 795.549 187.502C796.51 188.078 797.155 189.136 797.155 190.347C797.155 192.18 795.678 193.662 793.849 193.662H785.524V182H785.512ZM787.107 192.063H793.837C794.787 192.063 795.549 191.299 795.549 190.347C795.549 189.394 794.787 188.63 793.837 188.63H787.107V192.063ZM787.107 187.031H793.063C794.013 187.031 794.775 186.267 794.775 185.315C794.775 184.363 794.013 183.599 793.063 183.599H787.107V187.031ZM773.306 192.063H781.631V193.662H773.306C771.477 193.662 770 192.18 770 190.347V182H771.595V190.347C771.595 191.299 772.357 192.063 773.306 192.063Z"
        fill="#A6A6A6" />
    </g>
  </g>
  <g id="G_UP" data-name="G_UP">
    <path id="G_UP_BORDER_PUR" fill-rule="evenodd" clip-rule="evenodd"
      d="M447.828 471.636C462.929 471.636 476.677 465.973 487.048 456.674C486.784 455.573 487.083 454.364 487.946 453.512C489.275 452.197 491.419 452.197 492.748 453.512C494.077 454.826 494.077 456.947 492.748 458.262C491.838 459.162 490.544 459.446 489.383 459.115C478.401 468.982 463.815 475 447.816 475C431.817 475 417.232 468.982 406.25 459.115C405.101 459.446 403.795 459.162 402.897 458.262C401.568 456.947 401.568 454.826 402.897 453.512C404.226 452.197 406.37 452.197 407.699 453.512C408.561 454.364 408.861 455.573 408.597 456.674C418.968 465.962 432.728 471.624 447.816 471.624L447.828 471.636ZM386.467 430.092C386.132 428.872 386.527 427.616 387.389 426.799C386.479 422.617 386 418.282 386 413.828C386 396.935 392.922 381.642 404.107 370.578C410.98 363.779 419.483 358.567 428.967 355.558C429.255 354.409 430.153 353.449 431.386 353.117C433.195 352.644 435.063 353.698 435.542 355.487C436.033 357.275 434.955 359.123 433.147 359.597C431.961 359.917 430.74 359.562 429.913 358.78C420.98 361.623 412.992 366.539 406.514 372.947C395.94 383.407 389.401 397.859 389.401 413.828C389.401 417.997 389.844 422.072 390.694 425.993C391.796 426.313 392.706 427.178 393.029 428.351C393.52 430.14 392.443 431.987 390.634 432.461C388.826 432.947 386.958 431.881 386.479 430.092H386.467ZM509.202 430.092C508.711 431.881 506.855 432.947 505.046 432.461C503.238 431.976 502.16 430.14 502.651 428.351C502.975 427.178 503.885 426.313 504.987 425.993C505.837 422.072 506.28 417.997 506.28 413.828C506.28 397.859 499.741 383.407 489.167 372.947C482.689 366.539 474.689 361.623 465.755 358.78C464.929 359.562 463.72 359.917 462.522 359.597C460.714 359.111 459.636 357.275 460.127 355.487C460.618 353.698 462.474 352.632 464.283 353.117C465.516 353.449 466.414 354.409 466.702 355.558C476.198 358.567 484.688 363.767 491.562 370.578C502.747 381.642 509.669 396.935 509.669 413.828C509.669 418.282 509.19 422.617 508.28 426.799C509.142 427.616 509.537 428.872 509.202 430.092Z"
      fill="#7615E6" />
    <path id="G_UP_BORDER" fill-rule="evenodd" clip-rule="evenodd"
      d="M499.065 406.094C496.88 392.354 489.445 380.059 478.399 371.91C467.352 363.773 453.582 360.452 440.139 362.674C426.696 364.908 414.668 372.508 406.695 383.799C398.735 395.09 395.485 409.165 397.66 422.906C399.845 436.646 407.28 448.941 418.326 457.09C429.373 465.227 443.143 468.548 456.586 466.326C470.029 464.092 482.057 456.492 490.029 445.201C497.99 433.91 501.24 419.835 499.065 406.094Z"
      fill="#424242" />
    <path id="G_UP_BG" fill-rule="evenodd" clip-rule="evenodd"
      d="M458.13 373.138C447.184 370.548 435.665 372.419 426.107 378.344C416.549 384.269 409.719 393.756 407.135 404.731C404.552 415.705 406.418 427.256 412.327 436.839C418.236 446.422 427.698 453.271 438.643 455.862C449.589 458.452 461.108 456.581 470.666 450.656C480.224 444.731 487.054 435.244 489.638 424.269C492.221 413.295 490.355 401.744 484.446 392.161C478.537 382.578 469.075 375.729 458.13 373.138Z"
      fill="#171717" />

    <path id="G_UP_BORDER_LIGHT" fill-rule="evenodd" clip-rule="evenodd"
      d="M457.703 374.461C452.523 373.219 447.225 373.052 442.081 373.9C436.936 374.747 431.956 376.61 427.435 379.44C422.915 382.27 419.053 385.959 416.004 390.245C412.967 394.532 410.742 399.415 409.517 404.657C408.293 409.911 408.128 415.284 408.964 420.501C409.8 425.719 411.636 430.77 414.426 435.355C417.217 439.94 420.854 443.856 425.081 446.948C429.307 450.029 434.122 452.285 439.291 453.527C444.471 454.769 449.768 454.936 454.913 454.088C460.058 453.241 465.038 451.378 469.558 448.548C474.079 445.719 477.941 442.029 480.99 437.743C484.027 433.456 486.252 428.573 487.476 423.331C488.701 418.078 488.866 412.705 488.03 407.487C487.194 402.269 485.357 397.218 482.567 392.633C479.777 388.048 476.139 384.132 471.913 381.04C467.686 377.959 462.871 375.703 457.703 374.461ZM441.551 370.568C447.119 369.649 452.876 369.84 458.468 371.177C464.06 372.515 469.288 374.962 473.867 378.305C478.447 381.649 482.379 385.899 485.404 390.866C488.43 395.833 490.42 401.302 491.326 406.949C492.233 412.597 492.044 418.436 490.726 424.107C489.407 429.779 486.994 435.08 483.697 439.725C480.401 444.369 476.21 448.357 471.312 451.426C466.415 454.494 461.023 456.512 455.455 457.432C449.886 458.351 444.129 458.16 438.537 456.823C432.945 455.485 427.718 453.038 423.138 449.695C418.559 446.351 414.627 442.101 411.601 437.134C408.575 432.167 406.586 426.698 405.679 421.051C404.773 415.403 404.961 409.564 406.28 403.893C407.598 398.221 410.012 392.92 413.308 388.275C416.604 383.631 420.796 379.643 425.693 376.574C430.59 373.506 435.982 371.488 441.551 370.568Z"
      fill="#A6A6A6" />
    <g id="G_UP_CTX">
      <path fill-rule="evenodd" clip-rule="evenodd"
        d="M450.741 399.913L470.019 418.723C471.25 419.924 471.25 421.9 470.019 423.102C469.166 423.933 467.935 424.188 466.845 423.864C466.111 423.668 458.769 421.727 448.503 421.727C438.236 421.727 430.859 423.668 430.148 423.864C429.059 424.188 427.839 423.922 426.986 423.09C425.755 421.888 425.755 419.913 426.986 418.711L446.265 399.901C446.395 399.774 446.549 399.647 446.691 399.555C446.774 399.497 446.869 399.439 446.963 399.393C446.963 399.393 447.058 399.347 447.105 399.324L447.176 399.289L447.247 399.254L447.319 399.22L447.39 399.196C447.39 399.196 447.484 399.162 447.532 399.15C447.532 399.15 447.626 399.116 447.674 399.104L447.745 399.081C447.745 399.081 447.84 399.058 447.899 399.046C447.97 399.035 448.053 399.023 448.124 399.012C448.124 399.012 448.23 399.012 448.278 399C448.349 399 448.432 399 448.503 399H448.574H448.645H448.716H448.787H448.858L448.929 399.023C448.929 399.023 448.976 399.023 449 399.023H449.071L449.142 399.046H449.213V399.058L449.284 399.081L449.355 399.104L449.426 399.127L449.497 399.15L449.568 399.173L449.639 399.196L449.711 399.231L449.782 399.266L449.853 399.3L449.924 399.335L449.995 399.37L450.066 399.404L450.137 399.439L450.208 399.485L450.279 399.531L450.338 399.578L450.397 399.624L450.457 399.67L450.516 399.716L450.575 399.774L450.634 399.832L450.693 399.89L450.741 399.913Z"
        fill="#7615E6" />
    </g>
  </g>








</svg>
