<svg fill="none" xmlns="http://www.w3.org/2000/svg">
  <defs>
    <style>
      .cls-1 {
        fill: #171717;
      }

      .cls-1,
      .cls-2,
      .cls-3 {
        fill-rule: evenodd;
      }

      .cls-2 {
        fill: #7615e6;
      }

      .cls-3 {
        fill: #424242;
      }
    </style>
  </defs>
  <symbol id="svg_3" viewBox="0 0 765.35 442.44" xmlns="http://www.w3.org/2000/svg">
    <g>
      <path class="cls-1"
        d="M17.72,256.15A35.43,35.43,0,0,1,0,225.46V86.69A35.41,35.41,0,0,1,12.66,59.55L73.74,8.29A35.47,35.47,0,0,1,96.52,0H668.84a35.44,35.44,0,0,1,22.77,8.29L752.7,59.55a35.43,35.43,0,0,1,12.65,27.14V225.46a35.44,35.44,0,0,1-17.71,30.69L433.2,437.69a35.44,35.44,0,0,1-20.59,4.63c-9.63-.78-19.78-1.17-29.93-1.17s-20.31.39-29.94,1.17a35.47,35.47,0,0,1-20.59-4.63Z" />
      <path class="cls-2"
        d="M671.53,36.85,734.2,89.43v132l-27,15.57h0v22.88l-139.5,80.54v3.27l139.5-80.54v.06l2.84-1.64v-.06l2.83-1.63v.06l2.84-1.64v-.06l2.83-1.64v.06h0l2.84-1.63V255l2.83-1.64v.06l2.84-1.64V228.82l10-5.76V88.11L672.56,34h-8.82L640.1,14.17H540.81L544.19,17H595l23.65,19.84h52.91Zm38.52,221.39v-19.6l2.83-1.64v19.6l-2.83,1.64Zm5.67-3.27v-19.6l2.83-1.64v19.6L715.72,255Zm5.67-3.28v-19.6l2.83-1.63v19.6l-2.83,1.63ZM282.87,15.76l-4.55,7.89c-.51.87-1.27,1-1.7.21l-4.68-8.11c-.5-.87-.2-1.57.67-1.57h9.6c.87,0,1.17.7.66,1.58Zm-16.64-.57,7.9,13.68a.66.66,0,0,0,.59.34.65.65,0,0,0,.58-.34l.57-1a.67.67,0,0,0,0-.67l-7.34-12.71a.65.65,0,0,0-.58-.33h-1.13a.68.68,0,0,0-.59.33.69.69,0,0,0,0,.68Zm30.08-1h2.4a.73.73,0,0,1,.65.37.72.72,0,0,1,0,.75l-2.44,4.24a.72.72,0,0,0,0,.75.71.71,0,0,0,.65.37h9.92a.73.73,0,0,0,.65-.37l3.31-5.74a.72.72,0,0,1,.65-.37h2.4a.75.75,0,0,1,.65,1.12l-7.81,13.53a.73.73,0,0,1-.65.38h-2.4a.73.73,0,0,1-.65-.38.72.72,0,0,1,0-.75l1.56-2.71a.75.75,0,0,0-.65-1.12h-9.92a.72.72,0,0,0-.65.37l-2.43,4.21a.74.74,0,0,1-.65.38h-2.4a.76.76,0,0,1-.65-1.13l7.81-13.53a.71.71,0,0,1,.65-.37Zm125.82,4L423.76,21a.72.72,0,0,1,0,.75l-2,3.53a.72.72,0,0,1-.65.38h-9.92a.74.74,0,0,1-.65-.38.77.77,0,0,1,0-.75l3.68-6.36a.73.73,0,0,1,.65-.38h6.65a.74.74,0,0,1,.65.38ZM427.9,21l-3.7-6.42a.73.73,0,0,0-.65-.37H412.76a.72.72,0,0,0-.65.37L404.3,28.08a.72.72,0,0,0,0,.75.73.73,0,0,0,.65.38h18.19a.72.72,0,0,0,.65-.38l4.11-7.11a.72.72,0,0,0,0-.75Zm-41.76-.31h9.92a.73.73,0,0,0,.65-.37l.81-1.4a.77.77,0,0,0,0-.75.74.74,0,0,0-.65-.38H387a.75.75,0,0,0-.66.38l-.8,1.4a.72.72,0,0,0,0,.75.71.71,0,0,0,.65.37Zm7,3.59H383.2a.73.73,0,0,0-.65.37l-2.43,4.21a.74.74,0,0,1-.65.38h-2.4a.76.76,0,0,1-.65-1.13l7.81-13.53a.71.71,0,0,1,.65-.37h18.19a.75.75,0,0,1,.65,1.12l-7.81,13.53a.73.73,0,0,1-.65.38h-2.4a.73.73,0,0,1-.65-.38.72.72,0,0,1,0-.75l1.56-2.71a.75.75,0,0,0-.65-1.12Zm-34.86-3.59h9.91a.74.74,0,0,0,.66-.37l.8-1.4a.76.76,0,0,0-.65-1.13h-9.92a.74.74,0,0,0-.65.38l-.81,1.4a.77.77,0,0,0,0,.75.74.74,0,0,0,.66.37Zm-3.59,4-2.43,4.21a.74.74,0,0,1-.65.38h-2.41a.74.74,0,0,1-.65-.38.77.77,0,0,1,0-.75l7.81-13.53a.74.74,0,0,1,.66-.37l18.17,0a.73.73,0,0,1,.65.38.72.72,0,0,1,0,.75l-4.93,8.53a.72.72,0,0,1-.65.38H355.32a.72.72,0,0,0-.65.37Zm-20.24-8,1.2-2.08a.72.72,0,0,1,.65-.37h11a.73.73,0,0,1,.65.37.72.72,0,0,1,0,.75l-1.2,2.09a.76.76,0,0,1-.65.37H343a.72.72,0,0,0-.65.38l-6.18,10.69a.73.73,0,0,1-.65.38h-2.4a.76.76,0,0,1-.65-1.13l5.31-9.19a.77.77,0,0,0,0-.75.75.75,0,0,0-.66-.38h-2a.75.75,0,0,1-.65-1.13Zm-10.24-2.45h2.4a.75.75,0,0,1,.65,1.12l-7.81,13.53a.73.73,0,0,1-.65.38h-2.4a.73.73,0,0,1-.65-.38.72.72,0,0,1,0-.75l7.81-13.53a.72.72,0,0,1,.65-.37ZM28.32,223.06l10,5.76v22.93l2.83,1.64v-.06L44,255V255l2.83,1.63h0v-.06l2.84,1.64v.06l2.83,1.64v-.06l2.84,1.63v.06l2.83,1.64v-.06l139.5,80.54v-3.27L58.14,259.88V237h0l-2.83-1.63-2.84-1.64-2.83-1.64-2.84-1.63L44,228.82l-2.84-1.64-2.83-1.63-7.14-4.12v-132L93.82,36.85h26.46L143.93,17h0l3.38-2.84h-22L101.61,34H92.79L28.32,88.11v135Zm12.81,7.4L44,232.09v19.6l-2.84-1.63v-19.6Zm5.67,3.27,2.84,1.64V255l-2.84-1.64v-19.6ZM52.47,237l2.84,1.64v19.6l-2.84-1.64V237ZM139.52,17,119.25,34h-4.41l20.27-17Zm-8.82,0L110.43,34H106l20.27-17Zm508.37,0,20.26,17h-4.41L634.66,17Zm-8.82,0,20.27,17h-4.41L625.84,17Zm-8.82,0L641.7,34h-4.41L617,17Zm-8.82,0,20.27,17h-4.41L608.2,17Zm-8.82,0,20.27,17h-4.41L599.38,17Z" />
      <path class="cls-3"
        d="M513.08,378.51,476,399.92l-8.48-4.9-44.24,25.54-.1.06h0a14.62,14.62,0,0,1-2,1,16.45,16.45,0,0,1-2.22.7,15.46,15.46,0,0,1-2.28.32,17.34,17.34,0,0,1-2.48,0c-1.83-.15-4.34-.32-7.48-.51-2-.12-4.71-.24-8-.37-2.5-.1-5.24-.18-8.2-.24-4.38-.09-7-.13-7.82-.13s-3.45,0-7.83.13q-4.44.09-8.19.24c-3.28.13-6,.25-8,.37-3.14.19-5.64.36-7.48.51a17.31,17.31,0,0,1-2.48,0,15.43,15.43,0,0,1-4.59-1c-.42-.17-.83-.34-1.21-.53l-45.69-26.37-8.48,4.89-36.46-21.05h0L35.46,253.33v-9.78L27.61,239a15.67,15.67,0,0,1-3.24-2.47A15.23,15.23,0,0,1,22,233.44h0a1,1,0,0,0-.09-.18,15.61,15.61,0,0,1-2-7.8v-8l-8.51-4.91V106.08L19.82,99V86.69a15.9,15.9,0,0,1,.32-3.4,15.37,15.37,0,0,1,1.14-3.2,15.53,15.53,0,0,1,1.75-3,15.79,15.79,0,0,1,2.31-2.4L86.43,23.48a16,16,0,0,1,2.27-1.6,14.3,14.3,0,0,1,2.42-1.14,15.08,15.08,0,0,1,2.62-.67,16.05,16.05,0,0,1,2.76-.23h17.59l10.14-8.5h516.9l10.13,8.5h17.6a16.14,16.14,0,0,1,2.76.23,15,15,0,0,1,2.61.67,14.76,14.76,0,0,1,2.43,1.14,15.36,15.36,0,0,1,2.26,1.6L740,74.74a15.79,15.79,0,0,1,2.31,2.4,17.48,17.48,0,0,1,2.9,6.15,15.9,15.9,0,0,1,.32,3.4V99l8.5,7.13V212.56l-8.5,4.91v8a15.46,15.46,0,0,1-.52,4.06,15.19,15.19,0,0,1-1.52,3.74,1,1,0,0,0-.09.18h0a15.55,15.55,0,0,1-2.41,3.11,16,16,0,0,1-3.25,2.47l-7.85,4.53v9.78L513.08,378.51ZM742.37,108.14a.69.69,0,0,0,.19.5.59.59,0,0,0,.47.21h2.44a4.75,4.75,0,0,1,.78.06,1.14,1.14,0,0,1,.63.33.87.87,0,0,1,.3.64v3.62a.66.66,0,0,0,.22.48.67.67,0,0,0,.49.19.63.63,0,0,0,.47-.2.66.66,0,0,0,.2-.47v-4a1.79,1.79,0,0,0-.49-1.18,2.5,2.5,0,0,0-1.1-.68,4.73,4.73,0,0,0-1.37-.2H743a.61.61,0,0,0-.46.2.65.65,0,0,0-.2.47Zm2.7,1.2a.66.66,0,0,0-.49.2.66.66,0,0,0-.2.49v3.47a.7.7,0,0,0,.2.5.67.67,0,0,0,.49.19.64.64,0,0,0,.49-.2.66.66,0,0,0,.2-.49V110a.66.66,0,0,0-.2-.49.68.68,0,0,0-.49-.2Zm3.49,12.37v-3.59a1.68,1.68,0,0,0-.54-1.2,2.92,2.92,0,0,0-1.16-.68,4.36,4.36,0,0,0-1.34-.21,4.66,4.66,0,0,0-1.33.2,2.89,2.89,0,0,0-1.17.68,1.75,1.75,0,0,0-.53,1.21v3.59a1.74,1.74,0,0,0,.54,1.19,3.06,3.06,0,0,0,1.16.69,4.35,4.35,0,0,0,1.33.21,4.23,4.23,0,0,0,1-.12,3.64,3.64,0,0,0,.94-.38,2.39,2.39,0,0,0,.76-.66,1.57,1.57,0,0,0,.33-.93Zm-4.69-.35a.93.93,0,0,0,.29.65,1.62,1.62,0,0,0,.63.37,2.33,2.33,0,0,0,.73.12,2.28,2.28,0,0,0,.73-.12,1.69,1.69,0,0,0,.63-.38.87.87,0,0,0,.3-.64v-2.93a.88.88,0,0,0-.3-.64,1.69,1.69,0,0,0-.63-.38,2.28,2.28,0,0,0-.73-.12,2.33,2.33,0,0,0-.73.12,1.62,1.62,0,0,0-.63.37,1,1,0,0,0-.29.65v2.93Zm-.85,6h3.89q.26,0,.27.27v3.61a.75.75,0,0,1-.09.32.53.53,0,0,1-.17.19.39.39,0,0,1-.2.06.36.36,0,0,1-.2-.06.47.47,0,0,1-.18-.19.75.75,0,0,1-.09-.32v-2.72a.64.64,0,0,0-.2-.49.66.66,0,0,0-.48-.2,9.72,9.72,0,0,0-1,.19,2.47,2.47,0,0,0-1.44.75,1.85,1.85,0,0,0-.6,1.37v2.41a.69.69,0,0,0,1.38,0v-2.22a.85.85,0,0,1,.25-.63,1.31,1.31,0,0,1,.76-.34v1.81a2.17,2.17,0,0,0,.33,1.19,1.85,1.85,0,0,0,.7.67,1.7,1.7,0,0,0,1.6,0,2,2,0,0,0,.71-.67,2.26,2.26,0,0,0,.33-1.19v-.06a.49.49,0,0,0,0-.12v-4.31a.68.68,0,0,0-.67-.71H743a.6.6,0,0,0-.48.21.71.71,0,0,0-.19.5.67.67,0,0,0,.67.68Zm-.65,13a.67.67,0,0,0,.19.49.64.64,0,0,0,.47.22h2.44a3.25,3.25,0,0,1,.78.06,1.19,1.19,0,0,1,.63.32.89.89,0,0,1,.3.65v3.62a.68.68,0,0,0,.22.48.69.69,0,0,0,1,0,.69.69,0,0,0,.2-.47v-4a1.81,1.81,0,0,0-.49-1.19,2.48,2.48,0,0,0-1.1-.67,5.1,5.1,0,0,0-1.37-.21H743a.66.66,0,0,0-.46.21.63.63,0,0,0-.2.47Zm2.7,1.19a.68.68,0,0,0-.69.69v3.48a.7.7,0,0,0,.2.49.7.7,0,0,0,1,0,.7.7,0,0,0,.2-.49v-3.48a.7.7,0,0,0-.69-.69Zm-1.89,6.63a.72.72,0,0,0-.69.69v5.33a.7.7,0,0,0,.2.49.69.69,0,0,0,1.18-.49v-2h3.31v2a.7.7,0,0,0,.2.49.69.69,0,0,0,1.18-.49v-5.33a.68.68,0,0,0-.69-.69.72.72,0,0,0-.69.69v2h-3.31v-2a.68.68,0,0,0-.69-.69Zm5.38,10.78a1.65,1.65,0,0,0-.55-1.18,3,3,0,0,0-1.16-.67,4.25,4.25,0,0,0-1.33-.21,4.54,4.54,0,0,0-1.32.2,3,3,0,0,0-1.16.67,1.69,1.69,0,0,0-.55,1.19v4.38a.7.7,0,0,0,.21.47.63.63,0,0,0,.46.2h2.43a.69.69,0,0,0,.47-.2.67.67,0,0,0,.19-.49v-3.52a.67.67,0,0,0-.19-.49.7.7,0,0,0-.49-.2.66.66,0,0,0-.49.2.66.66,0,0,0-.2.49v2.63c0,.13-.07.19-.21.2h-.6a.19.19,0,0,1-.2-.2v-3.12a.89.89,0,0,1,.3-.65,1.69,1.69,0,0,1,.63-.38,2.25,2.25,0,0,1,1.45,0,1.69,1.69,0,0,1,.63.38.89.89,0,0,1,.3.65v4a.66.66,0,0,0,.67.67.71.71,0,0,0,.49-.19.68.68,0,0,0,.22-.48v-4.34Zm.16,8.08a.69.69,0,0,0-.19-.49.59.59,0,0,0-.47-.21h-5a.6.6,0,0,0-.48.21.69.69,0,0,0-.19.49.66.66,0,0,0,.67.68H745V171H743a.6.6,0,0,0-.48.21.69.69,0,0,0-.19.5.67.67,0,0,0,.67.68h5a.66.66,0,0,0,.46-.21.65.65,0,0,0,.2-.47.69.69,0,0,0-.19-.5.63.63,0,0,0-.47-.21h-1.72v-3.35h1.72a.61.61,0,0,0,.46-.2.66.66,0,0,0,.2-.48Zm-.85,7.55a.72.72,0,0,0-.69.69v2.3H743a.6.6,0,0,0-.48.21.71.71,0,0,0-.19.5.66.66,0,0,0,.67.68h4.16v2.3a.66.66,0,0,0,.2.48.64.64,0,0,0,.49.2.67.67,0,0,0,.49-.19.7.7,0,0,0,.2-.49v-6a.68.68,0,0,0-.2-.49.7.7,0,0,0-.49-.2Zm.69,11.41a1.67,1.67,0,0,0-.55-1.18,3.15,3.15,0,0,0-1.16-.67,4.49,4.49,0,0,0-2.65,0,3,3,0,0,0-1.16.66,1.69,1.69,0,0,0-.55,1.19v4a.69.69,0,0,0,1.38,0v-3.62a.89.89,0,0,1,.3-.65,1.67,1.67,0,0,1,.63-.37,2.25,2.25,0,0,1,1.45,0,1.67,1.67,0,0,1,.63.37.89.89,0,0,1,.3.65v3.62a.66.66,0,0,0,.67.67.7.7,0,0,0,.71-.67v-4Zm-3,4.62a.68.68,0,0,0,.68-.69v-3.11a.69.69,0,0,0-.19-.49.7.7,0,0,0-.49-.2.66.66,0,0,0-.49.2.66.66,0,0,0-.2.49v3.11a.62.62,0,0,0,.2.48.64.64,0,0,0,.49.21ZM743,194.08h3.89q.26,0,.27.27V198a.71.71,0,0,1-.09.32.53.53,0,0,1-.17.19.39.39,0,0,1-.2.06.36.36,0,0,1-.2-.06.47.47,0,0,1-.18-.19.71.71,0,0,1-.09-.32v-2.72a.68.68,0,0,0-.68-.69c-.08,0-.43.07-1,.19a2.52,2.52,0,0,0-1.44.75,1.85,1.85,0,0,0-.6,1.38v2.4a.66.66,0,0,0,.2.47.63.63,0,0,0,.47.2.67.67,0,0,0,.49-.19.64.64,0,0,0,.22-.48v-2.22a.81.81,0,0,1,.25-.62,1.2,1.2,0,0,1,.76-.34v1.81a2.2,2.2,0,0,0,.33,1.19,1.82,1.82,0,0,0,.7.66,1.68,1.68,0,0,0,.81.2,1.65,1.65,0,0,0,.79-.2,2,2,0,0,0,.71-.67,2.22,2.22,0,0,0,.33-1.18v-.07a.49.49,0,0,0,0-.12V193.4a.7.7,0,0,0-.67-.71H743a.6.6,0,0,0-.48.21.71.71,0,0,0-.19.5.67.67,0,0,0,.67.68Zm4.85,14.69a.68.68,0,0,0,.69-.68v-3.87a.62.62,0,0,0,0-.13V204a2.22,2.22,0,0,0-.33-1.18,2,2,0,0,0-.71-.67,1.67,1.67,0,0,0-.79-.21,1.8,1.8,0,0,0-.81.2,1.93,1.93,0,0,0-.7.67,2.2,2.2,0,0,0-.33,1.19V207a.68.68,0,0,1-.1.33.56.56,0,0,1-.41.25.46.46,0,0,1-.22-.06.68.68,0,0,1-.19-.19.58.58,0,0,1-.07-.33v-4.13a.7.7,0,0,0-.69-.69.7.7,0,0,0-.49.2.68.68,0,0,0-.2.49v3.89a.49.49,0,0,0,0,.12v.06a2.17,2.17,0,0,0,.31,1.19,1.94,1.94,0,0,0,.72.66,1.82,1.82,0,0,0,.82.21,1.91,1.91,0,0,0,.83-.2,2,2,0,0,0,.72-.67,2.17,2.17,0,0,0,.33-1.19V204a.71.71,0,0,1,.09-.32.47.47,0,0,1,.18-.19.31.31,0,0,1,.2-.07.32.32,0,0,1,.2.07.53.53,0,0,1,.17.19.71.71,0,0,1,.09.32v4.12a.63.63,0,0,0,.21.48.62.62,0,0,0,.48.2ZM20.15,197.26a1.89,1.89,0,0,0-.68.62l0,0a1.79,1.79,0,0,0-.8-.2,1.68,1.68,0,0,0-.8.21,1.85,1.85,0,0,0-.7.67,2.11,2.11,0,0,0-.33,1.18v.06a.5.5,0,0,0,0,.12v3.54a.72.72,0,0,0,.2.47.69.69,0,0,0,.47.2h4.72a.65.65,0,0,0,.46-.2.63.63,0,0,0,.2-.47v-4.13a.62.62,0,0,0,0-.13v-.06a2.05,2.05,0,0,0-.31-1.18,2,2,0,0,0-.72-.67,1.75,1.75,0,0,0-.82-.21,1.91,1.91,0,0,0-.83.2Zm1.31,1.8a.46.46,0,0,0-.07-.32.49.49,0,0,0-.19-.19.44.44,0,0,0-.22-.07.59.59,0,0,0-.2.07.54.54,0,0,0-.21.19.53.53,0,0,0-.09.32v3.66h.71c.18,0,.27-.09.27-.29v-3.37Zm-2.45.27a.64.64,0,0,0-.17-.19.41.41,0,0,0-.2-.06.36.36,0,0,0-.2.06.55.55,0,0,0-.18.19.8.8,0,0,0-.09.33v2.77a.25.25,0,0,0,.28.29h.65v-3.06a.8.8,0,0,0-.09-.33Zm-2.38-5.07a.7.7,0,0,0,.2.48.63.63,0,0,0,.47.2h.32a4.85,4.85,0,0,0,1.38-.2,2.52,2.52,0,0,0,1.09-.68,1.79,1.79,0,0,0,.49-1.19v-3.15a1.27,1.27,0,0,1,.59.32.89.89,0,0,1,.29.64V194a.68.68,0,0,0,.22.48.74.74,0,0,0,.5.19.7.7,0,0,0,.46-.2.65.65,0,0,0,.2-.47v-3.71a1.74,1.74,0,0,0-.49-1.18,2.47,2.47,0,0,0-1.09-.68,5.28,5.28,0,0,0-1.55-.22H17.32a.67.67,0,0,0-.67.67.69.69,0,0,0,.19.5.61.61,0,0,0,.48.22H19.2v2.89a.88.88,0,0,1-.3.64,1.28,1.28,0,0,1-.63.33,3.79,3.79,0,0,1-.77.05h-.2a.68.68,0,0,0-.48.22.69.69,0,0,0-.19.49ZM23,180.92a.71.71,0,0,0-.19-.49.68.68,0,0,0-.48-.22H19.88a3.89,3.89,0,0,1-.78-.05,1.37,1.37,0,0,1-.63-.33,1,1,0,0,1-.3-.65v-3.62a.67.67,0,0,0-.21-.48.75.75,0,0,0-.5-.18.65.65,0,0,0-.47.2.7.7,0,0,0-.2.46v4a1.86,1.86,0,0,0,.49,1.19,2.66,2.66,0,0,0,1.1.68,5.11,5.11,0,0,0,1.38.2h2.56a.69.69,0,0,0,.47-.2.75.75,0,0,0,.2-.48Zm-2.71-1.19a.68.68,0,0,0,.49-.2A.7.7,0,0,0,21,179v-3.48a.69.69,0,0,0-.19-.49.72.72,0,0,0-.5-.2.68.68,0,0,0-.69.69V179a.72.72,0,0,0,.69.69Zm1.9-6.63a.68.68,0,0,0,.68-.69v-5.33a.68.68,0,0,0-.68-.69.7.7,0,0,0-.5.2.69.69,0,0,0-.19.49v2H18.17v-2a.66.66,0,0,0-.2-.49.66.66,0,0,0-.49-.2.68.68,0,0,0-.69.69v5.33a.68.68,0,0,0,.2.49.7.7,0,0,0,.49.2.66.66,0,0,0,.49-.2.7.7,0,0,0,.2-.49v-2h3.32v2a.64.64,0,0,0,.2.49.66.66,0,0,0,.49.2Zm-5.39-10.77a1.7,1.7,0,0,0,.56,1.18,3,3,0,0,0,1.15.67,4.61,4.61,0,0,0,1.33.2,4.66,4.66,0,0,0,1.33-.2,3,3,0,0,0,1.15-.67,1.65,1.65,0,0,0,.55-1.18v-4.39a.67.67,0,0,0-.67-.66H19.77a.65.65,0,0,0-.67.68v3.52a.65.65,0,0,0,.69.69.7.7,0,0,0,.49-.2.68.68,0,0,0,.2-.49v-2.63a.19.19,0,0,1,.2-.2h.6a.2.2,0,0,1,.21.2V162a.94.94,0,0,1-.3.64,1.86,1.86,0,0,1-.63.38,2.28,2.28,0,0,1-1.46,0,1.86,1.86,0,0,1-.63-.38.94.94,0,0,1-.3-.64v-4a.64.64,0,0,0-.67-.66.69.69,0,0,0-.49.19.64.64,0,0,0-.22.47v4.35Zm-.16-8.09a.69.69,0,0,0,.19.49.68.68,0,0,0,.48.22h5a.63.63,0,0,0,.48-.21.76.76,0,0,0,.19-.5.68.68,0,0,0-.67-.68H20.4v-3.35h1.94a.63.63,0,0,0,.48-.21.73.73,0,0,0,.19-.49.67.67,0,0,0-.67-.68h-5a.63.63,0,0,0-.47.2.7.7,0,0,0-.2.48.69.69,0,0,0,.19.49.63.63,0,0,0,.48.21H19v3.35H17.3a.67.67,0,0,0-.47.2.7.7,0,0,0-.2.48Zm.85-7.55a.68.68,0,0,0,.69-.69v-2.3h4.17a.63.63,0,0,0,.48-.21A.76.76,0,0,0,23,143a.68.68,0,0,0-.67-.68H18.17V140a.64.64,0,0,0-.2-.49.66.66,0,0,0-.49-.2.69.69,0,0,0-.49.19.72.72,0,0,0-.2.5v6a.66.66,0,0,0,.2.49.66.66,0,0,0,.49.2Zm-.69-11.41a1.66,1.66,0,0,0,.56,1.18,2.91,2.91,0,0,0,1.15.67,4.3,4.3,0,0,0,1.33.21,4.66,4.66,0,0,0,1.33-.2,3.11,3.11,0,0,0,1.15-.67,1.65,1.65,0,0,0,.55-1.19v-4a.65.65,0,0,0-.2-.47.7.7,0,0,0-.47-.2.73.73,0,0,0-.49.19.63.63,0,0,0-.21.48v3.62a1,1,0,0,1-.3.65,1.86,1.86,0,0,1-.63.38,2.48,2.48,0,0,1-1.46,0,1.86,1.86,0,0,1-.63-.38,1,1,0,0,1-.3-.65v-3.62a.66.66,0,0,0-.67-.67.73.73,0,0,0-.49.19.68.68,0,0,0-.22.48v4Zm3-4.62a.68.68,0,0,0-.49.2.7.7,0,0,0-.2.49v3.11a.67.67,0,0,0,.19.49.72.72,0,0,0,.5.2.68.68,0,0,0,.69-.69v-3.11a.72.72,0,0,0-.69-.69Zm2.55-3.49h-3.9a.24.24,0,0,1-.27-.26V123.3a.8.8,0,0,1,.09-.33.47.47,0,0,1,.18-.19.36.36,0,0,1,.2-.06.41.41,0,0,1,.2.06A.53.53,0,0,1,19,123a.8.8,0,0,1,.09.33V126a.68.68,0,0,0,.69.69c.07,0,.42-.06,1-.18a2.6,2.6,0,0,0,1.44-.76,1.87,1.87,0,0,0,.59-1.37V122a.63.63,0,0,0-.2-.47.66.66,0,0,0-.47-.2.69.69,0,0,0-.49.19.63.63,0,0,0-.21.48v2.22a.89.89,0,0,1-.25.63,1.38,1.38,0,0,1-.76.34v-1.81a2.35,2.35,0,0,0-.33-1.19,1.87,1.87,0,0,0-.71-.67,1.79,1.79,0,0,0-.8-.2,1.68,1.68,0,0,0-.8.21,1.82,1.82,0,0,0-.7.66,2.17,2.17,0,0,0-.33,1.19v.06a.5.5,0,0,0,0,.12v4.31a.72.72,0,0,0,.2.5.63.63,0,0,0,.47.21h4.88a.63.63,0,0,0,.48-.21.76.76,0,0,0,.19-.5.68.68,0,0,0-.67-.68Zm-4.86-14.69a.7.7,0,0,0-.49.2.68.68,0,0,0-.2.49V117a.5.5,0,0,0,0,.12v.06a2.11,2.11,0,0,0,.33,1.18,1.85,1.85,0,0,0,.7.67,1.68,1.68,0,0,0,.8.21,1.79,1.79,0,0,0,.8-.2,2,2,0,0,0,.71-.67,2.35,2.35,0,0,0,.33-1.19V114.3a.53.53,0,0,1,.09-.32.54.54,0,0,1,.21-.19.43.43,0,0,1,.2-.07.36.36,0,0,1,.22.07.49.49,0,0,1,.19.19.46.46,0,0,1,.07.32v4.13a.64.64,0,0,0,.21.49.62.62,0,0,0,.48.2.68.68,0,0,0,.69-.69v-3.88a.62.62,0,0,0,0-.13v-.06a2.05,2.05,0,0,0-.31-1.18,2,2,0,0,0-.72-.67,1.75,1.75,0,0,0-.82-.21,1.94,1.94,0,0,0-.83.2,2,2,0,0,0-.72.67,2.2,2.2,0,0,0-.33,1.19v2.92a.8.8,0,0,1-.09.33.64.64,0,0,1-.17.19.41.41,0,0,1-.2.06.36.36,0,0,1-.2-.06.55.55,0,0,1-.18-.19.8.8,0,0,1-.09-.33v-4.11a.66.66,0,0,0-.2-.48.64.64,0,0,0-.49-.21ZM198.39,332a1,1,0,0,0,1.49-1.15l-1.8-6.75a1,1,0,0,0-1.25-.72l-6.75,1.81a1,1,0,0,0-.25,1.86l8.56,4.95ZM38.65,93.07a1,1,0,0,0-.31,1.08,1,1,0,0,0,.88.71l7,.61a1,1,0,0,0,1.1-.92l.61-7a1,1,0,0,0-1.67-.87l-7.57,6.35ZM90.42,49.63a1,1,0,0,0-.31,1.08,1,1,0,0,0,.88.71L98,52a1,1,0,0,0,1.1-.92l.61-7a1,1,0,0,0-.54-1,1,1,0,0,0-1.13.13l-7.57,6.35Zm584.51,0-7.57-6.35a1,1,0,0,0-1.12-.13,1,1,0,0,0-.55,1l.61,7a1,1,0,0,0,1.1.92l7-.61a1,1,0,0,0,.88-.71,1,1,0,0,0-.32-1.08ZM726.7,93.07l-7.57-6.35a1,1,0,0,0-1.12-.13,1,1,0,0,0-.55,1l.61,7a1,1,0,0,0,1.11.92l7-.61a1,1,0,0,0,.88-.71,1,1,0,0,0-.32-1.08ZM567,332l8.56-4.95a1,1,0,0,0-.25-1.86l-6.74-1.81a1,1,0,0,0-1.25.72l-1.81,6.75A1,1,0,0,0,567,332ZM131,5.67H96.5a29.56,29.56,0,0,0-19.15,7L16.27,63.89A29.72,29.72,0,0,0,5.65,86.69V225.46a29.7,29.7,0,0,0,4,14.88l.15.29a29.78,29.78,0,0,0,10.76,10.62l4.34,2.51L242.78,379.57h0l60.4,34.88h0L335,432.8h0a29.75,29.75,0,0,0,17.32,3.86c4.65-.37,9.65-.67,14.91-.87,5.41-.21,10.59-.32,15.47-.32s10.05.11,15.46.32,10.27.5,14.92.87a29.75,29.75,0,0,0,9-.61,30.16,30.16,0,0,0,8.08-3.1l.27-.16,31.8-18.36h0l60.41-34.88h0l217.9-125.81,4.35-2.51a29.67,29.67,0,0,0,10.75-10.62l.16-.29a29.7,29.7,0,0,0,4-14.88V86.69a29.81,29.81,0,0,0-10.62-22.8L688,12.63a29.56,29.56,0,0,0-19.14-7H131ZM266.59,23.19h-8.32c-.87,0-1.17-.7-.67-1.57L261,15.75c.5-.87.2-1.57-.67-1.57h-2.05a3.29,3.29,0,0,0-2.49,1.58l-3.38,5.86a3.28,3.28,0,0,1-2.49,1.57h-3.83c-.87,0-1.17-.7-.66-1.57l3.38-5.87c.5-.87.2-1.57-.67-1.57H230.49c-.87,0-1.17.71-.67,1.58l.24.41a3.34,3.34,0,0,1,.17,2.85l-9.3,16.12c-.51.87-.21,1.58.66,1.58h13.53a3.29,3.29,0,0,0,2.49-1.58L241,29.28a3.29,3.29,0,0,1,2.49-1.58h1.85c4.84,0,11,3.92,13.82,8.76l1.84,3.2a3.31,3.31,0,0,0,2.49,1.57h3.11a3.28,3.28,0,0,0,2.49-1.58l3.38-5.86a3.25,3.25,0,0,0,.12-2.95l-3.5-6.07a3.28,3.28,0,0,0-2.49-1.58ZM170,29.28a3.28,3.28,0,0,1,2.49-1.58h3.82c.88,0,1.17.71.67,1.58l-.78,1.35c-.5.87-.2,1.58.67,1.58h13.52a3.28,3.28,0,0,0,2.49-1.58l6-10.36a3.31,3.31,0,0,0,.12-2.95l-.9-1.56a3.27,3.27,0,0,0-2.49-1.58h-8.32a3.25,3.25,0,0,0-2.49,1.58l-3.38,5.86a3.28,3.28,0,0,1-2.49,1.57h-3.83c-.87,0-1.17-.7-.67-1.57l3.39-5.86c.5-.87.2-1.58-.67-1.58H153.05c-.88,0-1.17.71-.67,1.58l.78,1.35a3.28,3.28,0,0,0,2.49,1.58h2.2c.88,0,1.18.7.67,1.58l-6,10.36a3.28,3.28,0,0,0-.13,2.95l.91,1.56a3.26,3.26,0,0,0,2.49,1.58h8.31a3.26,3.26,0,0,0,2.49-1.58L170,29.28Zm36.82-15.1c-.87,0-1.17.7-.67,1.58l.24.41a3.28,3.28,0,0,1,.12,2.95l-8.63,15a5.52,5.52,0,0,1-4.18,2.65H174.27a3.3,3.3,0,0,0-2.5,1.58L171,39.65c-.51.87-.21,1.58.66,1.58h33.11c3.13,0,7.12-2.53,8.92-5.66,2.89-5,6.24-10.32,8.89-15.4a2,2,0,0,0,.12-.26,3.22,3.22,0,0,0,0-2.59c-.31-.54-.61-1.08-.93-1.61a3.46,3.46,0,0,0-1.92-1.45,2.37,2.37,0,0,0-.53-.08C215.13,14.15,211,14.18,206.82,14.18Z" />
    </g>
  </symbol>
  <symbol height="456" id="svg_102" width="750" xmlns="http://www.w3.org/2000/svg"
    xmlns:svg="http://www.w3.org/2000/svg">
    <g clip-path="url(#clip0_215_1932)" id="svg_2">
      <g id="G_M1">
        <path clip-rule="evenodd"
          d="m12.22,243.81c7.83,7.81 18.43,12.2 29.5,12.2c11.07,0 21.67,-4.38 29.49,-12.2c7.83,-7.82 12.22,-18.41 12.22,-29.46c0,-11.05 -4.39,-21.64 -12.22,-29.45c-7.83,-7.81 -18.44,-12.2 -29.5,-12.2c-11.07,0 -21.67,4.39 -29.49,12.2c-7.83,7.82 -12.22,18.41 -12.22,29.46c0,11.05 4.39,21.65 12.22,29.45z"
          fill="#424242" fill-rule="evenodd" id="G_M1_BORDER" />
        <path clip-rule="evenodd"
          d="m49.38,181.93c-8.61,-2.03 -17.68,-0.56 -25.21,4.09c-7.52,4.64 -12.9,12.09 -14.93,20.69c-2.04,8.61 -0.56,17.66 4.1,25.18c4.65,7.51 12.1,12.89 20.72,14.92c8.61,2.03 17.68,0.56 25.21,-4.09c7.52,-4.65 12.9,-12.09 14.94,-20.69c2.04,-8.61 0.57,-17.66 -4.1,-25.18c-4.65,-7.51 -12.1,-12.89 -20.71,-14.91l-0.02,-0.01z"
          fill-rule="evenodd" id="G_M1_BG" />
        <g id="G_M1_CTX" stroke="#A6A6A6">
          <path
            d="m42.27,236.16c11.71,0 21.19,-9.47 21.19,-21.16c0,-11.69 -9.48,-21.16 -21.19,-21.16c-11.7,0 -21.19,9.47 -21.19,21.16c0,11.69 9.49,21.16 21.19,21.16z"
            id="svg_45" stroke-miterlimit="10" stroke-width="2" />
          <path d="m57.48,199.31l-29.72,31.1" id="G_M1_ICO" stroke-miterlimit="10" stroke-width="2" />
        </g>
      </g>
      <g id="G_LEFT">
        <path clip-rule="evenodd"
          d="m131.12,215.01c10.69,2.83 22.07,1.32 31.64,-4.23c9.57,-5.55 16.54,-14.66 19.38,-25.34c2.83,-10.67 1.32,-22.04 -4.24,-31.59c-5.56,-9.56 -14.68,-16.52 -25.37,-19.35c-10.69,-2.84 -22.07,-1.32 -31.64,4.23c-9.57,5.55 -16.54,14.66 -19.38,25.33c-2.84,10.68 -1.32,22.04 4.24,31.6c5.56,9.56 14.68,16.52 25.37,19.35z"
          fill="#424242" fill-rule="evenodd" id="G_LT_BORDER" />
        <path clip-rule="evenodd"
          d="m174.3,182.41c2.03,-8.6 0.56,-17.66 -4.1,-25.18c-4.65,-7.51 -12.1,-12.88 -20.72,-14.92c-8.61,-2.03 -17.68,-0.56 -25.21,4.1c-7.53,4.64 -12.91,12.08 -14.94,20.68c-2.04,8.61 -0.57,17.66 4.09,25.19c4.65,7.51 12.11,12.88 20.72,14.9c8.62,2.04 17.68,0.57 25.22,-4.09c7.52,-4.64 12.9,-12.08 14.93,-20.69l0.01,0.01z"
          fill="#171717" fill-rule="evenodd" id="G_M1_BG" />
        <g id="G_LT_CTX" stroke="#A6A6A6">
          <path clip-rule="evenodd"
            d="m144.36,185.72l0.68,0.38c1.06,0.62 2.28,0.62 3.34,0c1.06,-0.61 1.67,-1.65 1.67,-2.88l0,-16.94c0,-1.22 -0.61,-2.27 -1.67,-2.88c-1.06,-0.61 -2.28,-0.61 -3.34,0l-3.29,1.91l-11.4,6.57c-1.06,0.61 -1.67,1.66 -1.67,2.88c0,1.22 0.61,2.27 1.67,2.88l14.01,8.08z"
            fill="#A6A6A6" fill-rule="evenodd" />
        </g>
      </g>
      <g id="G_M2">
        <path clip-rule="evenodd"
          d="m312.51,89.25c2.55,-10.76 0.71,-22.08 -5.11,-31.47c-5.81,-9.39 -15.12,-16.11 -25.89,-18.65c-10.77,-2.53 -22.11,-0.7 -31.52,5.11c-9.4,5.8 -16.13,15.1 -18.67,25.86c-2.54,10.76 -0.7,22.08 5.11,31.47c5.82,9.39 15.13,16.1 25.9,18.64c10.77,2.54 22.11,0.71 31.51,-5.1c9.41,-5.81 16.13,-15.11 18.67,-25.86z"
          fill="#424242" fill-rule="evenodd" id="svg_4" />
        <path clip-rule="evenodd"
          d="m279.59,47.25c-8.62,-2.04 -17.68,-0.57 -25.22,4.09c-7.52,4.64 -12.9,12.08 -14.93,20.69c-2.03,8.6 -0.56,17.65 4.1,25.18c4.65,7.51 12.1,12.88 20.72,14.9c8.62,2.04 17.68,0.57 25.22,-4.09c7.52,-4.64 12.9,-12.08 14.92,-20.69c2.04,-8.6 0.57,-17.65 -4.09,-25.18c-4.65,-7.51 -12.11,-12.88 -20.72,-14.9z"
          fill="#171717" fill-rule="evenodd" id="svg_19" />
        <g id="G_M2_CTX">
          <path
            d="m271.9,101.53c11.7,0 21.19,-9.47 21.19,-21.16c0,-11.68 -9.49,-21.16 -21.19,-21.16c-11.7,0 -21.19,9.48 -21.19,21.16c0,11.69 9.49,21.16 21.19,21.16z"
            id="svg_49" stroke="#A6A6A6" stroke-miterlimit="10" stroke-width="2" />
          <path d="m287.1,64.68l-29.72,31.1" id="svg_50" stroke="#A6A6A6" stroke-miterlimit="10" stroke-width="2" />
        </g>
      </g>
      <g id="G_DN">
        <path clip-rule="evenodd"
          d="m227.81,214.27c10.5,3.49 21.96,2.68 31.85,-2.26c9.89,-4.93 17.42,-13.6 20.92,-24.08c3.49,-10.49 2.68,-21.93 -2.26,-31.8c-4.95,-9.89 -13.62,-17.4 -24.13,-20.89c-10.5,-3.49 -21.95,-2.68 -31.84,2.25c-9.89,4.94 -17.42,13.6 -20.92,24.09c-3.49,10.49 -2.68,21.93 2.26,31.8c4.95,9.87 13.62,17.4 24.12,20.89z"
          fill="#424242" fill-rule="evenodd" id="svg_9" />
        <path clip-rule="evenodd"
          d="m248.67,142.33c-8.61,-2.04 -17.68,-0.57 -25.21,4.09c-7.52,4.64 -12.9,12.08 -14.94,20.69c-2.04,8.6 -0.57,17.65 4.1,25.18c4.65,7.51 12.1,12.88 20.72,14.9c8.61,2.04 17.68,0.57 25.21,-4.09c7.52,-4.64 12.9,-12.08 14.93,-20.69c2.03,-8.6 0.56,-17.66 -4.1,-25.18c-4.65,-7.51 -12.1,-12.88 -20.72,-14.92l0.01,0.02z"
          fill="#171717" fill-rule="evenodd" id="svg_39" />
        <g id="G_DN_CTX">
          <path clip-rule="evenodd"
            d="m251.98,172.21l0.39,-0.68c0.61,-1.06 0.61,-2.27 0,-3.33c-0.61,-1.06 -1.66,-1.67 -2.9,-1.67l-16.96,0c-1.22,0 -2.27,0.61 -2.88,1.67c-0.62,1.06 -0.62,2.27 0,3.33l1.9,3.29l6.58,11.38c0.62,1.06 1.66,1.67 2.89,1.67c1.22,0 2.27,-0.61 2.88,-1.67l8.09,-13.99l0.01,0z"
            fill="#A6A6A6" fill-rule="evenodd" id="svg_42" />
        </g>
      </g>
      <g id="G_M4">
        <path clip-rule="evenodd"
          d="m515.52,82.56c10.87,2.09 22.11,-0.21 31.28,-6.41c9.16,-6.19 15.48,-15.76 17.58,-26.61c2.09,-10.85 -0.21,-22.08 -6.42,-31.24c-6.2,-9.14 -15.79,-15.46 -26.65,-17.55c-10.87,-2.09 -22.11,0.21 -31.28,6.41c-9.16,6.19 -15.48,15.76 -17.57,26.61c-2.1,10.85 0.21,22.08 6.41,31.24c6.2,9.14 15.79,15.46 26.65,17.55z"
          fill="#424242" fill-rule="evenodd" id="svg_13" />
        <path clip-rule="evenodd"
          d="m531.09,9.23c-8.62,-2.04 -17.69,-0.57 -25.22,4.09c-7.52,4.64 -12.9,12.08 -14.94,20.69c-2.04,8.6 -0.56,17.66 4.1,25.18c4.65,7.51 12.1,12.88 20.72,14.92c8.61,2.03 17.68,0.56 25.21,-4.09c7.53,-4.65 12.91,-12.09 14.93,-20.69c2.04,-8.61 0.57,-17.66 -4.1,-25.18c-4.65,-7.52 -12.1,-12.89 -20.72,-14.91l0.02,-0.01z"
          fill="#171717" fill-rule="evenodd" id="svg_18" />
        <g id="G_M4_CTX">
          <path
            d="m523.41,63.03c11.7,0 21.19,-9.47 21.19,-21.16c0,-11.68 -9.49,-21.16 -21.19,-21.16c-11.7,0 -21.19,9.48 -21.19,21.16c0,11.69 9.49,21.16 21.19,21.16z"
            id="svg_51" stroke="#A6A6A6" stroke-miterlimit="10" stroke-width="2" />
          <path d="m538.62,26.17l-29.72,31.1" id="svg_52" stroke="#A6A6A6" stroke-miterlimit="10" stroke-width="2" />
        </g>
      </g>
      <g id="G_M3">
        <path clip-rule="evenodd"
          d="m475.88,91.13c2.54,-10.76 0.7,-22.08 -5.11,-31.47c-5.82,-9.39 -15.13,-16.11 -25.9,-18.64c-10.77,-2.54 -22.11,-0.71 -31.52,5.1c-9.4,5.8 -16.12,15.1 -18.67,25.86c-2.54,10.76 -0.7,22.08 5.11,31.47c5.82,9.39 15.13,16.11 25.9,18.64c10.77,2.54 22.11,0.71 31.51,-5.1c9.41,-5.8 16.13,-15.1 18.68,-25.86z"
          fill="#424242" fill-rule="evenodd" id="svg_12" />
        <path clip-rule="evenodd"
          d="m442.95,49.13c-8.62,-2.04 -17.68,-0.57 -25.22,4.09c-7.52,4.64 -12.9,12.08 -14.92,20.69c-2.04,8.6 -0.57,17.65 4.09,25.18c4.65,7.51 12.1,12.88 20.72,14.92c8.62,2.03 17.68,0.56 25.22,-4.09c7.52,-4.65 12.9,-12.09 14.94,-20.69c2.03,-8.61 0.56,-17.66 -4.1,-25.19c-4.65,-7.51 -12.1,-12.88 -20.72,-14.9l-0.01,-0.01z"
          fill="#171717" fill-rule="evenodd" id="svg_21" />
        <g id="G_M3_CTX">
          <path
            d="m435.27,103.3c11.71,0 21.19,-9.48 21.19,-21.16c0,-11.69 -9.48,-21.16 -21.19,-21.16c-11.7,0 -21.19,9.47 -21.19,21.16c0,11.68 9.49,21.16 21.19,21.16z"
            id="svg_47" stroke="#A6A6A6" stroke-miterlimit="10" stroke-width="2" />
          <path d="m450.48,66.43l-29.72,31.11" id="svg_48" stroke="#A6A6A6" stroke-miterlimit="10" stroke-width="2" />
        </g>
      </g>
      <g id="G_RIGHT">
        <path clip-rule="evenodd"
          d="m318.01,265.47c10.77,2.53 22.11,0.7 31.51,-5.11c9.41,-5.8 16.13,-15.1 18.68,-25.86c2.54,-10.75 0.7,-22.08 -5.11,-31.47c-5.82,-9.39 -15.13,-16.1 -25.9,-18.64c-10.77,-2.54 -22.11,-0.71 -31.52,5.1c-9.4,5.81 -16.12,15.1 -18.67,25.86c-2.54,10.76 -0.7,22.08 5.11,31.47c5.82,9.39 15.13,16.11 25.9,18.65z"
          fill="#424242" fill-rule="evenodd" id="svg_10" />
        <path clip-rule="evenodd"
          d="m295.12,217.27c-2.04,8.6 -0.57,17.66 4.09,25.18c4.65,7.51 12.1,12.88 20.72,14.91c8.62,2.03 17.68,0.56 25.22,-4.1c7.52,-4.64 12.9,-12.08 14.92,-20.69c2.04,-8.6 0.57,-17.65 -4.09,-25.18c-4.65,-7.51 -12.1,-12.88 -20.72,-14.92c-8.62,-2.03 -17.68,-0.56 -25.22,4.1c-7.52,4.64 -12.9,12.08 -14.94,20.69l0.02,0.01z"
          fill="#171717" fill-rule="evenodd" id="svg_41" />
        <g id="G_RIGHT_CTX">
          <path clip-rule="evenodd"
            d="m325.05,213.95l-0.68,-0.39c-1.06,-0.61 -2.27,-0.61 -3.33,0c-1.06,0.62 -1.67,1.66 -1.67,2.9l0,16.94c0,1.22 0.61,2.26 1.67,2.88c1.06,0.61 2.27,0.61 3.33,0l3.29,-1.91l11.4,-6.57c1.06,-0.61 1.67,-1.66 1.67,-2.88c0,-1.22 -0.61,-2.27 -1.67,-2.88l-14.01,-8.08l0,-0.01z"
            fill="#A6A6A6" fill-rule="evenodd" id="svg_44" />
        </g>
      </g>
      <g id="G_L3">
        <path clip-rule="evenodd"
          d="m278.32,337.53c-10.5,-2.98 -21.71,-1.57 -31.19,3.92c-9.48,5.49 -16.43,14.6 -19.34,25.34c-2.91,10.74 -1.53,22.21 3.84,31.9c5.36,9.7 14.27,16.81 24.77,19.78c10.49,2.98 21.71,1.57 31.18,-3.92c9.48,-5.49 16.43,-14.6 19.34,-25.34c2.91,-10.74 1.53,-22.21 -3.84,-31.9c-5.36,-9.7 -14.27,-16.81 -24.76,-19.78z"
          fill="#424242" fill-rule="evenodd" id="svg_56" />
        <path clip-rule="evenodd"
          d="m274.96,344.9c-8.54,-2.05 -17.51,-0.57 -24.97,4.11c-7.45,4.67 -12.77,12.15 -14.79,20.8c-2.02,8.65 -0.56,17.75 4.05,25.31c4.61,7.55 11.99,12.95 20.52,14.98c8.53,2.05 17.51,0.57 24.97,-4.11c7.44,-4.67 12.77,-12.15 14.77,-20.8c2.02,-8.65 0.56,-17.75 -4.05,-25.31c-4.6,-7.55 -11.98,-12.95 -20.52,-14.98l0.02,0z"
          fill="#171717" fill-rule="evenodd" id="svg_59" />
        <g id="G_L3_CTX">
          <path clip-rule="evenodd"
            d="m269.22,373l7.98,0c1.76,0 3.17,1.4 3.17,3.13c0,0.95 -0.42,1.79 -1.1,2.37c0.68,0.58 1.1,1.42 1.1,2.37c0,1.73 -1.41,3.13 -3.17,3.13l-7.98,0l0,-1.51l7.98,0c0.91,0 1.64,-0.72 1.64,-1.62c0,-0.89 -0.73,-1.62 -1.64,-1.62l-7.98,0l0,-1.5l7.98,0c0.91,0 1.64,-0.73 1.64,-1.62c0,-0.9 -0.73,-1.62 -1.64,-1.62l-7.98,0l0,-1.51zm-11.71,9.49l7.99,0l0,1.51l-7.99,0c-1.75,0 -3.17,-1.4 -3.17,-3.13l0,-7.87l1.53,0l0,7.87c0,0.9 0.73,1.62 1.64,1.62z"
            fill="#A6A6A6" fill-rule="evenodd" id="svg_60" />
        </g>
      </g>
      <g id="G_TOP">
        <path clip-rule="evenodd"
          d="m373.49,452.64c15.16,0 28.97,-5.67 39.38,-14.97c-0.27,-1.1 0.03,-2.31 0.9,-3.16c1.34,-1.31 3.49,-1.31 4.82,0c1.34,1.32 1.34,3.44 0,4.75c-0.91,0.9 -2.21,1.19 -3.38,0.86c-11.02,9.86 -25.67,15.88 -41.73,15.88c-16.06,0 -30.71,-6.02 -41.73,-15.88c-1.16,0.33 -2.47,0.04 -3.37,-0.86c-1.33,-1.31 -1.33,-3.43 0,-4.75c1.33,-1.31 3.49,-1.31 4.82,0c0.87,0.85 1.17,2.06 0.9,3.16c10.42,9.29 24.23,14.95 39.38,14.95l0.01,0.02zm-61.61,-41.55c-0.33,-1.22 0.06,-2.47 0.93,-3.29c-0.91,-4.18 -1.39,-8.52 -1.39,-12.97c0,-16.89 6.95,-32.19 18.18,-43.25c6.9,-6.8 15.43,-12.01 24.96,-15.02c0.28,-1.15 1.19,-2.11 2.42,-2.44c1.82,-0.48 3.7,0.58 4.18,2.37c0.49,1.78 -0.59,3.63 -2.41,4.11c-1.19,0.32 -2.42,-0.04 -3.25,-0.82c-8.96,2.84 -16.98,7.76 -23.49,14.17c-10.62,10.46 -17.18,24.91 -17.18,40.88c0,4.17 0.44,8.24 1.3,12.16c1.11,0.32 2.02,1.19 2.34,2.36c0.5,1.79 -0.59,3.64 -2.4,4.11c-1.82,0.49 -3.69,-0.58 -4.17,-2.37l-0.02,0zm123.23,0c-0.49,1.79 -2.36,2.86 -4.17,2.37c-1.82,-0.48 -2.9,-2.32 -2.4,-4.11c0.32,-1.17 1.23,-2.04 2.34,-2.36c0.85,-3.92 1.3,-7.99 1.3,-12.16c0,-15.97 -6.57,-30.42 -17.18,-40.88c-6.51,-6.41 -14.54,-11.33 -23.51,-14.17c-0.83,0.78 -2.04,1.14 -3.24,0.82c-1.82,-0.49 -2.9,-2.33 -2.41,-4.11c0.49,-1.79 2.36,-2.86 4.17,-2.37c1.24,0.33 2.14,1.29 2.43,2.44c9.54,3.01 18.06,8.21 24.96,15.02c11.23,11.06 18.18,26.36 18.18,43.25c0,4.45 -0.48,8.79 -1.39,12.97c0.86,0.82 1.26,2.07 0.92,3.29z"
          fill="#7615E6" fill-rule="evenodd" id="svg_53" />
        <path clip-rule="evenodd"
          d="m424.9,386.09c-2.19,-13.74 -9.65,-26.03 -20.75,-34.18c-11.09,-8.14 -24.91,-11.46 -38.41,-9.24c-13.49,2.24 -25.57,9.84 -33.58,21.13c-7.99,11.29 -11.25,25.37 -9.07,39.11c2.2,13.74 9.66,26.03 20.75,34.18c11.09,8.14 24.92,11.46 38.41,9.24c13.5,-2.24 25.58,-9.84 33.58,-21.13c8,-11.29 11.26,-25.37 9.07,-39.11z"
          fill="#424242" fill-rule="evenodd" id="svg_54" />
        <path clip-rule="evenodd"
          d="m383.24,355.46c-5.2,-1.24 -10.52,-1.41 -15.69,-0.56c-5.16,0.85 -10.16,2.71 -14.7,5.54c-4.54,2.83 -8.42,6.52 -11.48,10.81c-3.05,4.28 -5.28,9.17 -6.51,14.41c-1.23,5.25 -1.4,10.62 -0.56,15.84c0.84,5.22 2.68,10.27 5.49,14.86c2.8,4.58 6.45,8.5 10.69,11.59c4.25,3.08 9.08,5.34 14.27,6.58c5.2,1.24 10.52,1.41 15.69,0.56c5.16,-0.85 10.16,-2.71 14.7,-5.54c4.54,-2.83 8.42,-6.52 11.48,-10.81c3.05,-4.28 5.28,-9.17 6.51,-14.41c1.23,-5.25 1.39,-10.63 0.56,-15.84c-0.84,-5.22 -2.69,-10.27 -5.49,-14.86c-2.8,-4.58 -6.45,-8.5 -10.7,-11.59c-4.24,-3.08 -9.07,-5.34 -14.26,-6.58zm-16.22,-3.89c5.59,-0.92 11.37,-0.73 16.98,0.61c5.62,1.33 10.87,3.78 15.46,7.13c4.6,3.34 8.55,7.59 11.59,12.56c3.04,4.96 5.03,10.43 5.94,16.08c0.91,5.65 0.72,11.49 -0.6,17.16c-1.32,5.67 -3.75,10.97 -7.06,15.62c-3.31,4.64 -7.51,8.63 -12.43,11.7c-4.92,3.06 -10.33,5.08 -15.92,6c-5.59,0.92 -11.37,0.73 -16.99,-0.61c-5.61,-1.33 -10.86,-3.78 -15.46,-7.13c-4.6,-3.34 -8.54,-7.59 -11.58,-12.56c-3.04,-4.96 -5.04,-10.43 -5.95,-16.08c-0.91,-5.65 -0.72,-11.49 0.61,-17.16c1.32,-5.67 3.74,-10.97 7.05,-15.62c3.31,-4.64 7.52,-8.63 12.44,-11.7c4.91,-3.06 10.33,-5.08 15.92,-6z"
          fill="#A6A6A6" fill-rule="evenodd" id="svg_61" />
        <path clip-rule="evenodd"
          d="m383.78,353.14c-10.99,-2.59 -22.55,-0.72 -32.15,5.2c-9.6,5.93 -16.45,15.42 -19.05,26.39c-2.59,10.97 -0.72,22.53 5.21,32.11c5.94,9.58 15.44,16.43 26.43,19.02c10.99,2.59 22.55,0.72 32.15,-5.2c9.59,-5.93 16.45,-15.42 19.05,-26.39c2.59,-10.97 0.72,-22.53 -5.22,-32.11c-5.93,-9.58 -15.43,-16.43 -26.42,-19.02z"
          fill="#171717" fill-rule="evenodd" id="svg_62" />
        <path clip-rule="evenodd"
          d="m376.25,377.91l19.35,18.81c1.24,1.2 1.24,3.18 0,4.38c-0.85,0.83 -2.09,1.09 -3.18,0.76c-0.74,-0.19 -8.11,-2.13 -18.42,-2.13c-10.31,0 -17.72,1.94 -18.43,2.13c-1.09,0.33 -2.32,0.06 -3.17,-0.77c-1.24,-1.2 -1.24,-3.18 0,-4.38l19.35,-18.81c0.13,-0.13 0.29,-0.25 0.43,-0.34c0.08,-0.06 0.18,-0.12 0.27,-0.17c0,0 0.1,-0.04 0.15,-0.07l0.07,-0.03l0.07,-0.04l0.07,-0.03l0.07,-0.02c0,0 0.1,-0.04 0.14,-0.05c0,0 0.1,-0.03 0.15,-0.05l0.07,-0.02c0,0 0.09,-0.02 0.15,-0.03c0.07,-0.01 0.16,-0.03 0.23,-0.04c0,0 0.11,0 0.15,-0.01c0.07,0 0.16,0 0.23,0l0.07,0l0.07,0l0.07,0l0.07,0l0.08,0l0.07,0.02c0,0 0.04,0 0.07,0l0.07,0l0.07,0.03l0.07,0l0,0.01l0.07,0.02l0.08,0.02l0.07,0.03l0.07,0.02l0.07,0.02l0.07,0.03l0.07,0.03l0.07,0.04l0.07,0.03l0.08,0.03l0.07,0.04l0.07,0.03l0.07,0.04l0.07,0.05l0.07,0.04l0.06,0.05l0.06,0.04l0.06,0.05l0.06,0.05l0.06,0.05l0.06,0.06l0.06,0.06l0.05,0.02z"
          fill="#7615E6" fill-rule="evenodd" id="svg_63" />
      </g>
      <g id="G_R3">
        <path clip-rule="evenodd"
          d="m486.69,325.11c-10.73,-2.53 -22.03,-0.7 -31.4,5.08c-9.37,5.79 -16.06,15.05 -18.6,25.77c-2.53,10.72 -0.7,22 5.09,31.35c5.8,9.36 15.07,16.05 25.8,18.58c10.73,2.53 22.03,0.7 31.4,-5.08c9.37,-5.79 16.06,-15.05 18.6,-25.77c2.53,-10.72 0.7,-22 -5.09,-31.35c-5.8,-9.36 -15.07,-16.05 -25.8,-18.58z"
          fill="#424242" fill-rule="evenodd" id="svg_55" />
        <path clip-rule="evenodd"
          d="m484.84,332.9c-8.66,-2.05 -17.77,-0.57 -25.35,4.11c-7.56,4.67 -12.96,12.15 -15,20.8c-2.05,8.65 -0.57,17.75 4.12,25.31c4.67,7.55 12.16,12.95 20.82,14.98c8.67,2.05 17.78,0.57 25.35,-4.11c7.56,-4.67 12.97,-12.15 15,-20.8c2.05,-8.65 0.57,-17.75 -4.12,-25.31c-4.67,-7.55 -12.16,-12.95 -20.82,-14.99l0,0.01z"
          fill="#171717" fill-rule="evenodd" id="svg_57" />
        <g id="G_R3_CTX">
          <path clip-rule="evenodd"
            d="m463.62,372l0,-13l8.29,0c1.83,0 3.3,1.65 3.3,3.7c0,2.04 -1.47,3.69 -3.3,3.69l-3.41,0c0,2.11 1.53,3.83 3.41,3.83l3.3,0l0,1.78l-3.3,0c-2.75,0 -5,-2.52 -5,-5.61l0,-1.78l5,0c0.95,0 1.71,-0.85 1.71,-1.91c0,-1.07 -0.76,-1.92 -1.71,-1.92l-6.7,0l0,11.22l-1.59,0zm25.89,-6.50c0.7,0.68 1.14,1.68 1.14,2.8c0,2.05 -1.47,3.7 -3.29,3.7l-8.3,0l0,-1.78l8.3,0c0.95,0 1.7,-0.85 1.7,-1.92c0,-1.06 -0.75,-1.91 -1.7,-1.91l-8.3,0l0,-1.78l8.3,0c0.95,0 1.7,-0.85 1.7,-1.91c0,-1.07 -0.75,-1.92 -1.7,-1.92l-8.3,0l0,-1.78l8.3,0c1.82,0 3.29,1.65 3.29,3.7c0,1.12 -0.44,2.12 -1.14,2.8z"
            fill="#A6A6A6" fill-rule="evenodd" id="svg_58" />
        </g>
      </g>
      <g id="G_X">
        <path clip-rule="evenodd"
          d="m403.23,214.62c8.72,6.8 19.79,9.87 30.77,8.51c10.99,-1.35 20.98,-6.99 27.78,-15.7c6.81,-8.71 9.88,-19.76 8.53,-30.73c-1.36,-10.97 -7.01,-20.95 -15.73,-27.74c-8.72,-6.8 -19.79,-9.87 -30.77,-8.52c-10.99,1.36 -20.98,7 -27.79,15.71c-6.8,8.71 -9.87,19.76 -8.52,30.73c1.36,10.97 7.01,20.95 15.73,27.74z"
          fill="#424242" fill-rule="evenodd" id="svg_6" />
        <path
          d="m452.5,205.37c13.03,-13.01 13.03,-34.12 0,-47.13c-13.04,-13.02 -34.17,-13.02 -47.2,0c-13.03,13.01 -13.03,34.12 0,47.13c13.03,13.02 34.16,13.02 47.2,0z"
          fill="#171717" id="svg_22" />
        <g id="G_X_CTX">
          <path clip-rule="evenodd"
            d="m422.43,173.47c1.7,0.06 3.15,1 3.95,2.37l2.52,4.35l2.52,-4.35l1.39,0.8c0.52,-0.9 1.47,-1.53 2.57,-1.58l1.88,0l0,-1.59l-1.88,0c-1.7,0.06 -3.16,1.01 -3.96,2.38l1.39,0.8l-2.98,5.15l2.98,5.15c0.52,0.89 1.46,1.52 2.57,1.58l1.88,0l0,1.59l-1.88,0c-1.7,-0.06 -3.16,-1.01 -3.96,-2.38l-2.52,-4.35l-2.52,4.35c-0.78,1.37 -2.25,2.31 -3.95,2.38l-1.88,0l0,-1.59l1.88,0c1.09,-0.06 2.05,-0.69 2.57,-1.59l2.97,-5.15l-2.97,-5.15c-0.52,-0.9 -1.48,-1.53 -2.57,-1.58l-1.88,0l0,-1.59l1.88,0z"
            fill="#A6A6A6" fill-rule="evenodd" id="svg_23" />
        </g>
      </g>
      <g id="G_A">
        <path clip-rule="evenodd"
          d="m448.39,249.31c-8.56,-7 -19.54,-10.32 -30.56,-9.24c-11.01,1.1 -21.13,6.5 -28.15,15.05c-7.02,8.55 -10.34,19.51 -9.25,30.52c1.09,10.99 6.51,21.1 15.07,28.11c8.55,7 19.54,10.32 30.56,9.24c11,-1.1 21.13,-6.5 28.14,-15.05c7.02,-8.55 10.34,-19.51 9.26,-30.52c-1.1,-10.99 -6.51,-21.1 -15.07,-28.11z"
          fill="#424242" fill-rule="evenodd" id="svg_17" />
        <path
          d="m425.22,314.72c18.34,-1.81 31.74,-18.13 29.92,-36.44c-1.81,-18.32 -18.15,-31.7 -36.5,-29.89c-18.34,1.82 -31.74,18.13 -29.92,36.45c1.81,18.32 18.15,31.7 36.5,29.88z"
          fill="#171717" id="svg_35" />
        <g id="G_A_CTX">
          <path clip-rule="evenodd"
            d="m413.6,289.86l7.28,-16.67l0.38,0l1.36,0l0.39,0l7.27,16.67l-1.74,0l-2.71,-6.2l-6.04,0l0.7,-1.6l4.65,0l-3.19,-7.31l-6.61,15.11l-1.74,0z"
            fill="#A6A6A6" fill-rule="evenodd" id="svg_36" />
        </g>
      </g>
      <g id="G_B">
        <path clip-rule="evenodd"
          d="m469.92,229.03c-3.2,10.57 -2.07,21.99 3.14,31.73c5.22,9.75 14.1,17.01 24.69,20.21c10.58,3.2 22.01,2.07 31.77,-3.14c9.76,-5.2 17.03,-14.08 20.24,-24.65c3.2,-10.57 2.07,-21.98 -3.15,-31.73c-5.21,-9.74 -14.1,-17.01 -24.68,-20.2c-10.59,-3.2 -22.02,-2.07 -31.78,3.13c-9.76,5.21 -17.03,14.09 -20.23,24.65z"
          fill="#424242" fill-rule="evenodd" id="svg_16" />
        <path
          d="m517.51,273.56c17.94,-4.22 29.05,-22.17 24.81,-40.09c-4.23,-17.91 -22.21,-29 -40.15,-24.78c-17.93,4.23 -29.04,22.18 -24.81,40.09c4.23,17.92 22.21,29.01 40.15,24.78z"
          fill="#171717" id="svg_33" />
        <g id="G_B_CTX">
          <path clip-rule="evenodd"
            d="m501.5,249.44l0,-16.66l11.32,0c2.52,0 4.56,2.05 4.56,4.57c0,1.4 -0.63,2.65 -1.63,3.49c1.45,0.76 2.43,2.28 2.43,4.03c0,2.52 -2.04,4.56 -4.56,4.56l-12.12,0l0,0.01zm12.12,-7.53l-10.52,0l0,5.93l10.52,0c1.63,0 2.96,-1.32 2.96,-2.96c0,-1.63 -1.33,-2.96 -2.96,-2.96l0,-0.01zm-0.8,-7.54l-9.72,0l0,5.94l9.72,0c1.63,0 2.96,-1.33 2.96,-2.96c0,-1.64 -1.33,-2.97 -2.96,-2.97l0,-0.01z"
            fill="#A6A6A6" fill-rule="evenodd" id="svg_34" />
        </g>
      </g>
      <g id="G_RT">
        <path clip-rule="evenodd"
          d="m564.61,248.66c0,11.05 4.39,21.64 12.22,29.46c7.82,7.8 18.44,12.2 29.49,12.2c11.06,0 21.67,-4.39 29.5,-12.2c7.82,-7.81 12.22,-18.41 12.22,-29.45c0,-11.04 -4.39,-21.64 -12.22,-29.46c-7.81,-7.81 -18.43,-12.21 -29.49,-12.21c-11.05,0 -21.67,4.39 -29.5,12.21c-7.81,7.8 -12.22,18.41 -12.22,29.45z"
          fill="#424242" fill-rule="evenodd" id="svg_3" />
        <path
          d="m613.98,281.12c17.94,-4.23 29.05,-22.18 24.82,-40.09c-4.24,-17.92 -22.21,-29.01 -40.15,-24.78c-17.94,4.22 -29.05,22.17 -24.81,40.09c4.23,17.91 22.2,29.01 40.14,24.78z"
          fill="#171717" id="svg_37" />
        <g id="G_RT_CTX">
          <path clip-rule="evenodd"
            d="m592.7,254.49l0,-11.67l8.36,0c1.84,0 3.32,1.49 3.32,3.32c0,1.83 -1.48,3.32 -3.32,3.32l-3.44,0c0,1.89 1.54,3.43 3.44,3.43l3.32,0l0,1.6l-3.32,0c-2.78,0 -5.04,-2.26 -5.04,-5.03l0,-1.6l5.04,0c0.95,0 1.72,-0.77 1.72,-1.72c0,-0.95 -0.77,-1.72 -1.72,-1.72l-6.76,0l0,10.07l-1.6,0zm20.61,0l0,-10.07l-5.03,0l0,-1.6l11.67,0l0,1.6l-5.04,0l0,10.07l-1.6,0z"
            fill="#A6A6A6" fill-rule="evenodd" id="svg_38" />
        </g>
      </g>
      <g id="G_LT">
        <path clip-rule="evenodd"
          d="m691.58,308.44c10.77,2.54 22.1,0.71 31.51,-5.1c9.41,-5.8 16.13,-15.1 18.67,-25.86c2.54,-10.76 0.71,-22.08 -5.11,-31.47c-5.81,-9.39 -15.13,-16.1 -25.9,-18.64c-10.77,-2.54 -22.11,-0.71 -31.51,5.1c-9.41,5.81 -16.13,15.1 -18.67,25.86c-2.55,10.76 -0.71,22.08 5.11,31.47c5.81,9.39 15.12,16.1 25.9,18.64z"
          fill="#424242" fill-rule="evenodd" id="svg_14" />
        <path
          d="m704.42,301.13c18.34,-1.81 31.74,-18.13 29.93,-36.45c-1.82,-18.31 -18.16,-31.69 -36.5,-29.88c-18.34,1.81 -31.74,18.13 -29.93,36.44c1.82,18.32 18.16,31.7 36.5,29.89z"
          fill="#171717" id="svg_24" />
        <g id="G_LT_CTX">
          <path clip-rule="evenodd" d="m703.1,262.07l11.68,0l0,1.6l-5.04,0l0,10.06l-1.6,0l0,-10.06l-5.04,0l0,-1.6z"
            fill="#A6A6A6" fill-rule="evenodd" id="svg_25" />
          <path clip-rule="evenodd"
            d="m690.86,272.13l8.36,0l0,1.6l-8.36,0c-1.84,0 -3.32,-1.48 -3.32,-3.31l0,-8.35l1.6,0l0,8.35c0,0.95 0.76,1.71 1.72,1.71z"
            fill="#A6A6A6" fill-rule="evenodd" id="svg_26" />
        </g>
      </g>
      <g id="G_LB">
        <path clip-rule="evenodd"
          d="m698.7,208.72c10.77,2.54 22.1,0.71 31.51,-5.1c9.41,-5.81 16.13,-15.11 18.67,-25.86c2.54,-10.76 0.71,-22.08 -5.11,-31.47c-5.81,-9.4 -15.13,-16.11 -25.9,-18.65c-10.77,-2.54 -22.1,-0.7 -31.51,5.11c-9.41,5.8 -16.13,15.1 -18.67,25.86c-2.54,10.75 -0.71,22.07 5.11,31.47c5.81,9.39 15.13,16.1 25.9,18.64z"
          fill="#424242" fill-rule="evenodd" id="svg_15" />
        <path
          d="m715.94,200.66c17.94,-4.23 29.05,-22.18 24.82,-40.1c-4.24,-17.91 -22.21,-29 -40.15,-24.78c-17.94,4.23 -29.05,22.18 -24.82,40.1c4.24,17.91 22.21,29 40.15,24.78z"
          fill="#171717" id="svg_27" />
        <g id="G_LB_CTX">
          <path clip-rule="evenodd"
            d="m710.23,162.36l7.59,0c1.83,0 3.31,1.48 3.31,3.31c0,0.84 -0.31,1.61 -0.82,2.19c0.97,0.58 1.61,1.63 1.61,2.84c0,1.84 -1.48,3.32 -3.32,3.32l-8.35,0l0,-11.66l-0.02,0zm1.61,10.06l6.75,0c0.96,0 1.72,-0.76 1.72,-1.72c0,-0.95 -0.76,-1.71 -1.72,-1.71l-6.75,0l0,3.43zm0,-5.03l5.98,0c0.95,0 1.71,-0.77 1.71,-1.72c0,-0.95 -0.76,-1.71 -1.71,-1.71l-5.98,0l0,3.43zm-13.86,5.03l8.36,0l0,1.6l-8.36,0c-1.84,0 -3.32,-1.48 -3.32,-3.32l0,-8.34l1.6,0l0,8.34c0,0.96 0.77,1.72 1.72,1.72z"
            fill="#A6A6A6" fill-rule="evenodd" id="svg_28" />
        </g>
      </g>
      <g id="G_RB">
        <path clip-rule="evenodd"
          d="m571.74,148.94c0,11.05 4.39,21.65 12.22,29.46c7.81,7.81 18.43,12.21 29.48,12.21c11.06,0 21.68,-4.39 29.51,-12.21c7.81,-7.8 12.21,-18.41 12.21,-29.44c0,-11.04 -4.39,-21.65 -12.21,-29.46c-7.82,-7.81 -18.44,-12.21 -29.49,-12.21c-11.06,0 -21.68,4.39 -29.5,12.21c-7.82,7.8 -12.22,18.41 -12.22,29.44z"
          fill="#424242" fill-rule="evenodd" id="svg_7" />
        <path
          d="m644.28,161.69c7.06,-17 -1.03,-36.5 -18.06,-43.54c-17.03,-7.05 -36.55,1.03 -43.6,18.03c-7.06,17.01 1.03,36.5 18.06,43.55c17.03,7.04 36.55,-1.04 43.6,-18.04z"
          fill="#171717" id="svg_29" />
        <g id="G_RB_CTX">
          <path clip-rule="evenodd"
            d="m599.82,154.78l0,-11.67l8.36,0c1.84,0 3.32,1.48 3.32,3.32c0,1.83 -1.48,3.31 -3.32,3.31l-3.44,0c0,1.9 1.55,3.44 3.44,3.44l3.32,0l0,1.6l-3.32,0c-2.78,0 -5.04,-2.26 -5.04,-5.04l0,-1.59l5.04,0c0.95,0 1.72,-0.77 1.72,-1.72c0,-0.95 -0.77,-1.72 -1.72,-1.72l-6.76,0l0,10.07l-1.6,0zm15.58,-1.6l0,-10.07l7.58,0c1.84,0 3.32,1.48 3.32,3.32c0,0.83 -0.32,1.61 -0.82,2.19c0.96,0.57 1.61,1.63 1.61,2.84c0,1.83 -1.49,3.32 -3.32,3.32l-8.36,0l0,-1.6l-0.01,0zm1.6,-8.47l0,3.44l5.98,0c0.95,0 1.72,-0.77 1.72,-1.72c0,-0.95 -0.77,-1.72 -1.72,-1.72l-5.98,0zm0,5.03l0,3.44l6.76,0c0.95,0 1.72,-0.77 1.72,-1.72c0,-0.95 -0.77,-1.72 -1.72,-1.72l-6.76,0z"
            fill="#A6A6A6" fill-rule="evenodd" id="svg_30" />
        </g>
      </g>
      <g id="G_Y">
        <path clip-rule="evenodd"
          d="m504.73,181.25c10.58,3.2 22.01,2.07 31.77,-3.14c9.76,-5.21 17.04,-14.08 20.24,-24.65c3.2,-10.57 2.07,-21.99 -3.15,-31.73c-5.21,-9.75 -14.1,-17.01 -24.68,-20.21c-10.58,-3.2 -22.02,-2.07 -31.77,3.14c-9.76,5.21 -17.04,14.08 -20.24,24.65c-3.2,10.57 -2.07,21.98 3.14,31.73c5.22,9.75 14.1,17.01 24.69,20.21z"
          fill="#424242" fill-rule="evenodd" id="svg_5" />
        <path
          d="m524.48,173.84c17.94,-4.23 29.05,-22.18 24.82,-40.09c-4.24,-17.92 -22.21,-29.01 -40.15,-24.78c-17.94,4.23 -29.05,22.18 -24.82,40.09c4.24,17.91 22.21,29.01 40.15,24.78z"
          fill="#171717" id="svg_31" />
        <g id="G_Y_CTX">
          <path clip-rule="evenodd"
            d="m523.56,145.15l0,-1.64l-10.51,0c-2.52,0 -4.57,-2.04 -4.57,-4.56l0,-5.9l1.6,0l0,5.9c0,1.64 1.34,2.96 2.97,2.96l10.51,0l0,-8.87l1.6,0l0,12.09c0,2.52 -2.04,4.57 -4.56,4.57l-10.52,0l0,-1.6l10.52,0c1.63,0 2.96,-1.33 2.96,-2.97l0,0.02z"
            fill="#A6A6A6" fill-rule="evenodd" id="svg_32" />
        </g>
      </g>
    </g>
  </symbol>
</svg>
