<svg width="900" height="520" viewBox="0 0 900 520" fill="none" xmlns="http://www.w3.org/2000/svg">
<g clip-path="url(#clip0_291_455)">
<path fill-rule="evenodd" clip-rule="evenodd" d="M20.8375 301.053C7.93754 293.614 0 279.863 0 264.983V101.887C0 89.5814 5.44457 77.8989 14.8873 69.9892L86.7133 9.74324C94.2157 3.45538 103.705 0 113.501 0H786.511C796.306 0 805.784 3.45538 813.298 9.74324L885.136 69.9892C894.567 77.8989 900.023 89.5814 900.023 101.887V264.983C900.023 279.863 892.086 293.614 879.186 301.053L509.426 514.417C502.1 518.648 493.656 520.541 485.213 519.859C473.889 518.942 461.953 518.484 450.006 518.484C438.058 518.484 426.123 518.942 414.798 519.859C406.367 520.541 397.924 518.648 390.586 514.417L20.8375 301.053Z" fill="#171717"/>
<path fill-rule="evenodd" clip-rule="evenodd" d="M789.674 43.3098L863.358 105.107V260.247L831.631 278.558V305.437L667.589 400.096V403.939L831.631 309.28V309.351L834.959 307.423V307.353L838.287 305.425V305.496L841.615 303.568V303.498L844.943 301.57V301.641L848.271 299.713V299.643L851.599 297.715V297.786L854.927 295.858V268.909L866.662 262.139V103.556L790.85 39.9837H780.478L752.668 16.6657H635.909L639.884 19.9918H699.598L727.409 43.3098H789.639H789.674ZM834.971 303.51V280.474L838.299 278.546V301.582L834.971 303.51ZM841.639 299.666V276.63L844.966 274.703V297.739L841.639 299.666ZM848.306 295.823V272.787L851.634 270.86V293.896L848.306 295.823ZM332.636 18.5227L327.274 27.7958C326.686 28.8184 325.78 28.9359 325.275 28.0427L319.771 18.511C319.183 17.4885 319.536 16.654 320.559 16.654H331.848C332.871 16.654 333.224 17.4885 332.636 18.511V18.5227ZM313.069 17.8528L322.358 33.9309C322.5 34.1777 322.758 34.3305 323.041 34.3305C323.323 34.3305 323.581 34.1895 323.723 33.9309L324.393 32.7791C324.534 32.5323 324.534 32.2385 324.393 31.9917L315.773 17.0653C315.632 16.8185 315.373 16.6657 315.091 16.6657H313.762C313.468 16.6657 313.221 16.8068 313.08 17.0653C312.939 17.3122 312.939 17.606 313.08 17.8528H313.069ZM348.429 16.6657H351.251C351.58 16.6657 351.851 16.8303 352.016 17.1124C352.18 17.3944 352.18 17.7118 352.016 17.9938L349.146 22.9654C348.982 23.2474 348.982 23.5648 349.146 23.8468C349.311 24.1289 349.581 24.2934 349.911 24.2934H361.576C361.905 24.2934 362.176 24.1289 362.34 23.8468L366.233 17.1124C366.397 16.8303 366.668 16.6657 366.997 16.6657H369.819C370.148 16.6657 370.419 16.8303 370.584 17.1124C370.748 17.3944 370.748 17.7118 370.584 17.9938L361.399 33.8957C361.235 34.1777 360.964 34.3423 360.635 34.3423H357.813C357.484 34.3423 357.213 34.1777 357.049 33.8957C356.884 33.6136 356.884 33.2962 357.049 33.0142L358.883 29.8291C359.048 29.547 359.048 29.2297 358.883 28.9476C358.718 28.6656 358.436 28.501 358.119 28.501H346.453C346.124 28.501 345.854 28.6656 345.689 28.9476L342.831 33.8957C342.667 34.1777 342.396 34.3423 342.067 34.3423H339.245C338.916 34.3423 338.645 34.1777 338.481 33.8957C338.316 33.6136 338.316 33.2962 338.481 33.0142L347.665 17.1124C347.829 16.8303 348.1 16.6657 348.429 16.6657ZM496.385 21.3199L498.302 24.646C498.466 24.9281 498.466 25.2454 498.302 25.5275L495.903 29.6763C495.738 29.9584 495.456 30.1229 495.138 30.1229H483.473C483.144 30.1229 482.873 29.9584 482.709 29.6763C482.544 29.3943 482.544 29.0769 482.709 28.7948L487.024 21.3199C487.189 21.0379 487.471 20.8733 487.789 20.8733H495.609C495.938 20.8733 496.208 21.0379 496.373 21.3199H496.385ZM503.17 24.646L498.819 17.1124C498.654 16.8303 498.384 16.6657 498.055 16.6657H485.366C485.037 16.6657 484.767 16.8303 484.602 17.1124L475.418 33.0142C475.253 33.2962 475.253 33.6136 475.418 33.8957C475.583 34.1777 475.853 34.3423 476.182 34.3423H497.572C497.902 34.3423 498.172 34.1777 498.337 33.8957L503.17 25.5393C503.335 25.2572 503.335 24.9399 503.17 24.6578V24.646ZM454.063 24.2934H465.728C466.057 24.2934 466.328 24.1289 466.493 23.8468L467.445 22.2014C467.61 21.9193 467.61 21.602 467.445 21.3199C467.28 21.0379 467.01 20.8733 466.681 20.8733H455.015C454.686 20.8733 454.416 21.0379 454.251 21.3199L453.299 22.9654C453.134 23.2474 453.134 23.5648 453.299 23.8468C453.463 24.1289 453.734 24.2934 454.063 24.2934ZM462.271 28.501H450.606C450.276 28.501 450.006 28.6656 449.841 28.9476L446.984 33.8957C446.819 34.1777 446.549 34.3423 446.219 34.3423H443.397C443.068 34.3423 442.798 34.1777 442.633 33.8957C442.468 33.6136 442.468 33.2962 442.633 33.0142L451.817 17.1124C451.982 16.8303 452.252 16.6657 452.581 16.6657H473.971C474.301 16.6657 474.571 16.8303 474.736 17.1124C474.9 17.3944 474.9 17.7118 474.736 17.9938L465.552 33.8957C465.387 34.1777 465.117 34.3423 464.787 34.3423H461.965C461.636 34.3423 461.365 34.1777 461.201 33.8957C461.036 33.6136 461.036 33.2962 461.201 33.0142L463.035 29.8291C463.2 29.547 463.2 29.2297 463.035 28.9476C462.871 28.6656 462.6 28.501 462.271 28.501ZM421.266 24.2934H432.931C433.261 24.2934 433.531 24.1289 433.696 23.8468L434.648 22.2014C434.813 21.9193 434.813 21.602 434.648 21.3199C434.484 21.0379 434.201 20.8733 433.884 20.8733H422.219C421.889 20.8733 421.619 21.0379 421.454 21.3199L420.502 22.9654C420.337 23.2474 420.337 23.5648 420.502 23.8468C420.666 24.1289 420.937 24.2934 421.266 24.2934ZM417.045 28.9476L414.187 33.8957C414.022 34.1777 413.752 34.3423 413.423 34.3423H410.6C410.271 34.3423 410.001 34.1777 409.836 33.8957C409.671 33.6136 409.671 33.2962 409.836 33.0142L419.02 17.1124C419.185 16.8303 419.467 16.6657 419.785 16.6657L441.151 16.701C441.48 16.701 441.751 16.8655 441.916 17.1476C442.08 17.4297 442.08 17.747 441.916 18.0291L436.118 28.0544C435.954 28.3365 435.683 28.501 435.354 28.501H417.809C417.48 28.501 417.209 28.6656 417.045 28.9476ZM393.244 19.557L394.655 17.1124C394.819 16.8303 395.09 16.6657 395.419 16.6657H408.39C408.719 16.6657 408.989 16.8303 409.154 17.1124C409.319 17.3944 409.319 17.7118 409.154 17.9938L407.743 20.4385C407.578 20.7205 407.308 20.8851 406.979 20.8851H403.31C402.98 20.8851 402.71 21.0496 402.545 21.3317L395.278 33.9074C395.113 34.1895 394.843 34.354 394.514 34.354H391.691C391.362 34.354 391.092 34.1895 390.927 33.9074C390.762 33.6253 390.762 33.308 390.927 33.0259L397.171 22.2249C397.336 21.9428 397.336 21.6255 397.171 21.3434C397.007 21.0614 396.724 20.8968 396.407 20.8968H394.008C393.679 20.8968 393.408 20.7323 393.244 20.4502C393.079 20.1681 393.079 19.8508 393.244 19.5687V19.557ZM381.202 16.6657H384.024C384.354 16.6657 384.624 16.8303 384.789 17.1124C384.953 17.3944 384.953 17.7118 384.789 17.9938L375.605 33.8957C375.44 34.1777 375.17 34.3423 374.84 34.3423H372.018C371.689 34.3423 371.418 34.1777 371.254 33.8957C371.089 33.6136 371.089 33.2962 371.254 33.0142L380.438 17.1124C380.602 16.8303 380.873 16.6657 381.202 16.6657ZM33.3025 262.163L45.0383 268.932V295.882L48.3662 297.809V297.739L51.6941 299.666V299.737L55.022 301.664V301.594L58.3499 303.521V303.592L61.6777 305.519V305.449L65.0056 307.376V307.447L68.3335 309.374V309.304L232.376 403.963V400.119L68.3688 305.437V278.558L65.0409 276.63L61.713 274.703L58.3851 272.775L55.0572 270.848L51.7294 268.921L48.4015 266.993L45.0736 265.066L36.6774 260.223V105.107L110.361 43.3098H141.477L169.287 19.9918L173.262 16.6657H147.333L119.522 39.9837H109.15L33.3025 103.556V262.163ZM48.3662 270.86L51.6941 272.787V295.823L48.3662 293.896V270.86ZM55.0337 274.703L58.3616 276.63V299.666L55.0337 297.739V274.703ZM61.7013 278.546L65.0292 280.474V303.51L61.7013 301.582V278.546ZM164.066 19.9918L140.23 39.9837H135.044L158.88 19.9918H164.066ZM153.694 19.9918L129.858 39.9837H124.672L148.509 19.9918H153.694ZM751.503 19.9918L775.34 39.9837H770.154L746.317 19.9918H751.503ZM741.132 19.9918L764.968 39.9837H759.782L735.946 19.9918H741.132ZM730.76 19.9918L754.596 39.9837H749.41L725.574 19.9918H730.76ZM720.388 19.9918L744.224 39.9837H739.038L715.202 19.9918H720.388ZM710.016 19.9918L733.853 39.9837H728.667L704.831 19.9918H710.016Z" fill="#7615E6"/>
<path fill-rule="evenodd" clip-rule="evenodd" d="M603.348 444.863L559.744 470.026L549.772 464.267L497.749 494.284L497.643 494.355C496.879 494.778 496.079 495.154 495.244 495.471C494.233 495.859 493.363 496.13 492.633 496.294C491.846 496.47 490.952 496.588 489.964 496.658C489.07 496.717 488.094 496.705 487.048 496.623C484.884 496.447 481.944 496.247 478.252 496.036C475.853 495.895 472.713 495.754 468.856 495.601C465.916 495.483 462.706 495.389 459.213 495.319C454.063 495.213 451.005 495.166 450.018 495.166C449.03 495.166 445.972 495.213 440.822 495.319C437.341 495.389 434.119 495.483 431.179 495.601C427.322 495.754 424.194 495.895 421.784 496.036C418.091 496.247 415.151 496.447 412.988 496.623C411.941 496.705 410.965 496.717 410.071 496.658C409.072 496.588 408.178 496.47 407.402 496.294C406.473 496.083 405.556 495.812 404.686 495.46C404.192 495.272 403.709 495.06 403.263 494.837L349.534 463.832L339.562 469.591L296.688 444.851L41.6986 297.739V286.244L32.4675 280.92C31.0446 280.098 29.7629 279.122 28.6457 278.017C27.5756 276.96 26.6231 275.725 25.8117 274.35C25.7412 274.209 25.7882 274.28 25.7059 274.139C24.9416 272.823 24.3418 271.342 23.9185 269.755C23.5304 268.274 23.3188 266.676 23.3188 264.983V255.593L13.3233 249.822V124.676L23.3188 116.284V101.887C23.3188 100.335 23.4481 98.9956 23.6951 97.8908C23.942 96.7625 24.4006 95.5049 25.0356 94.1298C25.6471 92.837 26.3292 91.6734 27.1053 90.6627C27.8814 89.6519 28.7869 88.7117 29.8217 87.842L101.636 27.596C102.518 26.8556 103.412 26.2327 104.305 25.7156C105.246 25.1749 106.199 24.7166 107.151 24.3757C108.021 24.0584 109.056 23.7998 110.232 23.5883C111.243 23.412 112.325 23.3179 113.478 23.3179H134.174L146.086 13.3279H753.926L765.838 23.3179H786.534C787.675 23.3179 788.769 23.412 789.78 23.5883C790.956 23.7881 791.991 24.0584 792.861 24.3757C793.813 24.7166 794.766 25.1749 795.707 25.7156C796.6 26.2327 797.494 26.8674 798.376 27.596L870.214 87.842C871.249 88.7117 872.154 89.6637 872.93 90.6627C873.694 91.6617 874.388 92.8252 875 94.1298C875.647 95.5049 876.093 96.7742 876.34 97.8908C876.587 98.9956 876.717 100.335 876.717 101.887V116.284L886.712 124.676V249.822L876.717 255.593V264.983C876.717 266.676 876.505 268.286 876.117 269.755C875.693 271.353 875.082 272.823 874.329 274.139C874.247 274.28 874.294 274.198 874.224 274.35C873.412 275.714 872.46 276.948 871.39 278.006C870.272 279.099 869.002 280.086 867.568 280.909L858.337 286.233V297.727L603.383 444.851L603.348 444.863ZM872.977 127.097C872.977 127.32 873.048 127.52 873.201 127.685C873.353 127.849 873.542 127.931 873.765 127.943H876.634C876.964 127.943 877.269 127.955 877.552 128.014C877.834 128.061 878.081 128.19 878.292 128.39C878.504 128.59 878.622 128.848 878.645 129.154V133.408C878.645 133.632 878.739 133.82 878.904 133.973C879.068 134.125 879.257 134.196 879.48 134.196C879.692 134.196 879.88 134.114 880.033 133.961C880.186 133.808 880.256 133.632 880.268 133.408V128.742C880.233 128.178 880.044 127.708 879.692 127.344C879.339 126.979 878.916 126.709 878.398 126.556C877.892 126.404 877.352 126.321 876.775 126.31H873.765C873.553 126.31 873.365 126.404 873.212 126.556C873.059 126.709 872.989 126.897 872.977 127.109V127.097ZM876.164 128.496C875.94 128.496 875.752 128.578 875.588 128.731C875.435 128.895 875.353 129.083 875.353 129.307V133.397C875.353 133.62 875.423 133.82 875.576 133.973C875.741 134.125 875.929 134.208 876.152 134.208C876.376 134.208 876.575 134.125 876.728 133.973C876.881 133.808 876.964 133.62 876.964 133.397V129.307C876.964 129.083 876.881 128.895 876.717 128.742C876.564 128.578 876.376 128.496 876.152 128.496H876.164ZM880.268 143.034V138.815C880.244 138.251 880.033 137.78 879.633 137.404C879.233 137.028 878.774 136.758 878.269 136.605C877.763 136.452 877.234 136.358 876.705 136.358C876.176 136.358 875.646 136.441 875.129 136.593C874.612 136.746 874.153 137.017 873.765 137.393C873.365 137.769 873.165 138.239 873.142 138.803V143.022C873.177 143.586 873.389 144.057 873.777 144.433C874.177 144.809 874.623 145.079 875.141 145.244C875.658 145.408 876.176 145.49 876.705 145.49C877.105 145.49 877.504 145.443 877.892 145.349C878.281 145.255 878.645 145.103 878.998 144.903C879.351 144.703 879.645 144.444 879.892 144.127C880.139 143.81 880.268 143.434 880.28 143.022L880.268 143.034ZM874.753 142.623C874.765 142.928 874.882 143.187 875.094 143.387C875.305 143.586 875.552 143.739 875.835 143.833C876.117 143.927 876.399 143.963 876.693 143.963C876.987 143.963 877.269 143.916 877.552 143.822C877.834 143.728 878.081 143.575 878.292 143.375C878.504 143.175 878.622 142.917 878.645 142.611V139.179C878.633 138.874 878.516 138.615 878.292 138.415C878.069 138.215 877.822 138.063 877.552 137.969C877.269 137.875 876.987 137.827 876.693 137.827C876.399 137.827 876.117 137.874 875.835 137.957C875.552 138.051 875.305 138.192 875.094 138.403C874.882 138.615 874.765 138.862 874.753 139.167V142.599V142.623ZM873.753 149.686H878.339C878.539 149.686 878.645 149.792 878.657 150.004V154.246C878.657 154.399 878.61 154.529 878.551 154.623C878.492 154.728 878.422 154.799 878.339 154.846C878.269 154.893 878.186 154.916 878.104 154.916C878.022 154.916 877.951 154.893 877.869 154.846C877.798 154.799 877.728 154.728 877.657 154.623C877.598 154.517 877.563 154.399 877.552 154.246V151.05C877.552 150.826 877.469 150.638 877.316 150.474C877.163 150.309 876.964 150.239 876.74 150.239C876.646 150.239 876.246 150.309 875.517 150.45C874.87 150.556 874.294 150.85 873.824 151.332C873.342 151.814 873.118 152.354 873.118 152.954V155.786C873.118 156.009 873.201 156.186 873.353 156.338C873.506 156.491 873.683 156.562 873.906 156.574C874.129 156.574 874.329 156.503 874.482 156.35C874.647 156.197 874.729 156.009 874.741 155.786V153.177C874.741 152.883 874.835 152.636 875.035 152.436C875.223 152.237 875.529 152.107 875.929 152.037V154.164C875.94 154.728 876.07 155.198 876.317 155.563C876.564 155.927 876.834 156.186 877.14 156.35C877.446 156.503 877.763 156.585 878.092 156.585C878.422 156.585 878.716 156.503 879.033 156.338C879.339 156.174 879.621 155.915 879.856 155.551C880.103 155.187 880.233 154.728 880.244 154.164V154.094C880.244 154.094 880.256 154 880.256 153.953V148.887C880.256 148.664 880.186 148.464 880.033 148.311C879.88 148.147 879.692 148.064 879.468 148.053H873.741C873.518 148.053 873.33 148.135 873.177 148.299C873.024 148.464 872.954 148.664 872.954 148.887C872.989 149.369 873.259 149.639 873.741 149.686H873.753ZM872.989 164.918C872.989 165.141 873.059 165.341 873.212 165.506C873.365 165.67 873.553 165.753 873.777 165.764H876.646C876.975 165.764 877.281 165.776 877.563 165.835C877.845 165.882 878.092 166.011 878.304 166.211C878.516 166.411 878.633 166.669 878.657 166.975V171.23C878.657 171.453 878.751 171.641 878.916 171.794C879.08 171.946 879.268 172.017 879.492 172.017C879.703 172.017 879.892 171.935 880.044 171.782C880.197 171.629 880.268 171.453 880.28 171.23V166.564C880.244 165.999 880.056 165.529 879.703 165.165C879.351 164.801 878.927 164.53 878.41 164.378C877.904 164.225 877.363 164.142 876.787 164.131H873.777C873.565 164.131 873.377 164.225 873.224 164.378C873.071 164.53 873.001 164.718 872.989 164.93V164.918ZM876.176 166.317C875.952 166.317 875.764 166.399 875.599 166.552C875.447 166.716 875.364 166.904 875.364 167.128V171.218C875.364 171.441 875.435 171.641 875.588 171.794C875.752 171.946 875.94 172.029 876.164 172.029C876.387 172.029 876.587 171.946 876.74 171.794C876.893 171.629 876.975 171.441 876.975 171.218V167.128C876.975 166.904 876.893 166.716 876.728 166.564C876.575 166.399 876.387 166.317 876.164 166.317H876.176ZM873.953 174.109C873.73 174.109 873.542 174.191 873.389 174.356C873.224 174.509 873.142 174.697 873.142 174.92V181.184C873.142 181.408 873.224 181.596 873.377 181.76C873.53 181.925 873.73 181.995 873.953 181.995C874.177 181.995 874.376 181.925 874.541 181.772C874.694 181.607 874.765 181.419 874.765 181.196V178.893H878.657V181.196C878.657 181.419 878.739 181.607 878.892 181.772C879.045 181.925 879.245 182.007 879.468 182.007C879.692 182.007 879.892 181.937 880.044 181.784C880.197 181.619 880.28 181.431 880.28 181.208V174.943C880.28 174.72 880.197 174.532 880.044 174.368C879.88 174.215 879.692 174.133 879.468 174.133C879.245 174.133 879.057 174.215 878.904 174.379C878.739 174.532 878.657 174.72 878.657 174.943V177.271H874.765V174.943C874.765 174.72 874.682 174.532 874.529 174.368C874.365 174.215 874.177 174.133 873.953 174.133V174.109ZM880.28 186.779C880.244 186.215 880.033 185.756 879.633 185.392C879.233 185.028 878.786 184.769 878.269 184.604C877.763 184.44 877.246 184.358 876.705 184.358C876.164 184.358 875.658 184.44 875.141 184.593C874.635 184.745 874.177 185.016 873.777 185.38C873.377 185.744 873.165 186.215 873.13 186.779V191.927C873.13 192.15 873.224 192.326 873.377 192.479C873.518 192.62 873.706 192.702 873.918 192.702H876.775C876.999 192.702 877.175 192.62 877.328 192.479C877.481 192.314 877.552 192.126 877.552 191.903V187.766C877.552 187.543 877.481 187.343 877.328 187.19C877.163 187.037 876.975 186.967 876.752 186.967C876.528 186.967 876.34 187.049 876.176 187.202C876.023 187.366 875.94 187.554 875.94 187.778V190.869C875.94 191.01 875.858 191.092 875.694 191.092H874.988C874.835 191.092 874.753 191.01 874.741 190.869V187.19C874.753 186.885 874.87 186.626 875.094 186.426C875.305 186.226 875.552 186.074 875.835 185.98C876.117 185.886 876.399 185.839 876.693 185.839C876.987 185.839 877.269 185.886 877.552 185.98C877.834 186.074 878.081 186.226 878.292 186.426C878.504 186.626 878.622 186.885 878.645 187.19V191.88C878.68 192.361 878.951 192.62 879.433 192.667C879.656 192.667 879.856 192.597 880.009 192.444C880.174 192.291 880.256 192.103 880.268 191.88V186.779H880.28ZM880.468 196.287C880.468 196.064 880.397 195.864 880.244 195.711C880.091 195.547 879.903 195.464 879.68 195.452H873.753C873.53 195.452 873.342 195.535 873.189 195.699C873.036 195.864 872.965 196.064 872.965 196.287C873.001 196.769 873.271 197.039 873.753 197.086H876.035V201.012H873.753C873.53 201.012 873.342 201.094 873.189 201.258C873.036 201.423 872.965 201.623 872.965 201.846C873.001 202.328 873.271 202.598 873.753 202.645H879.68C879.892 202.645 880.08 202.563 880.233 202.399C880.385 202.246 880.456 202.058 880.468 201.846C880.468 201.623 880.397 201.423 880.244 201.27C880.091 201.106 879.903 201.023 879.68 201.012H877.657V197.086H879.68C879.892 197.086 880.08 196.992 880.233 196.839C880.385 196.687 880.456 196.498 880.468 196.287ZM879.468 205.16C879.245 205.16 879.057 205.243 878.904 205.407C878.739 205.56 878.657 205.748 878.657 205.971V208.675H873.753C873.53 208.675 873.342 208.757 873.189 208.921C873.036 209.086 872.965 209.286 872.965 209.509C873.001 209.991 873.271 210.261 873.753 210.308H878.657V213C878.657 213.223 878.739 213.411 878.892 213.576C879.045 213.728 879.245 213.811 879.468 213.811C879.692 213.811 879.892 213.74 880.044 213.587C880.197 213.423 880.28 213.235 880.28 213.011V205.971C880.28 205.748 880.197 205.56 880.044 205.396C879.88 205.243 879.692 205.16 879.468 205.16ZM880.28 218.571C880.244 218.006 880.033 217.548 879.633 217.184C879.233 216.819 878.786 216.561 878.269 216.396C877.763 216.232 877.246 216.15 876.705 216.15C876.164 216.15 875.658 216.232 875.141 216.385C874.635 216.537 874.177 216.808 873.777 217.172C873.377 217.536 873.165 218.006 873.13 218.571V223.237C873.13 223.448 873.212 223.636 873.365 223.789C873.518 223.942 873.694 224.012 873.918 224.024C874.141 224.024 874.341 223.954 874.494 223.801C874.659 223.648 874.741 223.46 874.753 223.237V218.982C874.765 218.676 874.882 218.418 875.106 218.218C875.317 218.018 875.564 217.865 875.846 217.771C876.129 217.677 876.411 217.63 876.705 217.63C876.999 217.63 877.281 217.677 877.563 217.771C877.845 217.865 878.092 218.018 878.304 218.218C878.516 218.418 878.633 218.676 878.657 218.982V223.237C878.692 223.718 878.963 223.977 879.445 224.024C879.668 224.024 879.868 223.954 880.021 223.801C880.186 223.648 880.268 223.46 880.28 223.237V218.571ZM876.764 224.001C876.987 224.001 877.175 223.918 877.34 223.765C877.493 223.601 877.575 223.413 877.575 223.19V219.534C877.575 219.311 877.504 219.111 877.352 218.958C877.187 218.806 876.999 218.723 876.775 218.723C876.552 218.723 876.364 218.806 876.199 218.958C876.046 219.111 875.964 219.311 875.964 219.534V223.19C875.964 223.413 876.046 223.601 876.211 223.754C876.364 223.918 876.552 224.001 876.775 224.001H876.764ZM873.765 228.102H878.351C878.551 228.102 878.657 228.208 878.669 228.42V232.663C878.669 232.815 878.622 232.945 878.563 233.039C878.504 233.144 878.433 233.215 878.351 233.262C878.281 233.309 878.198 233.332 878.116 233.332C878.034 233.332 877.963 233.309 877.881 233.262C877.81 233.215 877.74 233.144 877.669 233.039C877.61 232.933 877.575 232.815 877.563 232.663V229.466C877.563 229.242 877.481 229.054 877.328 228.89C877.175 228.737 876.975 228.655 876.752 228.655C876.658 228.655 876.258 228.725 875.529 228.866C874.882 228.972 874.306 229.266 873.836 229.748C873.353 230.23 873.13 230.77 873.13 231.37V234.202C873.13 234.425 873.212 234.602 873.365 234.755C873.518 234.907 873.694 234.978 873.918 234.99C874.141 234.99 874.341 234.919 874.494 234.766C874.659 234.613 874.741 234.425 874.753 234.202V231.593C874.753 231.299 874.847 231.052 875.047 230.853C875.235 230.653 875.541 230.523 875.94 230.453V232.58C875.952 233.144 876.082 233.614 876.328 233.979C876.575 234.343 876.846 234.602 877.152 234.766C877.457 234.919 877.775 235.001 878.104 235.001C878.433 235.001 878.727 234.919 879.045 234.755C879.351 234.59 879.633 234.331 879.868 233.967C880.115 233.603 880.244 233.144 880.256 232.58V232.51C880.256 232.51 880.268 232.416 880.268 232.369V227.303C880.268 227.08 880.197 226.88 880.044 226.727C879.892 226.563 879.703 226.48 879.48 226.469H873.753C873.53 226.469 873.342 226.551 873.189 226.715C873.036 226.88 872.965 227.08 872.965 227.303C873.001 227.785 873.271 228.055 873.753 228.102H873.765ZM879.468 245.367C879.692 245.367 879.88 245.285 880.044 245.132C880.197 244.98 880.28 244.78 880.28 244.557V240.008C880.28 240.008 880.28 239.914 880.268 239.867V239.797C880.256 239.232 880.127 238.774 879.88 238.41C879.633 238.045 879.362 237.787 879.057 237.622C878.751 237.458 878.433 237.375 878.116 237.375C877.798 237.375 877.481 237.458 877.163 237.611C876.858 237.775 876.575 238.034 876.34 238.398C876.093 238.762 875.964 239.232 875.952 239.797V243.228C875.952 243.381 875.905 243.511 875.846 243.605C875.788 243.699 875.705 243.781 875.599 243.828C875.494 243.875 875.423 243.898 875.364 243.898C875.27 243.898 875.188 243.875 875.106 243.828C875.023 243.781 874.941 243.699 874.882 243.605C874.812 243.499 874.788 243.381 874.8 243.228V238.374C874.8 238.151 874.718 237.963 874.553 237.81C874.4 237.646 874.212 237.564 873.988 237.564C873.765 237.564 873.577 237.646 873.412 237.799C873.248 237.951 873.177 238.151 873.177 238.374V242.946C873.177 242.946 873.177 243.04 873.189 243.087V243.158C873.189 243.722 873.318 244.18 873.553 244.545C873.8 244.909 874.083 245.168 874.4 245.332C874.718 245.497 875.035 245.579 875.364 245.579C875.694 245.579 876.023 245.497 876.34 245.344C876.658 245.179 876.94 244.921 877.187 244.557C877.434 244.192 877.563 243.722 877.575 243.158V239.726C877.575 239.573 877.622 239.444 877.681 239.35C877.74 239.244 877.81 239.174 877.892 239.127C877.975 239.08 878.045 239.056 878.128 239.056C878.21 239.056 878.292 239.08 878.363 239.127C878.445 239.174 878.504 239.244 878.575 239.35C878.633 239.456 878.669 239.573 878.68 239.726V244.568C878.68 244.792 878.763 244.98 878.927 245.132C879.08 245.297 879.268 245.379 879.492 245.379L879.468 245.367ZM23.6951 231.84C23.4011 231.993 23.1306 232.228 22.8954 232.568C22.8954 232.568 22.8719 232.557 22.8602 232.545C22.5544 232.392 22.2369 232.322 21.9194 232.322C21.6019 232.322 21.2962 232.404 20.9787 232.568C20.6729 232.733 20.3907 232.992 20.1555 233.356C19.9086 233.72 19.7792 234.179 19.7675 234.743V234.813C19.7675 234.813 19.7557 234.907 19.7557 234.954V239.115C19.7557 239.338 19.838 239.514 19.9909 239.667C20.1438 239.82 20.3201 239.891 20.5436 239.902H26.0822C26.2939 239.902 26.482 239.82 26.6349 239.667C26.7878 239.514 26.8583 239.338 26.8701 239.115V234.261C26.8701 234.261 26.8701 234.167 26.8583 234.12V234.049C26.8583 233.485 26.729 233.027 26.4938 232.663C26.2468 232.298 25.9646 232.04 25.6471 231.875C25.3296 231.71 25.0121 231.628 24.6828 231.628C24.3536 231.628 24.0243 231.699 23.7068 231.863L23.6951 231.84ZM25.2473 233.955C25.2473 233.803 25.2238 233.673 25.165 233.579C25.1062 233.485 25.0239 233.403 24.9416 233.356C24.8592 233.309 24.7652 233.285 24.6828 233.285C24.6241 233.285 24.5535 233.309 24.4477 233.356C24.3418 233.403 24.2595 233.485 24.2007 233.579C24.1302 233.685 24.0949 233.803 24.0949 233.955V238.257H24.9298C25.1532 238.257 25.2591 238.139 25.2591 237.916V233.955H25.2473ZM22.3545 234.273C22.2957 234.179 22.2252 234.108 22.1546 234.061C22.084 234.014 22.0017 233.991 21.9194 233.991C21.8371 233.991 21.7548 234.014 21.6842 234.061C21.6137 234.108 21.5431 234.179 21.4726 234.284C21.4138 234.39 21.3785 234.508 21.3667 234.661V237.928C21.3667 238.151 21.4726 238.269 21.696 238.269H22.4603V234.661C22.4603 234.508 22.4133 234.378 22.3545 234.273ZM19.5558 228.326C19.5558 228.549 19.6381 228.725 19.791 228.878C19.9438 229.031 20.1202 229.113 20.3437 229.125H20.72C21.2962 229.125 21.8371 229.031 22.3427 228.878C22.8484 228.713 23.2835 228.455 23.6363 228.091C23.9891 227.726 24.1772 227.256 24.2125 226.692V222.978C24.4712 223.049 24.7064 223.166 24.9063 223.354C25.1297 223.554 25.2473 223.812 25.2591 224.118V228.055C25.2591 228.279 25.3531 228.467 25.5178 228.619C25.6824 228.772 25.8705 228.843 26.094 228.843C26.3056 228.843 26.4938 228.76 26.6467 228.608C26.7995 228.455 26.8701 228.279 26.8818 228.055V223.707C26.8466 223.143 26.6584 222.672 26.3056 222.308C25.9529 221.944 25.5295 221.673 25.0121 221.521C24.4359 221.344 23.8362 221.25 23.1894 221.25H20.3789C19.8968 221.297 19.6381 221.568 19.5911 222.05C19.5911 222.273 19.6616 222.473 19.8145 222.637C19.9674 222.802 20.1555 222.884 20.3789 222.884H22.5897V226.281C22.5779 226.586 22.4603 226.845 22.2369 227.045C22.0252 227.244 21.7783 227.374 21.4961 227.421C21.2138 227.468 20.9081 227.491 20.5788 227.491H20.3437C20.1202 227.491 19.9321 227.585 19.7792 227.75C19.6263 227.914 19.5558 228.102 19.5558 228.326ZM27.0347 212.647C27.0347 212.424 26.9642 212.224 26.8113 212.059C26.6584 211.895 26.4703 211.813 26.2468 211.801H23.3776C23.0483 211.801 22.7426 211.789 22.4603 211.73C22.1781 211.683 21.9312 211.554 21.7195 211.354C21.5078 211.154 21.3902 210.896 21.3667 210.59V206.336C21.3667 206.112 21.2726 205.924 21.108 205.772C20.9434 205.619 20.7552 205.548 20.5318 205.548C20.3201 205.548 20.132 205.631 19.9791 205.783C19.8262 205.936 19.7557 206.112 19.7439 206.336V211.002C19.7792 211.566 19.9674 212.036 20.3201 212.4C20.6729 212.765 21.0963 213.035 21.6137 213.188C22.1193 213.341 22.6602 213.423 23.2365 213.435H26.2468C26.4585 213.435 26.6467 213.341 26.7995 213.188C26.9524 213.035 27.023 212.847 27.0347 212.635V212.647ZM23.8479 211.249C24.0714 211.249 24.2595 211.166 24.4241 211.013C24.577 210.849 24.6593 210.661 24.6593 210.438V206.348C24.6593 206.124 24.577 205.924 24.4241 205.772C24.2595 205.619 24.0714 205.537 23.8479 205.537C23.6245 205.537 23.4246 205.619 23.2717 205.772C23.1189 205.936 23.0365 206.124 23.0365 206.348V210.438C23.0365 210.661 23.1189 210.849 23.2835 211.002C23.4364 211.166 23.6245 211.249 23.8479 211.249ZM26.0705 203.456C26.2939 203.456 26.482 203.374 26.6349 203.209C26.7995 203.057 26.8818 202.869 26.8818 202.645V196.381C26.8818 196.158 26.7995 195.97 26.6467 195.805C26.4938 195.652 26.2939 195.57 26.0705 195.57C25.847 195.57 25.6471 195.641 25.4942 195.805C25.3414 195.97 25.2708 196.158 25.2708 196.381V198.685H21.3785V196.381C21.3785 196.158 21.2962 195.97 21.1433 195.805C20.9904 195.652 20.7905 195.57 20.5671 195.57C20.3437 195.57 20.1438 195.641 19.9909 195.805C19.838 195.97 19.7557 196.158 19.7557 196.381V202.645C19.7557 202.869 19.838 203.057 19.9909 203.221C20.1555 203.374 20.3437 203.456 20.5671 203.456C20.7905 203.456 20.9787 203.374 21.1315 203.209C21.2962 203.057 21.3785 202.869 21.3785 202.645V200.33H25.2708V202.645C25.2708 202.869 25.3531 203.057 25.506 203.221C25.6706 203.374 25.8588 203.456 26.0822 203.456H26.0705ZM19.7439 190.787C19.7792 191.351 19.9909 191.809 20.3907 192.173C20.7905 192.538 21.2491 192.796 21.7548 192.961C22.2604 193.125 22.7778 193.208 23.3188 193.208C23.8597 193.208 24.3653 193.125 24.8828 192.973C25.3884 192.82 25.847 192.549 26.2468 192.185C26.6467 191.821 26.8583 191.351 26.8936 190.787V185.639C26.8936 185.415 26.7995 185.239 26.6467 185.086C26.5055 184.945 26.3174 184.863 26.1057 184.863H23.2482C23.0248 184.863 22.8484 184.945 22.6955 185.086C22.5427 185.251 22.4721 185.439 22.4721 185.662V189.799C22.4721 190.023 22.5427 190.222 22.6955 190.375C22.8602 190.528 23.0483 190.598 23.2717 190.598C23.4952 190.598 23.6833 190.516 23.8479 190.363C24.0008 190.199 24.0831 190.011 24.0831 189.788V186.696C24.0831 186.555 24.1654 186.473 24.3301 186.473H25.0356C25.1885 186.473 25.2708 186.555 25.2826 186.696V190.375C25.2708 190.681 25.1532 190.939 24.9298 191.139C24.7181 191.339 24.4712 191.492 24.189 191.586C23.9067 191.68 23.6245 191.727 23.3305 191.727C23.0365 191.727 22.7543 191.68 22.4721 191.586C22.1899 191.492 21.9429 191.339 21.7313 191.139C21.5196 190.939 21.402 190.681 21.3785 190.375V185.686C21.3432 185.204 21.0727 184.945 20.5906 184.898C20.3672 184.898 20.1673 184.969 20.0144 185.122C19.8498 185.274 19.7675 185.462 19.7557 185.686V190.787H19.7439ZM19.5558 181.278C19.5558 181.502 19.6263 181.701 19.7792 181.854C19.9321 182.019 20.1202 182.101 20.3437 182.113H26.2704C26.4938 182.113 26.6819 182.031 26.8348 181.866C26.9877 181.701 27.0582 181.502 27.0582 181.278C27.023 180.796 26.7525 180.526 26.2704 180.479H23.989V176.554H26.2704C26.4938 176.554 26.6819 176.471 26.8348 176.307C26.9877 176.142 27.0582 175.942 27.0582 175.719C27.023 175.237 26.7525 174.967 26.2704 174.92H20.3437C20.132 174.92 19.9438 175.002 19.791 175.167C19.6381 175.32 19.5675 175.508 19.5558 175.719C19.5558 175.942 19.6263 176.142 19.7792 176.295C19.9321 176.46 20.1202 176.542 20.3437 176.554H22.3663V180.479H20.3437C20.132 180.479 19.9438 180.573 19.791 180.726C19.6381 180.879 19.5675 181.067 19.5558 181.278ZM20.5553 172.405C20.7788 172.405 20.9669 172.323 21.1198 172.158C21.2844 172.005 21.3667 171.817 21.3667 171.594V168.879H26.2704C26.4938 168.879 26.6819 168.797 26.8348 168.632C26.9877 168.468 27.0582 168.268 27.0582 168.044C27.023 167.563 26.7525 167.292 26.2704 167.245H21.3667V164.554C21.3667 164.331 21.2844 164.142 21.1315 163.978C20.9787 163.825 20.7788 163.743 20.5553 163.743C20.3319 163.743 20.132 163.813 19.9791 163.966C19.8262 164.131 19.7439 164.319 19.7439 164.542V171.582C19.7439 171.805 19.8262 171.993 19.9791 172.158C20.1437 172.311 20.3319 172.393 20.5553 172.393V172.405ZM19.7439 158.995C19.7792 159.559 19.9909 160.017 20.3907 160.382C20.7905 160.746 21.2491 161.004 21.7548 161.169C22.2604 161.334 22.7778 161.416 23.3188 161.416C23.8597 161.416 24.3653 161.334 24.8828 161.181C25.3884 161.028 25.847 160.758 26.2468 160.393C26.6467 160.029 26.8583 159.559 26.8936 158.995V154.329C26.8936 154.117 26.8113 153.929 26.6584 153.776C26.5055 153.624 26.3292 153.553 26.1057 153.541C25.8823 153.541 25.6824 153.612 25.5295 153.765C25.3649 153.917 25.2826 154.105 25.2708 154.329V158.583C25.2591 158.889 25.1415 159.147 24.918 159.347C24.7064 159.547 24.4594 159.7 24.1772 159.794C23.895 159.888 23.6128 159.935 23.3188 159.935C23.0248 159.935 22.7426 159.888 22.4603 159.794C22.1781 159.7 21.9312 159.547 21.7195 159.347C21.5078 159.147 21.3902 158.889 21.3667 158.583V154.329C21.3314 153.847 21.061 153.588 20.5788 153.541C20.3554 153.541 20.1555 153.612 20.0026 153.765C19.838 153.917 19.7557 154.105 19.7439 154.329V158.995ZM23.26 153.565C23.0365 153.565 22.8484 153.647 22.6838 153.8C22.5309 153.953 22.4486 154.152 22.4486 154.376V158.031C22.4486 158.254 22.5191 158.454 22.672 158.607C22.8366 158.76 23.0248 158.842 23.2482 158.842C23.4716 158.842 23.6598 158.76 23.8244 158.607C23.9773 158.442 24.0596 158.254 24.0596 158.031V154.376C24.0596 154.152 23.9773 153.964 23.8127 153.812C23.6598 153.647 23.4716 153.565 23.2482 153.565H23.26ZM26.2586 149.463H21.6725C21.4726 149.463 21.3667 149.357 21.355 149.146V144.903C21.355 144.75 21.402 144.621 21.4608 144.527C21.5196 144.421 21.5901 144.35 21.6725 144.303C21.743 144.256 21.8253 144.233 21.9076 144.233C21.99 144.233 22.0723 144.256 22.1428 144.303C22.2134 144.35 22.2839 144.421 22.3545 144.527C22.4133 144.632 22.4486 144.75 22.4603 144.903V148.1C22.4603 148.323 22.5427 148.511 22.6955 148.676C22.8484 148.828 23.0483 148.911 23.2717 148.911C23.3658 148.911 23.7656 148.84 24.4947 148.699C25.1415 148.593 25.7177 148.299 26.188 147.818C26.6702 147.336 26.8936 146.795 26.8936 146.196V143.363C26.8936 143.14 26.8113 142.964 26.6584 142.811C26.5055 142.658 26.3292 142.587 26.1057 142.576C25.8823 142.576 25.6824 142.646 25.5295 142.799C25.3649 142.952 25.2826 143.14 25.2708 143.363V145.972C25.2708 146.266 25.1767 146.513 24.9768 146.713C24.7887 146.913 24.4829 147.042 24.0831 147.112V144.985C24.0714 144.421 23.942 143.951 23.6951 143.586C23.4481 143.222 23.1777 142.964 22.8719 142.799C22.5662 142.646 22.2487 142.564 21.9194 142.564C21.5901 142.564 21.2962 142.646 20.9787 142.811C20.6729 142.975 20.3907 143.234 20.1555 143.598C19.9086 143.963 19.7792 144.421 19.7675 144.985V145.056C19.7675 145.056 19.7557 145.15 19.7557 145.197V150.262C19.7557 150.485 19.8262 150.685 19.9791 150.838C20.132 151.003 20.3201 151.085 20.5436 151.097H26.2704C26.4938 151.097 26.6819 151.014 26.8348 150.85C26.9877 150.685 27.0582 150.485 27.0582 150.262C27.023 149.78 26.7525 149.51 26.2704 149.463H26.2586ZM20.5553 132.198C20.3319 132.198 20.1437 132.28 19.9791 132.433C19.8262 132.586 19.7439 132.785 19.7439 133.009V137.557C19.7439 137.557 19.7439 137.651 19.7557 137.698V137.769C19.7675 138.333 19.8968 138.791 20.1437 139.156C20.3907 139.52 20.6612 139.778 20.9669 139.943C21.2726 140.108 21.5901 140.19 21.9076 140.19C22.2251 140.19 22.5427 140.108 22.8602 139.955C23.1659 139.79 23.4481 139.532 23.6833 139.167C23.9303 138.803 24.0596 138.333 24.0714 137.769V134.337C24.0714 134.184 24.1184 134.055 24.1772 133.961C24.236 133.867 24.3183 133.784 24.4241 133.737C24.53 133.69 24.6005 133.667 24.6593 133.667C24.7534 133.667 24.8357 133.69 24.918 133.737C25.0004 133.784 25.0827 133.867 25.1415 133.961C25.212 134.067 25.2355 134.184 25.2238 134.337V139.191C25.2238 139.414 25.3061 139.602 25.4707 139.755C25.6236 139.92 25.8117 140.002 26.0352 140.002C26.2586 140.002 26.4467 139.92 26.6114 139.767C26.7642 139.614 26.8466 139.414 26.8466 139.191V134.619C26.8466 134.619 26.8466 134.525 26.8348 134.478V134.407C26.8348 133.843 26.7055 133.385 26.4703 133.021C26.2351 132.656 25.9411 132.398 25.6236 132.233C25.3061 132.069 24.9886 131.986 24.6593 131.986C24.3301 131.986 24.0008 132.069 23.6833 132.221C23.3658 132.386 23.0836 132.644 22.8366 133.009C22.5897 133.373 22.4603 133.843 22.4486 134.407V137.839C22.4486 137.992 22.4015 138.121 22.3427 138.215C22.2839 138.321 22.2134 138.392 22.1311 138.439C22.0605 138.486 21.9782 138.509 21.8959 138.509C21.8136 138.509 21.7313 138.486 21.6607 138.439C21.5901 138.392 21.5196 138.321 21.449 138.215C21.3902 138.11 21.355 137.98 21.3432 137.839V133.009C21.3432 132.785 21.2609 132.597 21.0963 132.445C20.9434 132.28 20.7552 132.198 20.5318 132.198H20.5553ZM233.293 390.2C233.717 390.447 234.234 390.411 234.622 390.117C235.01 389.812 235.175 389.342 235.045 388.86L232.917 380.927C232.752 380.292 232.094 379.916 231.447 380.08L223.51 382.208C223.027 382.337 222.698 382.713 222.628 383.207C222.569 383.7 222.792 384.147 223.216 384.394L233.282 390.2H233.293ZM45.4498 109.385C45.0735 109.703 44.9324 110.196 45.0735 110.666C45.2264 111.136 45.6144 111.454 46.1083 111.501L54.2928 112.218C54.9514 112.276 55.5276 111.783 55.5864 111.125L56.3037 102.945C56.3507 102.451 56.1038 102.004 55.6687 101.781C55.2336 101.558 54.7279 101.605 54.3516 101.922L45.4498 109.385ZM106.328 58.3302C105.952 58.6475 105.81 59.1411 105.952 59.6112C106.104 60.0814 106.492 60.3987 106.986 60.4457L115.171 61.1626C115.829 61.2214 116.406 60.7278 116.464 60.0696L117.182 51.8895C117.229 51.3959 116.982 50.9493 116.547 50.726C116.112 50.5027 115.606 50.5497 115.23 50.867L106.328 58.3302ZM793.672 58.3302L784.77 50.867C784.394 50.5497 783.888 50.4909 783.453 50.726C783.018 50.9493 782.771 51.3959 782.818 51.8895L783.536 60.0696C783.594 60.7278 784.171 61.2096 784.829 61.1626L793.014 60.4457C793.508 60.3987 793.907 60.0814 794.049 59.6112C794.201 59.1411 794.049 58.6475 793.672 58.3302ZM854.55 109.385L845.648 101.922C845.272 101.605 844.767 101.546 844.331 101.781C843.896 102.004 843.649 102.451 843.696 102.945L844.414 111.125C844.473 111.783 845.049 112.265 845.707 112.218L853.892 111.501C854.386 111.454 854.785 111.136 854.927 110.666C855.079 110.196 854.927 109.703 854.55 109.385ZM666.707 390.2L676.773 384.394C677.196 384.147 677.431 383.689 677.361 383.207C677.29 382.725 676.961 382.337 676.479 382.208L668.541 380.08C667.906 379.904 667.248 380.292 667.071 380.927L664.943 388.86C664.814 389.342 664.978 389.812 665.366 390.117C665.754 390.423 666.26 390.447 666.695 390.2H666.707ZM154.024 6.66394H113.466C109.315 6.66394 105.258 7.38087 101.483 8.75598C97.6965 10.1311 94.1217 12.1879 90.9584 14.844L19.1324 75.0899C15.1813 78.4043 12.0651 82.5178 9.92489 87.1015C7.79646 91.6734 6.64404 96.7155 6.64404 101.887V264.983C6.64404 271.248 8.30211 277.265 11.3125 282.472C11.3831 282.589 11.4418 282.695 11.5006 282.813C14.4993 287.89 18.8149 292.227 24.1419 295.294L29.2455 298.244L285.493 446.109L356.531 487.103L393.926 508.67C396.995 510.445 400.311 511.738 403.745 512.502C407.143 513.265 410.694 513.512 414.281 513.218C419.749 512.772 425.629 512.431 431.814 512.184C438.176 511.937 444.267 511.808 450.006 511.808C455.744 511.808 461.824 511.937 468.198 512.184C474.395 512.431 480.263 512.772 485.731 513.218C489.317 513.512 492.869 513.265 496.267 512.502C499.595 511.749 502.794 510.527 505.769 508.858C505.875 508.788 505.98 508.729 506.086 508.67L543.481 487.092L614.519 446.121L870.766 298.256L875.87 295.306C881.197 292.227 885.513 287.902 888.511 282.824C888.57 282.707 888.629 282.601 888.699 282.483C891.71 277.277 893.368 271.259 893.368 264.995V101.887C893.368 96.7155 892.227 91.6734 890.087 87.1015C887.947 82.5178 884.831 78.4043 880.879 75.0899L809.042 14.844C805.878 12.1879 802.304 10.1311 798.517 8.75598C794.731 7.38087 790.685 6.66394 786.534 6.66394H154.024ZM313.492 27.267H303.708C302.685 27.267 302.332 26.4325 302.92 25.41L306.907 18.511C307.495 17.4885 307.142 16.6657 306.119 16.6657H303.708C302.685 16.6657 301.368 17.5002 300.78 18.5227L296.794 25.41C296.194 26.4325 294.889 27.2552 293.866 27.2552H289.362C288.339 27.2552 287.986 26.4207 288.574 25.3982L292.549 18.511C293.137 17.4885 292.784 16.654 291.761 16.654H271.017C269.994 16.654 269.641 17.4885 270.229 18.511L270.512 18.9928C271.076 19.9801 271.158 21.4375 270.711 22.3425L259.764 41.2883C259.176 42.3108 259.528 43.1453 260.551 43.1453H276.45C277.473 43.1453 278.79 42.3108 279.378 41.2883L283.353 34.401C283.941 33.3785 285.258 32.5441 286.281 32.5441H288.456C294.148 32.5441 301.415 37.1512 304.708 42.8397L306.871 46.5889C307.471 47.6114 308.776 48.4341 309.8 48.4341H313.457C314.48 48.4341 315.797 47.5997 316.385 46.5771L320.359 39.6899C320.947 38.6674 321.018 37.116 320.5 36.2228L316.385 29.0887C315.797 28.0662 314.48 27.2317 313.457 27.2317L313.492 27.267ZM199.909 34.4245C200.497 33.402 201.814 32.5676 202.837 32.5676H207.34C208.364 32.5676 208.716 33.402 208.128 34.4245L207.211 36.0112C206.623 37.0337 206.976 37.8682 207.999 37.8682H223.898C224.921 37.8682 226.238 37.0337 226.826 36.0112L233.858 23.8233C234.446 22.8008 234.516 21.2494 233.999 20.3562L232.941 18.5227C232.353 17.5002 231.036 16.6657 230.012 16.6657H220.229C219.206 16.6657 217.889 17.5002 217.301 18.5227L213.326 25.41C212.738 26.4325 211.421 27.267 210.398 27.267H205.894C204.871 27.267 204.518 26.4325 205.106 25.41L209.081 18.5227C209.669 17.5002 209.316 16.6657 208.293 16.6657H179.965C178.942 16.6657 178.589 17.5002 179.177 18.5227L180.094 20.1094C180.682 21.1319 181.999 21.9664 183.022 21.9664H185.609C186.632 21.9664 186.985 22.8008 186.397 23.8233L179.353 36.0112C178.765 37.0337 178.695 38.5851 179.212 39.4783L180.271 41.3118C180.858 42.3343 182.176 43.1688 183.199 43.1688H192.982C194.005 43.1688 195.322 42.3343 195.91 41.3118L199.885 34.4245H199.909ZM243.206 16.6775C242.183 16.6775 241.831 17.512 242.419 18.5345L242.701 19.0163C243.289 20.0389 243.359 21.5903 242.842 22.4835L232.694 40.0542C231.706 41.7702 229.507 43.1688 227.778 43.1688H204.918C203.895 43.1688 202.578 44.0032 201.99 45.0258L201.073 46.6124C200.485 47.6349 200.838 48.4694 201.861 48.4694H240.796C244.465 48.4694 249.168 45.4959 251.285 41.8289C254.684 35.9407 258.611 29.6881 261.739 23.7293C261.798 23.6235 261.845 23.5178 261.88 23.412C262.28 22.413 262.268 21.1436 261.821 20.3679C261.457 19.7333 261.104 19.0986 260.728 18.4757C260.246 17.6765 259.328 17.0066 258.47 16.7715C258.141 16.6893 257.917 16.6775 257.847 16.6775C252.967 16.6422 248.075 16.6775 243.206 16.6775Z" fill="#424242"/>
</g>
<defs>
<clipPath id="clip0_291_455">
<rect width="900" height="520" fill="white"/>
</clipPath>
</defs>
</svg>
