<svg xmlns="http://www.w3.org/2000/svg" viewBox="0 0 8.26 10.35" fill="white">
    <path
        d="M2.68,0h2.9A2.69,2.69,0,0,1,8.26,2.68h0A2.69,2.69,0,0,1,5.58,5.36H2.68A2.69,2.69,0,0,1,0,2.68H0A2.69,2.69,0,0,1,2.68,0Zm0,.82A1.87,1.87,0,0,0,.82,2.68h0A1.87,1.87,0,0,0,2.68,4.54h2.9A1.87,1.87,0,0,0,7.44,2.68h0A1.87,1.87,0,0,0,5.58.82Z" />
    <rect x="1.6" y="2.27" width="2.29" height="0.82" />
    <rect x="2.33" y="1.54" width="0.82" height="2.29" />
    <path d="M5.32,3.83a.49.49,0,1,0-.49-.49A.49.49,0,0,0,5.32,3.83Z" />
    <path d="M6.17,2.51A.49.49,0,1,0,5.68,2,.49.49,0,0,0,6.17,2.51Z" />
</svg>
