<svg xmlns="http://www.w3.org/2000/svg" viewBox="0 0 8.98 11.45" fill="white">
  <path
    d="M4.49,10.62A4.87,4.87,0,0,0,7.82,9.31h0a.39.39,0,0,1,.28-.11.42.42,0,0,1,.42.41.44.44,0,0,1-.13.31h0a5.71,5.71,0,0,1-7.78,0,.4.4,0,0,1-.15-.31.42.42,0,0,1,.42-.42.43.43,0,0,1,.3.13,4.9,4.9,0,0,0,3.32,1.3ZM1.15,2.15a.39.39,0,0,1-.28.11A.42.42,0,0,1,.6,1.52a5.74,5.74,0,0,1,7.78,0,.42.42,0,0,1-.27.74.39.39,0,0,1-.29-.13A5,5,0,0,0,4.49.83,4.87,4.87,0,0,0,1.16,2.14h0Zm.17,5.12A6.42,6.42,0,0,1,.74,6.12L0,4.32a.33.33,0,0,1,0-.15.36.36,0,0,1,.11-.3.35.35,0,0,1,.3-.13.4.4,0,0,1,.29.09A.56.56,0,0,1,.86,4l.61,1.65a4.53,4.53,0,0,0,.2.49,2.06,2.06,0,0,0,.21.42.38.38,0,0,0,.28.21.38.38,0,0,0,.26-.21,2.07,2.07,0,0,0,.22-.42c.07-.15.13-.31.2-.49L3.43,4a.69.69,0,0,1,.16-.21.46.46,0,0,1,.31-.09.38.38,0,0,1,.3.13.4.4,0,0,1,.11.3.54.54,0,0,1,0,.15l-.7,1.8A6.09,6.09,0,0,1,3,7.27a1,1,0,0,1-.83.44,1,1,0,0,1-.84-.44Zm7.55-3a.41.41,0,0,1-.12.3.42.42,0,0,1-.3.13H5.91a.39.39,0,0,0-.2,0,.29.29,0,0,0-.11.11.2.2,0,0,0,0,.24.29.29,0,0,0,.11.11.52.52,0,0,0,.2.06h1.8a1.34,1.34,0,0,1,.73.2,1.19,1.19,0,0,1,.42.45A1.13,1.13,0,0,1,9,6.45a1,1,0,0,1-.13.5,1.07,1.07,0,0,1-.41.44,1.26,1.26,0,0,1-.73.2H5.2a.42.42,0,0,1-.3-.72.42.42,0,0,1,.3-.13H7.75a.31.31,0,0,0,.2,0,.34.34,0,0,0,.12-.12.33.33,0,0,0,0-.13.58.58,0,0,0,0-.13A.49.49,0,0,0,8,6.19a.39.39,0,0,0-.2-.05H6a1.34,1.34,0,0,1-.73-.21,1.11,1.11,0,0,1-.41-.43,1,1,0,0,1,0-1,1.11,1.11,0,0,1,.41-.43A1.34,1.34,0,0,1,6,3.87h2.5a.41.41,0,0,1,.42.42Z" />
</svg>
