<svg xmlns="http://www.w3.org/2000/svg" viewBox="0 0 70.87 70.87">
  <defs>
    <style>
      .cls-border {
        fill: #a6a6a6;
      }
    </style>
  </defs>
  <symbol id="BTN_A" data-name="BTN_A">
    <polygon class="cls-border"
      points="28.35 42.52 34.53 28.35 34.85 28.35 36.01 28.35 36.34 28.35 42.52 42.52 41.04 42.52 38.74 37.25 33.61 37.25 34.2 35.89 38.15 35.89 35.43 29.67 29.83 42.52 28.35 42.52" />
  </symbol>
  <symbol id="BTN_B" data-name="BTN_B">
    <path class="cls-border"
      d="M28.35,42.52V28.35H38a3.88,3.88,0,0,1,2.5,6.85,3.89,3.89,0,0,1-1.81,7.32H28.35Zm10.29-6.41H29.7v5h8.94a2.53,2.53,0,0,0,0-5ZM38,29.7H29.7v5.05H38a2.53,2.53,0,1,0,0-5.05Z" />
  </symbol>
  <symbol id="BTN_X" data-name="BTN_X">
    <path class="cls-border"
      d="M29.94,28.35a4,4,0,0,1,3.36,2l-1.18.68,1.18-.68,2.13,3.7,2.14-3.7,1.18.68h0a2.66,2.66,0,0,1,2.17-1.34h1.6V28.35h-1.6a4,4,0,0,0-3.35,2l1.18.68-2.53,4.38,2.53,4.39h0a2.68,2.68,0,0,0,2.17,1.34h1.6v1.36h-1.6a4,4,0,0,1-3.35-2h0l-2.14-3.7-2.13,3.7h0a4.05,4.05,0,0,1-3.36,2H28.35V41.16h1.59a2.69,2.69,0,0,0,2.18-1.34h0l2.53-4.39-2.53-4.38h0a2.68,2.68,0,0,0-2.18-1.34H28.35V28.35Z" />
  </symbol>
  <symbol id="BTN_Y" data-name="BTN_Y">
    <path class="cls-border"
      d="M41.16,38.64V37.25H32.23a3.88,3.88,0,0,1-3.88-3.88v-5H29.7v5a2.52,2.52,0,0,0,2.53,2.52h8.93V28.35h1.36V38.64a3.88,3.88,0,0,1-3.88,3.88H29.7V41.16h8.94A2.52,2.52,0,0,0,41.16,38.64Z" />
  </symbol>
  <symbol id="BTN_UP" data-name="BTN_UP">
    <path class="cls-3"
      d="M44.76,37.6l.33.58a2.84,2.84,0,0,1-2.45,4.25H28.23a2.84,2.84,0,0,1-2.46-4.25l1.62-2.8h0L33,25.69a2.84,2.84,0,0,1,4.91,0L44.76,37.6Z" />
  </symbol>
  <symbol id="BTN_DOWN" data-name="BTN_DOWN">
    <path class="cls-3"
      d="M44.76,33.27l.33-.58a2.84,2.84,0,0,0-2.45-4.25H28.23a2.84,2.84,0,0,0-2.46,4.25l1.62,2.8h0L33,45.17a2.83,2.83,0,0,0,4.91,0l6.87-11.9Z" />
  </symbol>
  <symbol id="BTN_LEFT" data-name="BTN_LEFT">
    <path class="cls-3"
      d="M37.6,44.76l.58.33a2.84,2.84,0,0,0,4.25-2.45V28.23a2.84,2.84,0,0,0-4.25-2.46l-2.8,1.62h0L25.69,33a2.84,2.84,0,0,0,0,4.91L37.6,44.76Z" />
  </symbol>
  <symbol id="BTN_RIGHT" data-name="BTN_RIGHT">
    <path class="cls-3"
      d="M33.27,26.11l-.58-.34a2.84,2.84,0,0,0-4.25,2.46V42.64a2.84,2.84,0,0,0,4.25,2.45l2.8-1.61h0l9.68-5.59a2.83,2.83,0,0,0,0-4.91l-11.9-6.87Z" />
  </symbol>
  <symbol id="BTN_M1" data-name="BTN_M1">
    <path class="cls-3"
      d="M26.9,40.39v-7.1a2.82,2.82,0,0,1,5-1.83,2.82,2.82,0,0,1,5,1.83v7.1H35.46v-7.1a1.46,1.46,0,0,0-2.92,0v7.1H31.18v-7.1a1.46,1.46,0,1,0-2.92,0v7.1ZM40.13,33l2.48-2.48H44v9.92H42.61v-8l-1.52,1.52Z" />
  </symbol>
  <symbol id="BTN_M2" data-name="BTN_M2">
    <path class="cls-3"
      d="M37.09,30.47h7.1a2.82,2.82,0,0,1,0,5.64H39.91a1.46,1.46,0,0,0-1.46,1.46V39H47v1.35H37.09V37.57a2.82,2.82,0,0,1,2.82-2.82h4.28a1.46,1.46,0,1,0,0-2.92h-7.1V30.47Zm-8.27,1a2.79,2.79,0,0,1,2.14-1,2.82,2.82,0,0,1,2.82,2.82v7.1H32.42v-7.1a1.46,1.46,0,0,0-2.92,0v7.1H28.14v-7.1a1.46,1.46,0,0,0-2.92,0v7.1H23.86v-7.1a2.82,2.82,0,0,1,5-1.83Z" />
  </symbol>
  <symbol id="BTN_M3" data-name="BTN_M3">
    <path class="cls-3"
      d="M37.09,30.47h7.1A2.82,2.82,0,0,1,47,33.29a2.78,2.78,0,0,1-1,2.14,2.82,2.82,0,0,1-1.83,5h-7.1V39h7.1a1.47,1.47,0,0,0,0-2.93h-7.1V34.75h7.1a1.46,1.46,0,1,0,0-2.92h-7.1V30.47Zm-8.27,1a2.79,2.79,0,0,1,2.14-1,2.82,2.82,0,0,1,2.82,2.82v7.1H32.42v-7.1a1.46,1.46,0,0,0-2.92,0v7.1H28.14v-7.1a1.46,1.46,0,0,0-2.92,0v7.1H23.86v-7.1a2.82,2.82,0,0,1,5-1.83Z" />
  </symbol>
  <symbol id="BTN_M4" data-name="BTN_M4">
    <path class="cls-3"
      d="M37.09,34.86V30.47h1.36v4.39a1.46,1.46,0,0,0,1.46,1.46h4.37V30.47h1.36v5.85H47v1.36H45.64v2.71H44.28V37.68H39.91a2.82,2.82,0,0,1-2.82-2.82Zm-8.27-3.4a2.79,2.79,0,0,1,2.14-1,2.82,2.82,0,0,1,2.82,2.82v7.1H32.42v-7.1a1.46,1.46,0,0,0-2.92,0v7.1H28.14v-7.1a1.46,1.46,0,0,0-2.92,0v7.1H23.86v-7.1a2.82,2.82,0,0,1,5-1.83Z" />
  </symbol>
  <symbol id="BTN_LT" data-name="BTN_LT">
    <path class="cls-4"
      d="M37.09,30.47H47v1.36H42.73v8.56H41.37V31.83H37.09V30.47ZM26.68,39h7.1v1.36h-7.1a2.82,2.82,0,0,1-2.82-2.82v-7.1h1.36v7.1A1.46,1.46,0,0,0,26.68,39Z" />
  </symbol>
  <symbol id="BTN_LB" data-name="BTN_LB">
    <path class="cls-4"
      d="M37.09,30.47h6.43a2.83,2.83,0,0,1,2.12,4.69,2.81,2.81,0,0,1-1.45,5.23h-7.1V30.47ZM38.44,39h5.75a1.47,1.47,0,0,0,0-2.93H38.44V39Zm0-4.29h5.08a1.46,1.46,0,1,0,0-2.92H38.44v2.92ZM26.68,39h7.1v1.35h-7.1a2.82,2.82,0,0,1-2.82-2.82v-7.1h1.36v7.1A1.46,1.46,0,0,0,26.68,39Z" />
  </symbol>
  <symbol id="BTN_RT" data-name="BTN_RT">
    <path class="cls-4"
      d="M23.86,40.39V30.47H31a2.82,2.82,0,0,1,0,5.64H28A2.92,2.92,0,0,0,31,39h2.82v1.36H31a4.28,4.28,0,0,1-4.28-4.28V34.75H31a1.46,1.46,0,0,0,0-2.92H25.22v8.56Zm17.51,0V31.83H37.09V30.47H47v1.36H42.73v8.56Z" />
  </symbol>
  <symbol id="BTN_RB" data-name="BTN_RB">
    <path class="cls-4"
      d="M23.86,40.39V30.47H31a2.82,2.82,0,0,1,0,5.64H28A2.93,2.93,0,0,0,31,39h2.82v1.35H31a4.27,4.27,0,0,1-4.28-4.28V34.75H31a1.46,1.46,0,0,0,0-2.92H25.22v8.56ZM37.09,39V30.47h6.44a2.83,2.83,0,0,1,2.11,4.69,2.81,2.81,0,0,1-1.45,5.23h-7.1V39Zm1.35-7.21v2.92h5.09a1.46,1.46,0,1,0,0-2.92Zm0,4.28V39h5.75a1.47,1.47,0,0,0,0-2.93H38.44Z" />
  </symbol>
  <symbol id="BTN_L3" data-name="BTN_L3">
    <path class="cls-3"
      d="M37.09,30.47h7.1A2.82,2.82,0,0,1,47,33.29a2.78,2.78,0,0,1-1,2.14,2.82,2.82,0,0,1-1.83,5h-7.1V39h7.1a1.47,1.47,0,0,0,0-2.93h-7.1V34.75h7.1a1.46,1.46,0,1,0,0-2.92h-7.1V30.47ZM26.68,39h7.1v1.35h-7.1a2.82,2.82,0,0,1-2.82-2.82v-7.1h1.36v7.1A1.46,1.46,0,0,0,26.68,39Z" />
  </symbol>
  <symbol id="BTN_R3" data-name="BTN_R3">
    <path class="cls-3"
      d="M23.86,40.39V30.47H31a2.82,2.82,0,0,1,0,5.64H28A2.93,2.93,0,0,0,31,39h2.82v1.35H31a4.27,4.27,0,0,1-4.28-4.28V34.75H31a1.46,1.46,0,0,0,0-2.92H25.22v8.56Zm22.16-5a2.82,2.82,0,0,1-1.83,5h-7.1V39h7.1a1.47,1.47,0,0,0,0-2.93h-7.1V34.75h7.1a1.46,1.46,0,1,0,0-2.92h-7.1V30.47h7.1A2.82,2.82,0,0,1,47,33.29,2.78,2.78,0,0,1,46,35.43Z" />
  </symbol>
  <symbol id="BTN_ST" data-name="BTN_ST">
    <polygon class="cls-3"
      points="37.09 30.47 47.01 30.47 47.01 31.83 42.73 31.83 42.73 40.4 41.37 40.4 41.37 31.83 37.09 31.83 37.09 30.47 37.09 30.47" />
    <path class="cls-4"
      d="M34.15,37a1.09,1.09,0,0,0,0-.17c0-.13-.08-.26-.13-.39l-.1-.17-.09-.16-.1-.17-.14-.16a3,3,0,0,0-.24-.26,2.78,2.78,0,0,0-1.89-.74H26.68a1.47,1.47,0,0,1-1.46-1.47h0a1.46,1.46,0,0,1,1.46-1.46h7.1V30.47H26.67a2.83,2.83,0,0,0-1.89.75,2,2,0,0,0-.24.26l-.14.16a3.37,3.37,0,0,0-.19.32l-.1.18c-.05.12-.09.26-.13.39a1.42,1.42,0,0,0-.05.16,2.46,2.46,0,0,0-.07.6h0a2.35,2.35,0,0,0,.07.6,1.09,1.09,0,0,0,.05.17c0,.13.08.26.13.39l.1.18.09.15a1.4,1.4,0,0,0,.1.16,2.09,2.09,0,0,0,.14.17,2,2,0,0,0,.24.26,2.82,2.82,0,0,0,1.89.74H31.4a1.47,1.47,0,0,1,1.46,1.46h0A1.46,1.46,0,0,1,31.4,39H24.3v1.35h7.11a2.78,2.78,0,0,0,1.89-.74l.24-.26a2.09,2.09,0,0,0,.14-.17,3.21,3.21,0,0,0,.19-.31l.1-.18c.05-.13.09-.26.13-.39a1.09,1.09,0,0,0,0-.17,2.88,2.88,0,0,0,.07-.59h0A2.88,2.88,0,0,0,34.15,37Z" />
    </g>
  </symbol>
  <symbol id="BTN_SEL" data-name="BTN_SEL">
    <path class="cls-3"
      d="M26.89,37a1.09,1.09,0,0,0-.05-.17c0-.13-.08-.27-.13-.39l-.1-.18-.09-.15a1,1,0,0,1-.1-.17l-.14-.16A3.07,3.07,0,0,0,26,35.5a2.83,2.83,0,0,0-1.89-.75H19.41A1.46,1.46,0,0,1,18,33.29h0a1.48,1.48,0,0,1,1.47-1.46h7.1V30.47H19.41a2.79,2.79,0,0,0-1.89.75,3.07,3.07,0,0,0-.25.26c0,.05-.09.1-.13.16a2.14,2.14,0,0,0-.2.32l-.09.18a2.24,2.24,0,0,0-.14.39s0,.11-.05.16a3.05,3.05,0,0,0-.06.6h0a2.91,2.91,0,0,0,.06.6,1.09,1.09,0,0,1,.05.17,2.46,2.46,0,0,0,.14.38c0,.07.06.12.09.18s.07.1.1.15a1,1,0,0,0,.1.17l.13.17a3.07,3.07,0,0,0,.25.26,2.82,2.82,0,0,0,1.89.74h4.73a1.46,1.46,0,0,1,1.46,1.46h0A1.46,1.46,0,0,1,24.14,39H17v1.35h7.11A2.75,2.75,0,0,0,26,39.65a3.07,3.07,0,0,0,.25-.26l.14-.17a3.21,3.21,0,0,0,.19-.31l.1-.18c.05-.13.09-.26.13-.39a1.09,1.09,0,0,0,.05-.17,2.9,2.9,0,0,0,.07-.6h0A2.88,2.88,0,0,0,26.89,37Z" />
    <path class="cls-4" d="M48,39h7.1v1.35H48a2.82,2.82,0,0,1-2.82-2.82v-7.1h1.36v7.1A1.46,1.46,0,0,0,48,39Z" />
    <path class="cls-3"
      d="M40.79,31.83V30.47H33.68a2.85,2.85,0,0,0-2.82,2.82v4.28A2.81,2.81,0,0,0,32.22,40a2.73,2.73,0,0,0,1.46.42h7.11V39H33.68a1.47,1.47,0,0,1-1.46-1.47V33.29a1.47,1.47,0,0,1,1.46-1.46h7.11Z" />
    <rect class="cls-3" x="33.06" y="34.86" width="7.72" height="1.35" />
  </symbol>
  <symbol id="BTN_NULL" data-name="BTN_NULL">
    <path d="M132.254 218.466L102.648 249.572" stroke="#A6A6A6" stroke-width="2" stroke-miterlimit="10" />
    <path
      d="M117.105 255.32C128.761 255.32 138.21 245.847 138.21 234.16C138.21 222.474 128.761 213 117.105 213C105.449 213 96 222.474 96 234.16C96 245.847 105.449 255.32 117.105 255.32Z"
      stroke="#A6A6A6" stroke-width="2" stroke-miterlimit="10" />
    </g>
  </symbol>
  <symbol id="BTN_UP_LIGHT" data-name="BTN_UP_LIGHT">
    <path fill-rule="evenodd" clip-rule="evenodd"
      d="M450.741 399.913L470.019 418.723C471.25 419.924 471.25 421.9 470.019 423.102C469.166 423.933 467.935 424.188 466.845 423.864C466.111 423.668 458.769 421.727 448.503 421.727C438.236 421.727 430.859 423.668 430.148 423.864C429.059 424.188 427.839 423.922 426.986 423.09C425.755 421.888 425.755 419.913 426.986 418.711L446.265 399.901C446.395 399.774 446.549 399.647 446.691 399.555C446.774 399.497 446.869 399.439 446.963 399.393C446.963 399.393 447.058 399.347 447.105 399.324L447.176 399.289L447.247 399.254L447.319 399.22L447.39 399.196C447.39 399.196 447.484 399.162 447.532 399.15C447.532 399.15 447.626 399.116 447.674 399.104L447.745 399.081C447.745 399.081 447.84 399.058 447.899 399.046C447.97 399.035 448.053 399.023 448.124 399.012C448.124 399.012 448.23 399.012 448.278 399C448.349 399 448.432 399 448.503 399H448.574H448.645H448.716H448.787H448.858L448.929 399.023C448.929 399.023 448.976 399.023 449 399.023H449.071L449.142 399.046H449.213V399.058L449.284 399.081L449.355 399.104L449.426 399.127L449.497 399.15L449.568 399.173L449.639 399.196L449.711 399.231L449.782 399.266L449.853 399.3L449.924 399.335L449.995 399.37L450.066 399.404L450.137 399.439L450.208 399.485L450.279 399.531L450.338 399.578L450.397 399.624L450.457 399.67L450.516 399.716L450.575 399.774L450.634 399.832L450.693 399.89L450.741 399.913Z"
      fill="#7615E6" />
  </symbol>
</svg>
