<svg width="981" height="687" viewBox="0 0 981 687" fill="none" xmlns="http://www.w3.org/2000/svg">
<g clip-path="url(#clip0_296_799)">
<path fill-rule="evenodd" clip-rule="evenodd" d="M176.579 46.278C173.335 46.2671 170.232 44.9588 167.951 42.6665C165.67 40.3743 164.383 37.2602 164.383 34.0165V4.90895C164.383 2.36799 162.329 0.313599 159.788 0.313599H76.1368C67.6279 0.313599 59.1298 1.7733 51.0966 4.59539C47.0638 6.01184 43.2148 7.74185 39.4739 9.81787C35.733 11.8939 32.23 14.251 28.8891 16.9217C25.5483 19.5925 22.4885 22.501 19.6342 25.6908C18.2179 27.2802 16.8664 28.9237 15.5906 30.6213C14.3148 32.3189 13.1039 34.0705 11.9686 35.8762C7.41686 43.099 4.11925 51.0139 2.17313 59.3179L1.64335 61.74C1.17844 64.0539 0.821648 66.3786 0.572976 68.7141C0.324304 71.0604 0.172938 73.4068 0.140503 75.7639V610.241C0.140503 620.297 2.10826 630.256 5.95726 639.554C9.80627 648.842 15.4392 657.298 22.5426 664.413C29.646 671.527 38.09 677.182 47.3774 681.032C56.6431 684.87 66.6548 686.87 76.6882 686.87H281.886C294.979 686.87 308.061 684.762 320.495 680.631C332.334 676.707 343.556 670.965 353.676 663.677L356.185 661.882C364.758 655.784 373.592 650.183 382.814 645.101C386.869 642.863 390.988 640.744 395.161 638.733C402.048 635.413 409.044 632.44 416.212 629.801C421.272 627.931 426.386 626.255 431.576 624.752C437.198 623.119 442.874 621.724 448.615 620.557C455.134 619.227 461.665 618.21 468.282 617.497C471.979 617.097 475.666 616.805 479.375 616.599C486.802 616.199 494.208 616.199 501.636 616.599C505.345 616.794 509.042 617.097 512.729 617.497C519.335 618.21 525.876 619.227 532.396 620.557C538.137 621.724 543.802 623.13 549.435 624.752C554.614 626.255 559.728 627.931 564.799 629.801C571.967 632.44 578.973 635.424 585.849 638.733C590.023 640.744 594.131 642.863 598.197 645.101L594.931 643.339C595.072 643.415 595.212 643.49 595.353 643.566C602.056 647.156 608.641 651.059 625.821 662.596L627.334 663.688C637.443 670.976 648.677 676.717 660.516 680.642C672.939 684.773 686.032 686.881 699.125 686.881H904.322C914.377 686.881 924.346 684.902 933.633 681.042C942.921 677.193 951.365 671.538 958.468 664.423C965.571 657.309 971.215 648.864 975.053 639.565C978.902 630.277 980.881 620.308 980.881 610.252V76.9317C980.881 75.2017 980.827 73.4825 980.708 71.7524C980.07 62.2373 977.67 52.9061 973.626 44.256C969.583 35.6167 963.971 27.7884 957.052 21.2144C950.143 14.6403 942.045 9.40699 933.201 5.82802C924.378 2.25987 914.886 0.367662 905.36 0.313599H821.234C818.693 0.313599 816.639 2.36799 816.639 4.90895V34.0165C816.639 37.2602 815.352 40.3635 813.071 42.6665C810.789 44.9588 807.676 46.2671 804.443 46.278H176.579Z" fill="#424242"/>
<path fill-rule="evenodd" clip-rule="evenodd" d="M816.617 18.2084V34.0813C816.617 40.796 811.125 46.2888 804.41 46.2888H176.579C169.864 46.2888 164.372 40.796 164.372 34.0813V3.37356C164.372 1.6868 165.756 0.313599 167.432 0.313599H813.557C815.244 0.313599 816.617 1.69761 816.617 3.37356V18.2084Z" fill="#171717" stroke="black" stroke-width="0.57" stroke-miterlimit="22.93"/>
<path d="M600.554 0.302734H464.725V46.2779H600.554V0.302734Z" fill="#171717" stroke="black" stroke-width="0.57" stroke-miterlimit="22.93"/>
<path fill-rule="evenodd" clip-rule="evenodd" d="M654.191 7.96887H630.6C628.913 7.96887 627.464 8.35813 626.005 9.20151L615.874 15.0511C613.928 16.1756 612.814 18.1111 612.814 20.3601V34.0272C612.814 36.5574 614.879 38.6226 617.409 38.6226H641.001C642.687 38.6226 644.136 38.2333 645.596 37.39L655.726 31.5403C657.672 30.4158 658.786 28.4804 658.786 26.2313V12.5642C658.786 10.0341 656.721 7.96887 654.191 7.96887Z" fill="black"/>
<path fill-rule="evenodd" clip-rule="evenodd" d="M799.762 7.96887H747.065C745.378 7.96887 743.929 8.35813 742.47 9.20151L732.339 15.0511C730.393 16.1756 729.279 18.1111 729.279 20.3601V34.0272C729.279 36.5574 731.344 38.6226 733.874 38.6226H786.571C788.258 38.6226 789.707 38.2333 791.166 37.39L801.297 31.5403C803.243 30.4158 804.357 28.4804 804.357 26.2313V12.5642C804.357 10.0341 802.292 7.96887 799.762 7.96887Z" fill="black"/>
<path fill-rule="evenodd" clip-rule="evenodd" d="M712.413 7.96887H688.821C687.135 7.96887 685.686 8.35813 684.226 9.20151L674.096 15.0511C672.149 16.1756 671.036 18.1111 671.036 20.3601V34.0272C671.036 36.5574 673.101 38.6226 675.631 38.6226H699.222C700.909 38.6226 702.358 38.2333 703.817 37.39L713.948 31.5403C715.894 30.4158 717.008 28.4804 717.008 26.2313V12.5642C717.008 10.0341 714.943 7.96887 712.413 7.96887Z" fill="black"/>
<path fill-rule="evenodd" clip-rule="evenodd" d="M95.9333 330.865C84.0836 324.021 76.7748 311.37 76.7748 297.682V147.635C76.7748 136.314 81.7807 125.567 90.4625 118.29L156.512 62.8644C163.41 57.0797 172.135 53.9008 181.141 53.9008H799.913C808.919 53.9008 817.633 57.0797 824.542 62.8644L890.592 118.29C899.263 125.567 904.279 136.314 904.279 147.635V297.682C904.279 311.37 896.981 324.021 885.121 330.865L545.154 527.157C538.418 531.05 530.655 532.791 522.892 532.164C512.48 531.32 501.506 530.898 490.522 530.898C479.537 530.898 468.563 531.32 458.151 532.164C450.399 532.791 442.636 531.05 435.889 527.157L95.9333 330.865Z" fill="#171717"/>
<path fill-rule="evenodd" clip-rule="evenodd" d="M654.191 7.96887H639.801C638.114 7.96887 636.665 8.35813 635.206 9.20151L625.075 15.0511C623.129 16.1756 622.015 18.1111 622.015 20.3601V34.0272C622.015 36.5574 624.08 38.6226 626.61 38.6226H641.001C642.687 38.6226 644.136 38.2333 645.596 37.39L655.726 31.5403C657.673 30.4158 658.786 28.4804 658.786 26.2313V12.5642C658.786 10.0341 656.721 7.96887 654.191 7.96887Z" fill="#171717" stroke="#5E5E5E" stroke-width="0.57" stroke-miterlimit="22.93"/>
<path fill-rule="evenodd" clip-rule="evenodd" d="M799.761 7.96887H765.445C763.758 7.96887 762.309 8.35813 760.85 9.20151L750.719 15.0511C748.773 16.1756 747.659 18.1111 747.659 20.3601V34.0272C747.659 36.5574 749.724 38.6226 752.254 38.6226H786.571C788.258 38.6226 789.706 38.2333 791.166 37.39L801.297 31.5403C803.243 30.4158 804.356 28.4804 804.356 26.2313V12.5642C804.356 10.0341 802.291 7.96887 799.761 7.96887Z" fill="#171717" stroke="#5E5E5E" stroke-width="0.57" stroke-miterlimit="22.93"/>
<path fill-rule="evenodd" clip-rule="evenodd" d="M712.413 7.96887H698.022C696.335 7.96887 694.887 8.35813 693.427 9.20151L683.296 15.0511C681.35 16.1756 680.237 18.1111 680.237 20.3601V34.0272C680.237 36.5574 682.302 38.6226 684.832 38.6226H699.222C700.909 38.6226 702.358 38.2333 703.817 37.39L713.948 31.5403C715.894 30.4158 717.008 28.4804 717.008 26.2313V12.5642C717.008 10.0341 714.943 7.96887 712.413 7.96887Z" fill="#171717" stroke="#5E5E5E" stroke-width="0.57" stroke-miterlimit="22.93"/>
<path fill-rule="evenodd" clip-rule="evenodd" d="M641.93 15.635V30.9564C641.93 31.7998 641.238 32.4918 640.395 32.4918C639.552 32.4918 638.86 31.7998 638.86 30.9564V15.635C638.86 14.7916 639.552 14.0996 640.395 14.0996C641.238 14.0996 641.93 14.7916 641.93 15.635Z" fill="#1A1A1A"/>
<path fill-rule="evenodd" clip-rule="evenodd" d="M700.163 15.635V30.9564C700.163 31.7998 699.471 32.4918 698.628 32.4918C697.784 32.4918 697.092 31.7998 697.092 30.9564V15.635C697.092 14.7916 697.784 14.0996 698.628 14.0996C699.471 14.0996 700.163 14.7916 700.163 15.635Z" fill="#1A1A1A"/>
<path fill-rule="evenodd" clip-rule="evenodd" d="M767.585 15.635V30.9564C767.585 31.7998 766.894 32.4918 766.05 32.4918C765.207 32.4918 764.515 31.7998 764.515 30.9564V15.635C764.515 14.7916 765.207 14.0996 766.05 14.0996C766.894 14.0996 767.585 14.7916 767.585 15.635Z" fill="#1A1A1A"/>
<path fill-rule="evenodd" clip-rule="evenodd" d="M787.501 15.635V30.9564C787.501 31.7998 786.809 32.4918 785.965 32.4918C785.122 32.4918 784.43 31.7998 784.43 30.9564V15.635C784.43 14.7916 785.122 14.0996 785.965 14.0996C786.809 14.0996 787.501 14.7916 787.501 15.635Z" fill="#1A1A1A"/>
<path fill-rule="evenodd" clip-rule="evenodd" d="M650.353 19.5276C651.672 19.5276 652.872 20.025 653.78 20.8359C653.867 20.9224 653.932 21.0414 653.932 21.1711C653.932 21.4198 653.726 21.6252 653.477 21.6252C653.358 21.6252 653.261 21.582 653.175 21.5063C652.418 20.8359 651.434 20.425 650.342 20.425C649.25 20.425 648.266 20.8359 647.509 21.5063C647.434 21.582 647.325 21.6252 647.207 21.6252C646.958 21.6252 646.752 21.4198 646.752 21.1711C646.752 21.0414 646.807 20.9224 646.904 20.8359V20.8251C647.812 20.0142 649.012 19.5276 650.32 19.5276H650.353ZM650.353 24.9231C650.601 24.9231 650.807 25.1285 650.807 25.3772V26.6207C650.807 26.8693 650.601 27.0748 650.353 27.0748C650.104 27.0748 649.899 26.8693 649.899 26.6207V25.3772C649.899 25.1285 650.104 24.9231 650.353 24.9231ZM652.591 22.1767C651.996 21.6469 651.218 21.3225 650.364 21.3225C649.509 21.3225 648.731 21.636 648.136 22.1659V22.1767C648.039 22.2632 647.985 22.3821 647.985 22.5119C647.985 22.7606 648.19 22.966 648.439 22.966C648.558 22.966 648.655 22.9227 648.742 22.8471C649.174 22.4686 649.747 22.2307 650.374 22.2307C651.001 22.2307 651.574 22.4686 652.007 22.8471C652.083 22.9227 652.191 22.966 652.31 22.966C652.558 22.966 652.764 22.7606 652.764 22.5119C652.764 22.3821 652.71 22.2632 652.612 22.1767H652.591ZM651.391 23.5174C651.477 23.6039 651.542 23.7229 651.542 23.8526C651.542 24.1013 651.337 24.3068 651.088 24.3068C650.969 24.3068 650.872 24.2635 650.785 24.1878C650.666 24.0797 650.515 24.0256 650.353 24.0256C650.191 24.0256 650.039 24.0905 649.92 24.1878C649.845 24.2635 649.737 24.3068 649.618 24.3068C649.369 24.3068 649.163 24.1013 649.163 23.8526C649.163 23.7229 649.218 23.6039 649.315 23.5174C649.585 23.2687 649.953 23.1282 650.353 23.1282C650.753 23.1282 651.11 23.2796 651.391 23.5174Z" fill="#A6A6A6"/>
<path fill-rule="evenodd" clip-rule="evenodd" d="M630.881 20.9332V23.7445H631.713H632.21C632.394 23.7445 632.546 23.5931 632.546 23.4093V22.0361C632.329 21.8956 632.189 21.6469 632.189 21.3657C632.189 20.9224 632.556 20.5548 633 20.5548C633.443 20.5548 633.811 20.9224 633.811 21.3657C633.811 21.6469 633.67 21.8956 633.454 22.0361V23.4093C633.454 24.0797 632.902 24.642 632.221 24.642H630.891V25.6475C631.108 25.7881 631.248 26.0368 631.248 26.3179C631.248 26.7612 630.881 27.1288 630.437 27.1288C629.994 27.1288 629.626 26.7612 629.626 26.3179C629.626 26.0368 629.767 25.7881 629.983 25.6475V25.3448H628.653C627.983 25.3448 627.421 24.7933 627.421 24.1121V23.0849C627.205 22.9444 627.064 22.6957 627.064 22.4146C627.064 21.9712 627.432 21.6036 627.875 21.6036C628.318 21.6036 628.686 21.9712 628.686 22.4146C628.686 22.6957 628.545 22.9444 628.329 23.0849V24.1121C628.329 24.2959 628.48 24.4473 628.664 24.4473H629.161H629.994V20.9332C629.778 20.7927 629.637 20.544 629.637 20.2628C629.637 19.8195 630.005 19.4519 630.448 19.4519C630.891 19.4519 631.259 19.8195 631.259 20.2628C631.259 20.544 631.118 20.7927 630.902 20.9332H630.881Z" fill="#A6A6A6"/>
<path fill-rule="evenodd" clip-rule="evenodd" d="M688.67 24.0473C689.07 24.0473 689.394 24.3716 689.394 24.7717C689.394 25.1718 689.07 25.4962 688.67 25.4962C688.27 25.4962 687.945 25.1718 687.945 24.7717C687.945 24.3716 688.27 24.0473 688.67 24.0473ZM688.67 18.9437C688.032 18.9437 687.448 19.2032 687.026 19.6249C686.605 20.0466 686.345 20.6305 686.345 21.2684V21.9064C686.043 21.928 685.762 22.0686 685.556 22.274C685.329 22.5011 685.188 22.8146 685.188 23.1498V26.3936C685.188 26.7396 685.329 27.0532 685.556 27.2694C685.783 27.4857 686.097 27.6371 686.432 27.6371H690.897C691.243 27.6371 691.546 27.4965 691.773 27.2694C692 27.0424 692.14 26.7288 692.14 26.3936V23.1498C692.14 22.8038 692 22.4903 691.773 22.274C691.567 22.0686 691.297 21.9388 690.984 21.9064V21.2684C690.984 20.6305 690.724 20.0466 690.302 19.6249C689.881 19.2032 689.297 18.9437 688.659 18.9437H688.67ZM690.097 21.9064H687.243V21.2684C687.243 20.8792 687.405 20.5224 687.664 20.2629C687.924 20.0034 688.281 19.8412 688.67 19.8412C689.059 19.8412 689.416 20.0034 689.675 20.2629C689.935 20.5224 690.097 20.8792 690.097 21.2684V21.9064ZM690.897 22.8038H686.432C686.335 22.8038 686.248 22.8471 686.183 22.9119C686.118 22.9768 686.075 23.0633 686.075 23.1606V26.4044C686.075 26.5017 686.118 26.5882 686.183 26.6531C686.248 26.718 686.335 26.7612 686.432 26.7612H690.897C690.994 26.7612 691.081 26.718 691.146 26.6639C691.211 26.599 691.254 26.5125 691.254 26.4152V23.1715C691.254 23.0741 691.211 22.9876 691.146 22.9228C691.081 22.8579 690.994 22.8146 690.897 22.8146V22.8038Z" fill="#A6A6A6"/>
<path fill-rule="evenodd" clip-rule="evenodd" d="M708.585 24.0472C708.985 24.0472 709.31 24.3716 709.31 24.7716C709.31 25.1717 708.985 25.4961 708.585 25.4961C708.185 25.4961 707.861 25.1717 707.861 24.7716C707.861 24.3716 708.185 24.0472 708.585 24.0472ZM707.666 20.1871C707.915 19.9709 708.239 19.8519 708.585 19.8519C708.975 19.8519 709.331 20.0141 709.591 20.2736C709.85 20.5331 710.013 20.8899 710.013 21.2792V21.9171H706.358C706.012 21.9171 705.699 22.0577 705.482 22.2847C705.255 22.5118 705.115 22.8254 705.115 23.1606V26.4043C705.115 26.7503 705.255 27.0639 705.482 27.2802C705.709 27.4964 706.023 27.6478 706.358 27.6478H710.823C711.169 27.6478 711.472 27.5072 711.699 27.2802C711.926 27.0531 712.067 26.7395 712.067 26.4043V23.1606C712.067 22.8146 711.926 22.501 711.699 22.2847C711.494 22.0793 711.223 21.9496 710.91 21.9171V21.2792C710.91 20.6412 710.65 20.0574 710.229 19.6357C709.807 19.214 709.223 18.9545 708.585 18.9545C708.012 18.9545 707.493 19.1599 707.093 19.5059C706.996 19.5924 706.942 19.7113 706.942 19.8519C706.942 20.1006 707.147 20.306 707.396 20.306C707.515 20.306 707.623 20.2628 707.699 20.1871H707.666ZM710.813 22.8038H706.347C706.25 22.8038 706.164 22.847 706.099 22.9119C706.034 22.9768 705.991 23.0633 705.991 23.1606V26.4043C705.991 26.5017 706.034 26.5882 706.099 26.653C706.164 26.7179 706.25 26.7612 706.347 26.7612H710.813C710.91 26.7612 710.996 26.7179 711.061 26.6638C711.126 26.599 711.169 26.5125 711.169 26.4152V23.1714C711.169 23.0741 711.126 22.9876 711.061 22.9227C710.996 22.8578 710.91 22.8146 710.813 22.8146V22.8038Z" fill="#A6A6A6"/>
<path fill-rule="evenodd" clip-rule="evenodd" d="M793.631 25.2798C793.631 25.1501 793.674 25.0419 793.761 24.9554C793.847 24.8689 793.955 24.8257 794.085 24.8257H796.756C796.756 24.8257 796.81 24.8257 796.842 24.8257H796.885C797.21 24.8257 797.469 24.9122 797.685 25.0527C797.891 25.1933 798.042 25.3447 798.14 25.5285C798.237 25.7015 798.28 25.8853 798.28 26.0691C798.28 26.2529 798.237 26.4368 798.15 26.6098C798.064 26.7828 797.913 26.945 797.696 27.0855C797.491 27.2261 797.221 27.3018 796.896 27.3126H794.928C794.842 27.3126 794.766 27.3342 794.712 27.3775C794.658 27.4099 794.615 27.464 794.582 27.518C794.561 27.5721 794.539 27.6153 794.539 27.6478V27.7883C794.539 27.8532 794.55 27.8965 794.582 27.9289C794.615 27.9613 794.669 27.9722 794.756 27.9722H797.772C797.902 27.9722 798.01 28.0154 798.096 28.1127C798.194 28.1992 798.237 28.3073 798.237 28.4371C798.237 28.5668 798.194 28.675 798.096 28.7615C797.999 28.848 797.902 28.902 797.772 28.902H794.377C794.118 28.902 793.923 28.8372 793.782 28.7074C793.642 28.5777 793.577 28.4047 793.566 28.1668V27.6478C793.566 27.464 793.609 27.2693 793.696 27.0855C793.782 26.9017 793.934 26.7395 794.15 26.599C794.355 26.4584 794.626 26.3827 794.95 26.3719H796.918C797.004 26.3719 797.08 26.3503 797.134 26.3178C797.188 26.2854 797.231 26.2421 797.264 26.1989C797.296 26.1556 797.307 26.1124 797.307 26.0691C797.307 26.0259 797.296 25.9826 797.264 25.9394C797.231 25.8961 797.199 25.8529 797.134 25.8204C797.08 25.788 797.004 25.7664 796.918 25.7664H794.085C793.955 25.7664 793.847 25.7231 793.761 25.6258C793.663 25.5393 793.62 25.4312 793.62 25.3014L793.631 25.2798Z" fill="#A6A6A6"/>
<path fill-rule="evenodd" clip-rule="evenodd" d="M794.366 17.7002H797.502C799.091 17.7002 800.399 19.0085 800.399 20.598C800.399 22.1982 799.091 23.4957 797.502 23.4957H794.366C792.777 23.4957 791.469 22.1874 791.469 20.598C791.469 18.9977 792.777 17.7002 794.366 17.7002ZM794.366 18.5868C793.264 18.5868 792.355 19.4951 792.355 20.598C792.355 21.7009 793.264 22.6091 794.366 22.6091H797.502C798.605 22.6091 799.513 21.7009 799.513 20.598C799.513 19.4951 798.605 18.5868 797.502 18.5868H794.366Z" fill="#A6A6A6"/>
<path d="M795.675 20.1547H793.199V21.0413H795.675V20.1547Z" fill="#A6A6A6"/>
<path d="M794.875 19.3654H793.988V21.8414H794.875V19.3654Z" fill="#A6A6A6"/>
<path fill-rule="evenodd" clip-rule="evenodd" d="M797.221 21.8414C797.513 21.8414 797.75 21.6035 797.75 21.3116C797.75 21.0196 797.513 20.7817 797.221 20.7817C796.929 20.7817 796.691 21.0196 796.691 21.3116C796.691 21.6035 796.929 21.8414 797.221 21.8414Z" fill="#A6A6A6"/>
<path fill-rule="evenodd" clip-rule="evenodd" d="M798.14 20.4141C798.432 20.4141 798.669 20.1762 798.669 19.8843C798.669 19.5924 798.432 19.3545 798.14 19.3545C797.848 19.3545 797.61 19.5924 797.61 19.8843C797.61 20.1762 797.848 20.4141 798.14 20.4141Z" fill="#A6A6A6"/>
<path fill-rule="evenodd" clip-rule="evenodd" d="M774.451 17.6461H777.586C779.176 17.6461 780.484 18.9544 780.484 20.5439C780.484 22.1442 779.176 23.4417 777.586 23.4417H774.451C772.861 23.4417 771.553 22.1333 771.553 20.5439C771.553 18.9436 772.861 17.6461 774.451 17.6461ZM774.451 18.5328C773.348 18.5328 772.44 19.441 772.44 20.5439C772.44 21.6468 773.348 22.555 774.451 22.555H777.586C778.689 22.555 779.597 21.6468 779.597 20.5439C779.597 19.441 778.689 18.5328 777.586 18.5328H774.451Z" fill="#A6A6A6"/>
<path d="M775.759 20.1006H773.283V20.9872H775.759V20.1006Z" fill="#A6A6A6"/>
<path d="M774.959 19.3113H774.072V21.7874H774.959V19.3113Z" fill="#A6A6A6"/>
<path fill-rule="evenodd" clip-rule="evenodd" d="M777.294 21.7766C777.586 21.7766 777.824 21.5387 777.824 21.2467C777.824 20.9548 777.586 20.7169 777.294 20.7169C777.002 20.7169 776.764 20.9548 776.764 21.2467C776.764 21.5387 777.002 21.7766 777.294 21.7766Z" fill="#A6A6A6"/>
<path fill-rule="evenodd" clip-rule="evenodd" d="M778.213 20.36C778.505 20.36 778.743 20.1222 778.743 19.8302C778.743 19.5383 778.505 19.3004 778.213 19.3004C777.921 19.3004 777.683 19.5383 777.683 19.8302C777.683 20.1222 777.921 20.36 778.213 20.36Z" fill="#A6A6A6"/>
<path fill-rule="evenodd" clip-rule="evenodd" d="M774.937 26.5017C774.862 26.4044 774.829 26.2854 774.84 26.1665C774.862 26.0367 774.916 25.9394 775.013 25.8529L776.375 24.7933C776.473 24.696 776.591 24.6527 776.721 24.6527C776.84 24.6527 776.948 24.7068 777.035 24.7933C777.121 24.8798 777.164 24.9879 777.175 25.1068V28.502C777.143 28.7831 776.992 28.9345 776.721 28.9561C776.591 28.9561 776.483 28.9129 776.386 28.8264C776.289 28.7399 776.246 28.6317 776.246 28.502V26.08L775.575 26.5882C775.478 26.6639 775.359 26.6963 775.24 26.6747C775.11 26.6639 775.002 26.599 774.926 26.5017H774.937Z" fill="#A6A6A6"/>
<path fill-rule="evenodd" clip-rule="evenodd" d="M756.092 28.5884C757.487 28.5884 758.752 28.0478 759.693 27.172C759.768 27.0963 759.876 27.0531 759.995 27.0531C760.244 27.0531 760.449 27.2585 760.449 27.5072C760.449 27.6369 760.395 27.7559 760.309 27.8316V27.8424C759.206 28.8696 757.725 29.4967 756.103 29.4967C754.481 29.4967 753 28.8696 751.897 27.8424C751.8 27.7559 751.735 27.6369 751.735 27.4964C751.735 27.2477 751.941 27.0422 752.189 27.0422C752.319 27.0422 752.427 27.0963 752.514 27.1828C753.454 28.0586 754.719 28.5884 756.103 28.5884H756.092ZM752.481 19.4302C752.405 19.5059 752.297 19.5491 752.178 19.5491C751.93 19.5491 751.724 19.3437 751.724 19.095C751.724 18.9544 751.789 18.8355 751.886 18.749C752.989 17.7218 754.471 17.1055 756.092 17.1055C757.714 17.1055 759.195 17.7326 760.298 18.749C760.395 18.8355 760.46 18.9544 760.46 19.095C760.46 19.3437 760.255 19.5491 760.006 19.5491C759.876 19.5491 759.768 19.4951 759.682 19.4194C758.741 18.5435 757.476 18.0137 756.081 18.0137C754.687 18.0137 753.422 18.5544 752.481 19.4302ZM752.665 24.977C752.46 24.6635 752.243 24.2526 752.038 23.7336L751.281 21.7873C751.281 21.7873 751.249 21.6792 751.238 21.6251C751.238 21.4954 751.27 21.3873 751.346 21.3008C751.432 21.2143 751.54 21.1602 751.67 21.1602C751.811 21.1602 751.919 21.1926 751.984 21.2575C752.059 21.3224 752.114 21.3981 752.157 21.4954L752.806 23.2795C752.881 23.4633 752.946 23.6471 753.022 23.8093C753.087 23.9715 753.173 24.1228 753.26 24.2634C753.346 24.404 753.443 24.4688 753.551 24.4797C753.66 24.4797 753.746 24.3932 753.833 24.2634C753.919 24.1228 754.006 23.9715 754.081 23.8093C754.157 23.6471 754.222 23.4633 754.297 23.2795L754.935 21.4954C754.979 21.3981 755.044 21.3224 755.108 21.2575C755.173 21.1926 755.292 21.1602 755.444 21.1602C755.573 21.1602 755.681 21.2034 755.768 21.3008C755.854 21.3873 755.887 21.5062 755.876 21.6251C755.876 21.69 755.854 21.7441 755.833 21.7873L755.076 23.7336C754.871 24.2526 754.654 24.6743 754.449 24.977C754.243 25.2798 753.941 25.442 753.551 25.442C753.151 25.442 752.849 25.2798 752.643 24.9662L752.665 24.977ZM760.828 21.7549C760.828 21.8846 760.785 21.9928 760.687 22.0793C760.601 22.1658 760.493 22.2198 760.363 22.2198H757.617C757.53 22.2198 757.455 22.2415 757.401 22.2739C757.346 22.3063 757.303 22.3496 757.271 22.3928C757.238 22.4361 757.228 22.4793 757.228 22.5226C757.228 22.5658 757.238 22.6091 757.271 22.6523C757.292 22.6956 757.336 22.7388 757.401 22.7713C757.455 22.8037 757.53 22.8253 757.617 22.8253H759.563C759.887 22.8253 760.147 22.9118 760.352 23.0524C760.558 23.193 760.709 23.3552 760.795 23.5282C760.882 23.712 760.925 23.8958 760.925 24.0796C760.925 24.2634 760.882 24.4472 760.785 24.6202C760.698 24.804 760.547 24.9554 760.341 25.096C760.136 25.2365 759.876 25.3014 759.552 25.3014H759.509C759.509 25.3014 759.455 25.3014 759.422 25.3014H756.827C756.698 25.3014 756.59 25.2582 756.503 25.1717C756.417 25.0852 756.373 24.977 756.373 24.8473C756.373 24.7175 756.417 24.6094 756.514 24.5229C756.6 24.4256 756.709 24.3823 756.838 24.3823H759.595C759.682 24.3823 759.758 24.3823 759.812 24.3391C759.866 24.3067 759.909 24.2634 759.941 24.2093C759.974 24.1661 759.985 24.112 759.985 24.058C759.985 24.0255 759.974 23.9823 759.941 23.9282C759.92 23.8742 759.876 23.8201 759.812 23.7877C759.758 23.7552 759.682 23.7336 759.595 23.7228H757.649C757.325 23.7228 757.065 23.6363 756.86 23.5065C756.655 23.366 756.503 23.2146 756.417 23.0416C756.33 22.8686 756.287 22.6848 756.287 22.501C756.287 22.3171 756.33 22.1441 756.427 21.9711C756.514 21.7981 756.665 21.6359 756.871 21.5062C757.076 21.3656 757.336 21.3008 757.66 21.2899H757.703C757.703 21.2899 757.757 21.2899 757.79 21.2899H760.363C760.493 21.2899 760.601 21.3332 760.687 21.4197C760.774 21.5062 760.817 21.6143 760.817 21.7441L760.828 21.7549Z" fill="#A6A6A6"/>
<path fill-rule="evenodd" clip-rule="evenodd" d="M802.832 93.7452L870.579 150.598V293.313L841.409 310.159V334.888L690.584 421.972V425.508L841.409 338.423V338.488L844.468 336.715V336.65L847.528 334.877V334.942L850.588 333.169V333.104L853.647 331.33V331.395L856.707 329.622V329.557L859.767 327.784V327.849L862.827 326.075V301.282L873.617 295.054V149.171L803.913 90.6852H794.377L768.807 69.233H661.457L665.111 72.293H720.013L745.583 93.7452H802.8H802.832ZM844.479 333.125V311.933L847.539 310.159V331.352L844.479 333.125ZM850.609 329.59V308.397L853.669 306.624V327.816L850.609 329.59ZM856.74 326.054V304.861L859.799 303.088V324.281L856.74 326.054ZM382.62 70.9306L377.689 79.4618C377.149 80.4025 376.316 80.5106 375.851 79.6888L370.792 70.9198C370.251 69.9791 370.575 69.2114 371.516 69.2114H381.895C382.836 69.2114 383.16 69.9791 382.62 70.9198V70.9306ZM364.629 70.3143L373.17 85.1059C373.3 85.333 373.538 85.4736 373.797 85.4736C374.057 85.4736 374.295 85.3438 374.424 85.1059L375.041 84.0463C375.17 83.8192 375.17 83.5489 375.041 83.3219L367.115 69.5899C366.986 69.3628 366.748 69.2222 366.488 69.2222H365.267C364.996 69.2222 364.769 69.352 364.64 69.5899C364.51 69.8169 364.51 70.0872 364.64 70.3143H364.629ZM397.14 69.2222H399.735C400.037 69.2222 400.286 69.3736 400.438 69.6331C400.589 69.8926 400.589 70.1846 400.438 70.4441L397.799 75.0178C397.648 75.2773 397.648 75.5692 397.799 75.8287C397.951 76.0882 398.199 76.2396 398.502 76.2396H409.228C409.53 76.2396 409.779 76.0882 409.93 75.8287L413.509 69.6331C413.66 69.3736 413.909 69.2222 414.212 69.2222H416.807C417.109 69.2222 417.358 69.3736 417.509 69.6331C417.661 69.8926 417.661 70.1846 417.509 70.4441L409.065 85.0735C408.914 85.333 408.665 85.4844 408.363 85.4844H405.768C405.465 85.4844 405.216 85.333 405.065 85.0735C404.914 84.814 404.914 84.5221 405.065 84.2626L406.752 81.3323C406.903 81.0728 406.903 80.7809 406.752 80.5214C406.6 80.2619 406.341 80.1105 406.049 80.1105H395.324C395.021 80.1105 394.772 80.2619 394.621 80.5214L391.993 85.0735C391.842 85.333 391.593 85.4844 391.291 85.4844H388.696C388.393 85.4844 388.144 85.333 387.993 85.0735C387.842 84.814 387.842 84.5221 387.993 84.2626L396.437 69.6331C396.589 69.3736 396.837 69.2222 397.14 69.2222ZM533.174 73.504L534.937 76.564C535.088 76.8235 535.088 77.1154 534.937 77.3749L532.731 81.1918C532.58 81.4513 532.32 81.6027 532.028 81.6027H521.303C521 81.6027 520.752 81.4513 520.6 81.1918C520.449 80.9323 520.449 80.6403 520.6 80.3808L524.568 73.504C524.719 73.2445 524.979 73.0931 525.271 73.0931H532.461C532.763 73.0931 533.012 73.2445 533.163 73.504H533.174ZM539.413 76.564L535.412 69.6331C535.261 69.3736 535.012 69.2222 534.71 69.2222H523.044C522.741 69.2222 522.492 69.3736 522.341 69.6331L513.897 84.2626C513.745 84.5221 513.745 84.814 513.897 85.0735C514.048 85.333 514.297 85.4844 514.6 85.4844H534.266C534.569 85.4844 534.818 85.333 534.969 85.0735L539.413 77.3857C539.564 77.1262 539.564 76.8343 539.413 76.5748V76.564ZM494.263 76.2396H504.988C505.291 76.2396 505.539 76.0882 505.691 75.8287L506.566 74.315C506.718 74.0555 506.718 73.7635 506.566 73.504C506.415 73.2445 506.166 73.0931 505.864 73.0931H495.138C494.836 73.0931 494.587 73.2445 494.436 73.504L493.56 75.0178C493.408 75.2773 493.408 75.5692 493.56 75.8287C493.711 76.0882 493.96 76.2396 494.263 76.2396ZM501.809 80.1105H491.084C490.781 80.1105 490.532 80.2619 490.381 80.5214L487.754 85.0735C487.602 85.333 487.354 85.4844 487.051 85.4844H484.456C484.153 85.4844 483.905 85.333 483.753 85.0735C483.602 84.814 483.602 84.5221 483.753 84.2626L492.197 69.6331C492.349 69.3736 492.598 69.2222 492.9 69.2222H512.567C512.87 69.2222 513.118 69.3736 513.27 69.6331C513.421 69.8926 513.421 70.1846 513.27 70.4441L504.826 85.0735C504.674 85.333 504.426 85.4844 504.123 85.4844H501.528C501.225 85.4844 500.977 85.333 500.825 85.0735C500.674 84.814 500.674 84.5221 500.825 84.2626L502.512 81.3323C502.663 81.0728 502.663 80.7809 502.512 80.5214C502.361 80.2619 502.112 80.1105 501.809 80.1105ZM464.108 76.2396H474.834C475.136 76.2396 475.385 76.0882 475.536 75.8287L476.412 74.315C476.564 74.0555 476.564 73.7635 476.412 73.504C476.261 73.2445 476.001 73.0931 475.709 73.0931H464.984C464.681 73.0931 464.433 73.2445 464.281 73.504L463.406 75.0178C463.254 75.2773 463.254 75.5692 463.406 75.8287C463.557 76.0882 463.806 76.2396 464.108 76.2396ZM460.227 80.5214L457.6 85.0735C457.448 85.333 457.2 85.4844 456.897 85.4844H454.302C453.999 85.4844 453.751 85.333 453.599 85.0735C453.448 84.814 453.448 84.5221 453.599 84.2626L462.043 69.6331C462.195 69.3736 462.454 69.2222 462.746 69.2222L482.391 69.2547C482.694 69.2547 482.943 69.4061 483.094 69.6656C483.245 69.9251 483.245 70.217 483.094 70.4765L477.764 79.6996C477.612 79.9591 477.364 80.1105 477.061 80.1105H460.93C460.627 80.1105 460.378 80.2619 460.227 80.5214ZM438.344 71.8821L439.641 69.6331C439.793 69.3736 440.041 69.2222 440.344 69.2222H452.269C452.572 69.2222 452.821 69.3736 452.972 69.6331C453.124 69.8926 453.124 70.1846 452.972 70.4441L451.675 72.6931C451.523 72.9526 451.275 73.104 450.972 73.104H447.599C447.296 73.104 447.047 73.2553 446.896 73.5148L440.214 85.0843C440.063 85.3438 439.814 85.4952 439.511 85.4952H436.917C436.614 85.4952 436.365 85.3438 436.214 85.0843C436.062 84.8248 436.062 84.5329 436.214 84.2734L441.955 74.3366C442.106 74.0771 442.106 73.7852 441.955 73.5256C441.804 73.2661 441.544 73.1148 441.252 73.1148H439.047C438.744 73.1148 438.495 72.9634 438.344 72.7039C438.192 72.4444 438.192 72.1524 438.344 71.8929V71.8821ZM427.272 69.2222H429.867C430.17 69.2222 430.419 69.3736 430.57 69.6331C430.721 69.8926 430.721 70.1846 430.57 70.4441L422.126 85.0735C421.975 85.333 421.726 85.4844 421.423 85.4844H418.828C418.526 85.4844 418.277 85.333 418.126 85.0735C417.974 84.814 417.974 84.5221 418.126 84.2626L426.57 69.6331C426.721 69.3736 426.97 69.2222 427.272 69.2222ZM107.405 295.087L118.195 301.315V326.108L121.255 327.881V327.816L124.314 329.59V329.654L127.374 331.428V331.363L130.434 333.136V333.201L133.494 334.974V334.909L136.553 336.683V336.748L139.613 338.521V338.456L290.438 425.541V422.005L139.613 334.92V310.192L136.553 308.418L133.494 306.645L130.434 304.872L127.374 303.099L124.314 301.325L121.255 299.552L118.195 297.779L110.475 293.324V150.598L178.222 93.7452H206.83L232.4 72.293L236.055 69.233H212.214L186.645 90.6852H177.108L107.405 149.171V295.087ZM121.255 303.088L124.314 304.861V326.054L121.255 324.281V303.088ZM127.385 306.624L130.445 308.397V329.59L127.385 327.816V306.624ZM133.515 310.159L136.575 311.933V333.125L133.515 331.352V310.159ZM227.621 72.293L205.706 90.6852H200.938L222.853 72.293H227.621ZM218.085 72.293L196.17 90.6852H191.402L213.317 72.293H218.085ZM767.726 72.293L789.642 90.6852H784.874L762.958 72.293H767.726ZM758.19 72.293L780.106 90.6852H775.338L753.422 72.293H758.19ZM748.654 72.293L770.569 90.6852H765.801L743.886 72.293H748.654ZM739.118 72.293L761.034 90.6852H756.265L734.35 72.293H739.118ZM729.582 72.293L751.497 90.6852H746.729L724.814 72.293H729.582Z" fill="#7615E6"/>
<path fill-rule="evenodd" clip-rule="evenodd" d="M631.508 463.168L591.417 486.318L582.249 481.02L534.418 508.635L534.32 508.7C533.617 509.089 532.882 509.436 532.115 509.727C531.185 510.084 530.385 510.333 529.714 510.484C528.99 510.646 528.168 510.755 527.26 510.819C526.438 510.874 525.541 510.863 524.579 510.787C522.589 510.625 519.886 510.441 516.492 510.246C514.286 510.117 511.399 509.987 507.853 509.846C505.15 509.738 502.198 509.652 498.987 509.587C494.252 509.49 491.441 509.446 490.532 509.446C489.624 509.446 486.813 509.49 482.078 509.587C478.877 509.652 475.915 509.738 473.212 509.846C469.666 509.987 466.79 510.117 464.573 510.246C461.178 510.441 458.475 510.625 456.486 510.787C455.524 510.863 454.626 510.874 453.805 510.819C452.886 510.755 452.064 510.646 451.35 510.484C450.496 510.29 449.653 510.041 448.853 509.717C448.399 509.544 447.955 509.349 447.545 509.144L398.145 480.62L388.977 485.918L349.557 463.158L115.146 327.805V317.231L106.659 312.333C105.35 311.576 104.172 310.678 103.145 309.662C102.161 308.689 101.285 307.553 100.539 306.288C100.474 306.159 100.518 306.224 100.442 306.094C99.7391 304.883 99.1876 303.52 98.7984 302.061C98.4416 300.698 98.247 299.228 98.247 297.671V289.031L89.057 283.722V168.59L98.247 160.87V147.624C98.247 146.197 98.366 144.964 98.593 143.948C98.82 142.91 99.2417 141.753 99.8255 140.488C100.388 139.299 101.015 138.228 101.728 137.298C102.442 136.368 103.275 135.503 104.226 134.703L170.275 79.2779C171.086 78.5967 171.908 78.0237 172.73 77.5479C173.595 77.0505 174.47 76.6288 175.346 76.3153C176.146 76.0233 177.098 75.7855 178.179 75.5908C179.109 75.4286 180.103 75.3421 181.163 75.3421H200.192L211.144 66.1514H769.953L780.905 75.3421H799.934C800.983 75.3421 801.989 75.4286 802.918 75.5908C804 75.7746 804.951 76.0233 805.751 76.3153C806.627 76.6288 807.503 77.0505 808.368 77.5479C809.189 78.0237 810.011 78.6075 810.822 79.2779L876.871 134.703C877.823 135.503 878.655 136.379 879.369 137.298C880.072 138.217 880.709 139.288 881.272 140.488C881.866 141.753 882.277 142.921 882.504 143.948C882.731 144.964 882.85 146.197 882.85 147.624V160.87L892.04 168.59V283.722L882.85 289.031V297.671C882.85 299.228 882.656 300.709 882.299 302.061C881.91 303.531 881.347 304.883 880.655 306.094C880.58 306.224 880.623 306.148 880.558 306.288C879.812 307.543 878.936 308.678 877.952 309.651C876.925 310.657 875.758 311.565 874.439 312.322L865.951 317.22V327.795L631.54 463.147L631.508 463.168ZM879.412 170.828C879.412 171.034 879.477 171.217 879.617 171.369C879.758 171.52 879.931 171.596 880.136 171.607H882.774C883.077 171.607 883.358 171.617 883.618 171.672C883.877 171.715 884.104 171.834 884.299 172.018C884.494 172.201 884.602 172.439 884.623 172.72V176.635C884.623 176.84 884.71 177.013 884.861 177.154C885.013 177.294 885.186 177.359 885.391 177.359C885.586 177.359 885.759 177.283 885.899 177.143C886.04 177.002 886.105 176.84 886.115 176.635V172.342C886.083 171.823 885.91 171.39 885.586 171.055C885.261 170.72 884.872 170.471 884.396 170.331C883.931 170.19 883.434 170.115 882.904 170.104H880.136C879.942 170.104 879.769 170.19 879.628 170.331C879.488 170.471 879.423 170.644 879.412 170.839V170.828ZM882.342 172.115C882.137 172.115 881.964 172.191 881.812 172.331C881.672 172.483 881.596 172.655 881.596 172.861V176.624C881.596 176.829 881.661 177.013 881.801 177.154C881.953 177.294 882.126 177.37 882.331 177.37C882.537 177.37 882.72 177.294 882.861 177.154C883.002 177.002 883.077 176.829 883.077 176.624V172.861C883.077 172.655 883.002 172.483 882.85 172.342C882.71 172.191 882.537 172.115 882.331 172.115H882.342ZM886.115 185.49V181.608C886.094 181.089 885.899 180.657 885.532 180.311C885.164 179.965 884.742 179.716 884.277 179.576C883.812 179.435 883.326 179.348 882.839 179.348C882.353 179.348 881.866 179.424 881.391 179.565C880.915 179.705 880.493 179.954 880.136 180.3C879.769 180.646 879.585 181.079 879.563 181.598V185.479C879.596 185.998 879.79 186.431 880.147 186.777C880.515 187.123 880.926 187.371 881.401 187.523C881.877 187.674 882.353 187.75 882.839 187.75C883.207 187.75 883.575 187.707 883.931 187.62C884.288 187.534 884.623 187.393 884.948 187.209C885.272 187.025 885.542 186.788 885.769 186.496C885.996 186.204 886.115 185.858 886.126 185.479L886.115 185.49ZM881.045 185.112C881.055 185.393 881.164 185.631 881.358 185.814C881.553 185.998 881.78 186.139 882.039 186.225C882.299 186.312 882.558 186.344 882.829 186.344C883.099 186.344 883.358 186.301 883.618 186.215C883.877 186.128 884.104 185.987 884.299 185.804C884.494 185.62 884.602 185.382 884.623 185.101V181.944C884.613 181.662 884.504 181.425 884.299 181.241C884.094 181.057 883.866 180.916 883.618 180.83C883.358 180.743 883.099 180.7 882.829 180.7C882.558 180.7 882.299 180.743 882.039 180.819C881.78 180.906 881.553 181.035 881.358 181.23C881.164 181.425 881.055 181.652 881.045 181.933V185.09V185.112ZM880.126 191.61H884.342C884.526 191.61 884.623 191.707 884.634 191.902V195.805C884.634 195.946 884.591 196.065 884.537 196.151C884.483 196.249 884.418 196.313 884.342 196.357C884.277 196.4 884.202 196.422 884.126 196.422C884.05 196.422 883.985 196.4 883.91 196.357C883.845 196.313 883.78 196.249 883.715 196.151C883.661 196.054 883.629 195.946 883.618 195.805V192.864C883.618 192.659 883.542 192.486 883.402 192.334C883.261 192.183 883.077 192.118 882.872 192.118C882.785 192.118 882.418 192.183 881.747 192.313C881.153 192.41 880.623 192.68 880.19 193.124C879.747 193.567 879.542 194.064 879.542 194.616V197.222C879.542 197.427 879.617 197.589 879.758 197.73C879.899 197.87 880.061 197.935 880.266 197.946C880.472 197.946 880.655 197.881 880.796 197.741C880.947 197.6 881.023 197.427 881.034 197.222V194.821C881.034 194.551 881.12 194.324 881.304 194.14C881.477 193.956 881.758 193.837 882.126 193.773V195.73C882.137 196.249 882.255 196.681 882.482 197.016C882.71 197.351 882.958 197.589 883.239 197.741C883.521 197.881 883.812 197.957 884.115 197.957C884.418 197.957 884.688 197.881 884.98 197.73C885.261 197.579 885.521 197.341 885.737 197.005C885.964 196.67 886.083 196.249 886.094 195.73V195.665C886.094 195.665 886.105 195.578 886.105 195.535V190.875C886.105 190.669 886.04 190.485 885.899 190.345C885.759 190.194 885.586 190.118 885.38 190.107H880.115C879.909 190.107 879.736 190.183 879.596 190.334C879.455 190.485 879.39 190.669 879.39 190.875C879.423 191.318 879.671 191.567 880.115 191.61H880.126ZM879.423 205.623C879.423 205.829 879.488 206.012 879.628 206.164C879.769 206.315 879.942 206.391 880.147 206.402H882.785C883.088 206.402 883.369 206.412 883.629 206.466C883.888 206.51 884.115 206.629 884.31 206.813C884.504 206.996 884.613 207.234 884.634 207.515V211.429C884.634 211.635 884.721 211.808 884.872 211.948C885.023 212.089 885.196 212.154 885.402 212.154C885.596 212.154 885.769 212.078 885.91 211.938C886.05 211.797 886.115 211.635 886.126 211.429V207.137C886.094 206.618 885.921 206.185 885.596 205.85C885.272 205.515 884.883 205.266 884.407 205.126C883.942 204.985 883.445 204.909 882.915 204.899H880.147C879.953 204.899 879.78 204.985 879.639 205.126C879.499 205.266 879.434 205.439 879.423 205.634V205.623ZM882.353 206.91C882.147 206.91 881.974 206.985 881.823 207.126C881.682 207.277 881.607 207.45 881.607 207.656V211.419C881.607 211.624 881.672 211.808 881.812 211.948C881.964 212.089 882.137 212.165 882.342 212.165C882.547 212.165 882.731 212.089 882.872 211.948C883.012 211.797 883.088 211.624 883.088 211.419V207.656C883.088 207.45 883.012 207.277 882.861 207.137C882.72 206.986 882.547 206.91 882.342 206.91H882.353ZM880.309 214.079C880.104 214.079 879.931 214.154 879.79 214.306C879.639 214.446 879.563 214.619 879.563 214.825V220.588C879.563 220.793 879.639 220.966 879.78 221.118C879.92 221.269 880.104 221.334 880.309 221.334C880.515 221.334 880.699 221.269 880.85 221.128C880.991 220.977 881.055 220.804 881.055 220.599V218.479H884.634V220.599C884.634 220.804 884.71 220.977 884.85 221.128C884.991 221.269 885.175 221.345 885.38 221.345C885.586 221.345 885.769 221.28 885.91 221.139C886.05 220.988 886.126 220.815 886.126 220.609V214.846C886.126 214.641 886.05 214.468 885.91 214.316C885.759 214.176 885.586 214.1 885.38 214.1C885.175 214.1 885.002 214.176 884.861 214.327C884.71 214.468 884.634 214.641 884.634 214.846V216.987H881.055V214.846C881.055 214.641 880.98 214.468 880.839 214.316C880.688 214.176 880.515 214.1 880.309 214.1V214.079ZM886.126 225.735C886.094 225.216 885.899 224.794 885.532 224.459C885.164 224.123 884.753 223.886 884.277 223.734C883.812 223.583 883.337 223.507 882.839 223.507C882.342 223.507 881.877 223.583 881.401 223.723C880.936 223.864 880.515 224.113 880.147 224.448C879.78 224.783 879.585 225.216 879.553 225.735V230.47C879.553 230.676 879.639 230.838 879.78 230.979C879.909 231.108 880.082 231.184 880.277 231.184H882.904C883.11 231.184 883.272 231.108 883.412 230.979C883.553 230.827 883.618 230.654 883.618 230.449V226.643C883.618 226.437 883.553 226.254 883.412 226.113C883.261 225.972 883.088 225.908 882.883 225.908C882.677 225.908 882.504 225.983 882.353 226.124C882.212 226.275 882.137 226.448 882.137 226.654V229.497C882.137 229.627 882.061 229.703 881.91 229.703H881.261C881.12 229.703 881.045 229.627 881.034 229.497V226.113C881.045 225.832 881.153 225.594 881.358 225.41C881.553 225.226 881.78 225.086 882.039 224.999C882.299 224.913 882.558 224.87 882.829 224.87C883.099 224.87 883.358 224.913 883.618 224.999C883.877 225.086 884.104 225.226 884.299 225.41C884.494 225.594 884.602 225.832 884.623 226.113V230.427C884.656 230.871 884.904 231.108 885.348 231.152C885.553 231.152 885.737 231.087 885.877 230.946C886.029 230.806 886.105 230.633 886.115 230.427V225.735H886.126ZM886.299 234.482C886.299 234.276 886.234 234.093 886.094 233.952C885.953 233.801 885.78 233.725 885.575 233.714H880.126C879.92 233.714 879.747 233.79 879.607 233.941C879.466 234.093 879.401 234.276 879.401 234.482C879.434 234.925 879.682 235.174 880.126 235.217H882.223V238.829H880.126C879.92 238.829 879.747 238.904 879.607 239.056C879.466 239.207 879.401 239.391 879.401 239.596C879.434 240.04 879.682 240.288 880.126 240.332H885.575C885.769 240.332 885.942 240.256 886.083 240.104C886.223 239.964 886.288 239.791 886.299 239.596C886.299 239.391 886.234 239.207 886.094 239.066C885.953 238.915 885.78 238.839 885.575 238.829H883.715V235.217H885.575C885.769 235.217 885.942 235.131 886.083 234.99C886.223 234.85 886.288 234.677 886.299 234.482ZM885.38 242.645C885.175 242.645 885.002 242.721 884.861 242.873C884.71 243.013 884.634 243.186 884.634 243.392V245.878H880.126C879.92 245.878 879.747 245.954 879.607 246.105C879.466 246.257 879.401 246.441 879.401 246.646C879.434 247.089 879.682 247.338 880.126 247.381H884.634V249.857C884.634 250.063 884.71 250.236 884.85 250.387C884.991 250.528 885.175 250.604 885.38 250.604C885.586 250.604 885.769 250.539 885.91 250.398C886.05 250.247 886.126 250.074 886.126 249.868V243.392C886.126 243.186 886.05 243.013 885.91 242.862C885.759 242.721 885.586 242.645 885.38 242.645ZM886.126 254.983C886.094 254.464 885.899 254.042 885.532 253.707C885.164 253.372 884.753 253.134 884.277 252.982C883.812 252.831 883.337 252.755 882.839 252.755C882.342 252.755 881.877 252.831 881.401 252.971C880.936 253.112 880.515 253.361 880.147 253.696C879.78 254.031 879.585 254.464 879.553 254.983V259.275C879.553 259.47 879.628 259.643 879.769 259.783C879.909 259.924 880.072 259.989 880.277 260C880.482 260 880.666 259.935 880.807 259.794C880.958 259.654 881.034 259.481 881.045 259.275V255.361C881.055 255.08 881.164 254.842 881.369 254.658C881.564 254.474 881.791 254.334 882.05 254.247C882.31 254.161 882.569 254.118 882.839 254.118C883.11 254.118 883.369 254.161 883.629 254.247C883.888 254.334 884.115 254.474 884.31 254.658C884.504 254.842 884.613 255.08 884.634 255.361V259.275C884.667 259.719 884.915 259.956 885.358 260C885.564 260 885.748 259.935 885.888 259.794C886.04 259.654 886.115 259.481 886.126 259.275V254.983ZM882.893 259.978C883.099 259.978 883.272 259.902 883.423 259.762C883.564 259.61 883.639 259.437 883.639 259.232V255.869C883.639 255.664 883.574 255.48 883.434 255.339C883.283 255.199 883.11 255.123 882.904 255.123C882.699 255.123 882.526 255.199 882.374 255.339C882.234 255.48 882.158 255.664 882.158 255.869V259.232C882.158 259.437 882.234 259.61 882.385 259.751C882.526 259.902 882.699 259.978 882.904 259.978H882.893ZM880.136 263.752H884.353C884.537 263.752 884.634 263.849 884.645 264.044V267.947C884.645 268.087 884.602 268.206 884.548 268.293C884.494 268.39 884.429 268.455 884.353 268.498C884.288 268.542 884.212 268.563 884.137 268.563C884.061 268.563 883.996 268.542 883.921 268.498C883.856 268.455 883.791 268.39 883.726 268.293C883.672 268.196 883.639 268.087 883.629 267.947V265.006C883.629 264.8 883.553 264.627 883.412 264.476C883.272 264.336 883.088 264.26 882.883 264.26C882.796 264.26 882.429 264.325 881.758 264.454C881.164 264.552 880.634 264.822 880.201 265.265C879.758 265.709 879.553 266.206 879.553 266.758V269.363C879.553 269.569 879.628 269.731 879.769 269.872C879.909 270.012 880.072 270.077 880.277 270.088C880.482 270.088 880.666 270.023 880.807 269.882C880.958 269.742 881.034 269.569 881.045 269.363V266.963C881.045 266.693 881.131 266.466 881.315 266.282C881.488 266.098 881.769 265.979 882.137 265.914V267.871C882.147 268.39 882.266 268.823 882.493 269.158C882.72 269.493 882.969 269.731 883.25 269.882C883.531 270.023 883.823 270.099 884.126 270.099C884.429 270.099 884.699 270.023 884.991 269.872C885.272 269.72 885.531 269.482 885.748 269.147C885.975 268.812 886.094 268.39 886.105 267.871V267.806C886.105 267.806 886.115 267.72 886.115 267.677V263.016C886.115 262.811 886.05 262.627 885.91 262.487C885.769 262.335 885.596 262.259 885.391 262.249H880.126C879.92 262.249 879.747 262.324 879.607 262.476C879.466 262.627 879.401 262.811 879.401 263.016C879.434 263.46 879.682 263.708 880.126 263.752H880.136ZM885.38 279.635C885.586 279.635 885.759 279.56 885.91 279.419C886.05 279.279 886.126 279.095 886.126 278.889V274.705C886.126 274.705 886.126 274.618 886.115 274.575V274.51C886.105 273.991 885.986 273.569 885.759 273.234C885.531 272.899 885.283 272.661 885.002 272.51C884.721 272.358 884.429 272.283 884.137 272.283C883.845 272.283 883.553 272.358 883.261 272.499C882.98 272.65 882.72 272.888 882.504 273.223C882.277 273.559 882.158 273.991 882.147 274.51V277.667C882.147 277.808 882.104 277.927 882.05 278.013C881.996 278.1 881.92 278.176 881.823 278.219C881.726 278.262 881.661 278.284 881.607 278.284C881.52 278.284 881.445 278.262 881.369 278.219C881.293 278.176 881.218 278.1 881.163 278.013C881.099 277.916 881.077 277.808 881.088 277.667V273.202C881.088 272.996 881.012 272.823 880.861 272.683C880.72 272.531 880.547 272.456 880.342 272.456C880.136 272.456 879.963 272.531 879.812 272.672C879.661 272.813 879.596 272.996 879.596 273.202V277.408C879.596 277.408 879.596 277.494 879.607 277.538V277.603C879.607 278.122 879.726 278.543 879.942 278.878C880.169 279.214 880.428 279.452 880.72 279.603C881.012 279.754 881.304 279.83 881.607 279.83C881.91 279.83 882.212 279.754 882.504 279.614C882.796 279.462 883.056 279.224 883.283 278.889C883.51 278.554 883.629 278.122 883.639 277.603V274.445C883.639 274.305 883.683 274.186 883.737 274.099C883.791 274.002 883.856 273.937 883.931 273.894C884.007 273.851 884.072 273.829 884.148 273.829C884.223 273.829 884.299 273.851 884.364 273.894C884.44 273.937 884.494 274.002 884.558 274.099C884.612 274.197 884.645 274.305 884.656 274.445V278.9C884.656 279.106 884.731 279.279 884.883 279.419C885.023 279.57 885.196 279.646 885.402 279.646L885.38 279.635ZM98.5822 267.19C98.3119 267.331 98.0632 267.547 97.847 267.86C97.847 267.86 97.8254 267.85 97.8145 267.839C97.5334 267.698 97.2415 267.633 96.9496 267.633C96.6577 267.633 96.3766 267.709 96.0847 267.86C95.8035 268.012 95.5441 268.25 95.3278 268.585C95.1008 268.92 94.9818 269.342 94.971 269.861V269.926C94.971 269.926 94.9602 270.012 94.9602 270.055V273.883C94.9602 274.088 95.0359 274.251 95.1765 274.391C95.317 274.532 95.4792 274.597 95.6846 274.607H100.777C100.972 274.607 101.145 274.532 101.285 274.391C101.426 274.251 101.491 274.088 101.501 273.883V269.417C101.501 269.417 101.501 269.331 101.491 269.288V269.223C101.491 268.704 101.372 268.282 101.155 267.947C100.928 267.612 100.669 267.374 100.377 267.222C100.085 267.071 99.7931 266.995 99.4904 266.995C99.1876 266.995 98.8849 267.06 98.593 267.212L98.5822 267.19ZM100.009 269.136C100.009 268.996 99.9877 268.877 99.9337 268.79C99.8796 268.704 99.8039 268.628 99.7282 268.585C99.6526 268.542 99.5661 268.52 99.4904 268.52C99.4363 268.52 99.3714 268.542 99.2741 268.585C99.1768 268.628 99.1012 268.704 99.0471 268.79C98.9822 268.888 98.9498 268.996 98.9498 269.136V273.094H99.7174C99.9229 273.094 100.02 272.986 100.02 272.78V269.136H100.009ZM97.3496 269.428C97.2956 269.342 97.2307 269.277 97.1658 269.234C97.101 269.19 97.0253 269.169 96.9496 269.169C96.8739 269.169 96.7982 269.19 96.7334 269.234C96.6685 269.277 96.6036 269.342 96.5388 269.439C96.4847 269.536 96.4523 269.644 96.4414 269.785V272.791C96.4414 272.996 96.5388 273.105 96.7442 273.105H97.4469V269.785C97.4469 269.644 97.4037 269.526 97.3496 269.428ZM94.7764 263.957C94.7764 264.163 94.8521 264.325 94.9927 264.465C95.1332 264.606 95.2954 264.682 95.5008 264.692H95.8468C96.3766 264.692 96.8739 264.606 97.3388 264.465C97.8037 264.314 98.2038 264.076 98.5281 263.741C98.8525 263.406 99.0255 262.973 99.0579 262.454V259.037C99.2958 259.102 99.512 259.21 99.6958 259.383C99.9012 259.567 100.009 259.805 100.02 260.086V263.708C100.02 263.914 100.107 264.087 100.258 264.227C100.409 264.368 100.582 264.433 100.788 264.433C100.982 264.433 101.155 264.357 101.296 264.217C101.437 264.076 101.501 263.914 101.512 263.708V259.708C101.48 259.189 101.307 258.756 100.982 258.421C100.658 258.086 100.269 257.837 99.7931 257.697C99.2633 257.534 98.7119 257.448 98.1173 257.448H95.5333C95.09 257.491 94.8521 257.74 94.8089 258.183C94.8089 258.389 94.8737 258.572 95.0143 258.724C95.1548 258.875 95.3278 258.951 95.5333 258.951H97.5659V262.076C97.5551 262.357 97.4469 262.595 97.2415 262.778C97.0469 262.962 96.8199 263.081 96.5604 263.125C96.3009 263.168 96.0198 263.189 95.7171 263.189H95.5008C95.2954 263.189 95.1224 263.276 94.9818 263.427C94.8413 263.579 94.7764 263.752 94.7764 263.957ZM101.653 249.533C101.653 249.328 101.588 249.144 101.447 248.992C101.307 248.841 101.134 248.765 100.928 248.755H98.2903C97.9875 248.755 97.7064 248.744 97.4469 248.69C97.1875 248.646 96.9604 248.527 96.7658 248.344C96.5712 248.16 96.4631 247.922 96.4414 247.641V243.727C96.4414 243.521 96.355 243.348 96.2036 243.208C96.0522 243.067 95.8792 243.002 95.6738 243.002C95.4792 243.002 95.3062 243.078 95.1656 243.219C95.0251 243.359 94.9602 243.521 94.9494 243.727V248.019C94.9818 248.538 95.1548 248.971 95.4792 249.306C95.8035 249.641 96.1928 249.89 96.6685 250.03C97.1334 250.171 97.6307 250.247 98.1605 250.258H100.928C101.123 250.258 101.296 250.171 101.437 250.03C101.577 249.89 101.642 249.717 101.653 249.522V249.533ZM98.7227 248.246C98.9282 248.246 99.1012 248.171 99.2525 248.03C99.3931 247.879 99.4688 247.706 99.4688 247.5V243.738C99.4688 243.532 99.3931 243.348 99.2525 243.208C99.1012 243.067 98.9282 242.991 98.7227 242.991C98.5173 242.991 98.3335 243.067 98.193 243.208C98.0524 243.359 97.9767 243.532 97.9767 243.738V247.5C97.9767 247.706 98.0524 247.879 98.2038 248.019C98.3443 248.171 98.5173 248.246 98.7227 248.246ZM100.766 241.078C100.972 241.078 101.145 241.002 101.285 240.851C101.437 240.71 101.512 240.537 101.512 240.332V234.568C101.512 234.363 101.437 234.19 101.296 234.039C101.155 233.898 100.972 233.822 100.766 233.822C100.561 233.822 100.377 233.887 100.236 234.039C100.096 234.19 100.031 234.363 100.031 234.568V236.688H96.4523V234.568C96.4523 234.363 96.3766 234.19 96.236 234.039C96.0955 233.898 95.9117 233.822 95.7062 233.822C95.5008 233.822 95.317 233.887 95.1765 234.039C95.0359 234.19 94.9602 234.363 94.9602 234.568V240.332C94.9602 240.537 95.0359 240.71 95.1765 240.861C95.3278 241.002 95.5008 241.078 95.7062 241.078C95.9117 241.078 96.0847 241.002 96.2252 240.851C96.3766 240.71 96.4523 240.537 96.4523 240.332V238.201H100.031V240.332C100.031 240.537 100.107 240.71 100.247 240.861C100.399 241.002 100.572 241.078 100.777 241.078H100.766ZM94.9494 229.422C94.9818 229.941 95.1765 230.362 95.5441 230.698C95.9117 231.033 96.3333 231.271 96.7982 231.422C97.2631 231.573 97.7389 231.649 98.2362 231.649C98.7336 231.649 99.1985 231.573 99.6742 231.433C100.139 231.292 100.561 231.044 100.928 230.708C101.296 230.373 101.491 229.941 101.523 229.422V224.686C101.523 224.48 101.437 224.318 101.296 224.178C101.166 224.048 100.993 223.972 100.799 223.972H98.1713C97.9659 223.972 97.8037 224.048 97.6632 224.178C97.5226 224.329 97.4578 224.502 97.4578 224.707V228.513C97.4578 228.719 97.5226 228.903 97.6632 229.043C97.8145 229.184 97.9875 229.249 98.193 229.249C98.3984 229.249 98.5714 229.173 98.7227 229.032C98.8633 228.881 98.939 228.708 98.939 228.503V225.659C98.939 225.529 99.0147 225.453 99.166 225.453H99.8147C99.9553 225.453 100.031 225.529 100.042 225.659V229.043C100.031 229.324 99.9229 229.562 99.7174 229.746C99.5228 229.93 99.2958 230.07 99.0363 230.157C98.7768 230.243 98.5173 230.287 98.247 230.287C97.9767 230.287 97.7172 230.243 97.4578 230.157C97.1983 230.07 96.9712 229.93 96.7766 229.746C96.582 229.562 96.4739 229.324 96.4523 229.043V224.729C96.4198 224.286 96.1711 224.048 95.7279 224.005C95.5224 224.005 95.3386 224.069 95.1981 224.21C95.0467 224.351 94.971 224.524 94.9602 224.729V229.422H94.9494ZM94.7764 220.674C94.7764 220.88 94.8413 221.064 94.9818 221.204C95.1224 221.355 95.2954 221.431 95.5008 221.442H100.95C101.155 221.442 101.328 221.366 101.469 221.215C101.609 221.063 101.674 220.88 101.674 220.674C101.642 220.231 101.393 219.982 100.95 219.939H98.8525V216.328H100.95C101.155 216.328 101.328 216.252 101.469 216.101C101.609 215.949 101.674 215.765 101.674 215.56C101.642 215.117 101.393 214.868 100.95 214.825H95.5008C95.3062 214.825 95.1332 214.9 94.9927 215.052C94.8521 215.192 94.7872 215.365 94.7764 215.56C94.7764 215.765 94.8413 215.949 94.9818 216.09C95.1224 216.241 95.2954 216.317 95.5008 216.328H97.3605V219.939H95.5008C95.3062 219.939 95.1332 220.025 94.9927 220.166C94.8521 220.307 94.7872 220.48 94.7764 220.674ZM95.6954 212.511C95.9009 212.511 96.0738 212.435 96.2144 212.284C96.3658 212.143 96.4414 211.97 96.4414 211.765V209.267H100.95C101.155 209.267 101.328 209.191 101.469 209.04C101.609 208.889 101.674 208.705 101.674 208.499C101.642 208.056 101.393 207.807 100.95 207.764H96.4414V205.288C96.4414 205.082 96.3658 204.909 96.2252 204.758C96.0847 204.618 95.9009 204.542 95.6954 204.542C95.49 204.542 95.3062 204.607 95.1656 204.747C95.0251 204.899 94.9494 205.072 94.9494 205.277V211.754C94.9494 211.959 95.0251 212.132 95.1656 212.284C95.317 212.424 95.49 212.5 95.6954 212.5V212.511ZM94.9494 200.174C94.9818 200.693 95.1765 201.114 95.5441 201.449C95.9117 201.785 96.3333 202.023 96.7982 202.174C97.2631 202.325 97.7389 202.401 98.2362 202.401C98.7336 202.401 99.1985 202.325 99.6742 202.185C100.139 202.044 100.561 201.795 100.928 201.46C101.296 201.125 101.491 200.693 101.523 200.174V195.881C101.523 195.686 101.447 195.513 101.307 195.373C101.166 195.232 101.004 195.167 100.799 195.157C100.593 195.157 100.409 195.221 100.269 195.362C100.117 195.503 100.042 195.676 100.031 195.881V199.795C100.02 200.076 99.912 200.314 99.7066 200.498C99.512 200.682 99.2849 200.822 99.0255 200.909C98.766 200.995 98.5065 201.039 98.2362 201.039C97.9659 201.039 97.7064 200.995 97.4469 200.909C97.1875 200.822 96.9604 200.682 96.7658 200.498C96.5712 200.314 96.4631 200.076 96.4414 199.795V195.881C96.409 195.438 96.1603 195.2 95.7171 195.157C95.5116 195.157 95.3278 195.221 95.1873 195.362C95.0359 195.503 94.9602 195.676 94.9494 195.881V200.174ZM98.1821 195.178C97.9767 195.178 97.8037 195.254 97.6524 195.394C97.5118 195.535 97.4361 195.719 97.4361 195.924V199.287C97.4361 199.492 97.501 199.676 97.6416 199.817C97.7929 199.957 97.9659 200.033 98.1713 200.033C98.3768 200.033 98.5498 199.957 98.7011 199.817C98.8417 199.665 98.9173 199.492 98.9173 199.287V195.924C98.9173 195.719 98.8417 195.546 98.6903 195.405C98.5497 195.254 98.3768 195.178 98.1713 195.178H98.1821ZM100.939 191.405H96.7226C96.5387 191.405 96.4414 191.307 96.4306 191.113V187.209C96.4306 187.069 96.4739 186.95 96.5279 186.863C96.582 186.766 96.6469 186.701 96.7226 186.658C96.7874 186.615 96.8631 186.593 96.9388 186.593C97.0145 186.593 97.0902 186.615 97.155 186.658C97.2199 186.701 97.2848 186.766 97.3496 186.863C97.4037 186.961 97.4361 187.069 97.4469 187.209V190.15C97.4469 190.356 97.5226 190.529 97.6632 190.68C97.8037 190.821 97.9875 190.896 98.193 190.896C98.2795 190.896 98.6471 190.831 99.3174 190.702C99.912 190.604 100.442 190.334 100.874 189.891C101.318 189.447 101.523 188.95 101.523 188.399V185.793C101.523 185.587 101.447 185.425 101.307 185.285C101.166 185.144 101.004 185.079 100.799 185.068C100.593 185.068 100.409 185.133 100.269 185.274C100.117 185.414 100.042 185.587 100.031 185.793V188.193C100.031 188.464 99.9445 188.691 99.7607 188.874C99.5877 189.058 99.3066 189.177 98.939 189.242V187.285C98.9282 186.766 98.8092 186.333 98.5822 185.998C98.3551 185.663 98.1065 185.425 97.8254 185.274C97.5443 185.133 97.2523 185.058 96.9496 185.058C96.6469 185.058 96.3766 185.133 96.0847 185.285C95.8035 185.436 95.5441 185.674 95.3278 186.009C95.1008 186.344 94.9818 186.766 94.971 187.285V187.35C94.971 187.35 94.9602 187.436 94.9602 187.48V192.14C94.9602 192.345 95.0251 192.529 95.1656 192.67C95.3062 192.821 95.4792 192.897 95.6846 192.908H100.95C101.155 192.908 101.328 192.832 101.469 192.68C101.609 192.529 101.674 192.345 101.674 192.14C101.642 191.696 101.393 191.448 100.95 191.405H100.939ZM95.6954 175.521C95.49 175.521 95.317 175.597 95.1656 175.737C95.0251 175.878 94.9494 176.061 94.9494 176.267V180.451C94.9494 180.451 94.9494 180.538 94.9602 180.581V180.646C94.971 181.165 95.09 181.587 95.317 181.922C95.5441 182.257 95.7927 182.495 96.0738 182.646C96.355 182.798 96.6469 182.873 96.9388 182.873C97.2307 182.873 97.5226 182.798 97.8145 182.657C98.0957 182.506 98.3551 182.268 98.5714 181.933C98.7984 181.598 98.9174 181.165 98.9282 180.646V177.489C98.9282 177.348 98.9714 177.229 99.0255 177.143C99.0795 177.056 99.1552 176.981 99.2525 176.937C99.3498 176.894 99.4147 176.872 99.4688 176.872C99.5552 176.872 99.6309 176.894 99.7066 176.937C99.7823 176.981 99.858 177.056 99.912 177.143C99.9769 177.24 99.9985 177.348 99.9877 177.489V181.954C99.9877 182.16 100.063 182.333 100.215 182.473C100.355 182.625 100.528 182.7 100.734 182.7C100.939 182.7 101.112 182.625 101.264 182.484C101.404 182.344 101.48 182.16 101.48 181.954V177.748C101.48 177.748 101.48 177.662 101.469 177.618V177.554C101.469 177.035 101.35 176.613 101.134 176.278C100.918 175.943 100.647 175.705 100.355 175.553C100.063 175.402 99.7715 175.326 99.4688 175.326C99.166 175.326 98.8633 175.402 98.5714 175.542C98.2795 175.694 98.02 175.932 97.7929 176.267C97.5659 176.602 97.4469 177.035 97.4361 177.554V180.711C97.4361 180.851 97.3929 180.97 97.3388 181.057C97.2848 181.154 97.2199 181.219 97.1442 181.262C97.0793 181.306 97.0037 181.327 96.928 181.327C96.8523 181.327 96.7766 181.306 96.7117 181.262C96.6469 181.219 96.582 181.154 96.5171 181.057C96.4631 180.96 96.4306 180.841 96.4198 180.711V176.267C96.4198 176.061 96.3441 175.888 96.1928 175.748C96.0522 175.597 95.8792 175.521 95.6738 175.521H95.6954ZM291.292 412.879C291.681 413.106 292.157 413.074 292.514 412.803C292.871 412.522 293.022 412.09 292.903 411.646L290.946 404.348C290.795 403.764 290.189 403.418 289.595 403.569L282.297 405.526C281.853 405.645 281.551 405.991 281.486 406.445C281.432 406.9 281.637 407.311 282.026 407.538L291.281 412.879H291.292ZM118.573 154.534C118.227 154.826 118.098 155.28 118.227 155.712C118.368 156.145 118.725 156.437 119.179 156.48L126.704 157.139C127.309 157.193 127.839 156.739 127.893 156.134L128.553 148.608C128.596 148.154 128.369 147.743 127.969 147.538C127.569 147.332 127.104 147.376 126.758 147.668L118.573 154.534ZM174.546 107.564C174.2 107.856 174.07 108.31 174.2 108.742C174.341 109.175 174.697 109.467 175.152 109.51L182.677 110.17C183.282 110.224 183.812 109.769 183.866 109.164L184.525 101.638C184.569 101.184 184.342 100.773 183.942 100.568C183.541 100.362 183.077 100.406 182.731 100.698L174.546 107.564ZM806.508 107.564L798.323 100.698C797.977 100.406 797.512 100.352 797.112 100.568C796.712 100.773 796.485 101.184 796.529 101.638L797.188 109.164C797.242 109.769 797.772 110.213 798.377 110.17L805.902 109.51C806.356 109.467 806.724 109.175 806.854 108.742C806.994 108.31 806.854 107.856 806.508 107.564ZM862.481 154.534L854.296 147.668C853.95 147.376 853.485 147.322 853.085 147.538C852.685 147.743 852.458 148.154 852.501 148.608L853.161 156.134C853.215 156.739 853.745 157.183 854.35 157.139L861.875 156.48C862.329 156.437 862.697 156.145 862.827 155.712C862.967 155.28 862.827 154.826 862.481 154.534ZM689.773 412.879L699.028 407.538C699.417 407.311 699.633 406.889 699.568 406.445C699.503 406.002 699.201 405.645 698.757 405.526L691.459 403.569C690.875 403.407 690.27 403.764 690.108 404.348L688.151 411.646C688.032 412.09 688.183 412.522 688.54 412.803C688.897 413.084 689.362 413.106 689.762 412.879H689.773ZM218.399 60.0315H181.109C177.292 60.0315 173.562 60.6911 170.092 61.9561C166.61 63.2212 163.323 65.1134 160.415 67.5571L94.3656 122.982C90.7328 126.032 87.8677 129.816 85.8999 134.033C83.943 138.239 82.8834 142.878 82.8834 147.635V297.682C82.8834 303.445 84.4079 308.981 87.1757 313.771C87.2406 313.879 87.2946 313.976 87.3487 314.084C90.1057 318.755 94.0737 322.745 98.9714 325.567L103.664 328.281L339.264 464.315L404.578 502.029L438.96 521.87C441.782 523.503 444.831 524.692 447.988 525.395C451.112 526.098 454.378 526.325 457.675 526.054C462.703 525.644 468.109 525.33 473.796 525.103C479.645 524.876 485.245 524.757 490.522 524.757C495.798 524.757 501.387 524.876 507.247 525.103C512.945 525.33 518.34 525.644 523.368 526.054C526.665 526.325 529.931 526.098 533.055 525.395C536.115 524.703 539.056 523.578 541.791 522.043C541.889 521.978 541.986 521.924 542.083 521.87L576.465 502.018L641.779 464.325L877.379 328.292L882.072 325.578C886.97 322.745 890.937 318.766 893.694 314.095C893.749 313.987 893.803 313.89 893.867 313.782C896.635 308.992 898.16 303.455 898.16 297.692V147.635C898.16 142.878 897.111 138.239 895.143 134.033C893.175 129.816 890.31 126.032 886.677 122.982L820.628 67.5571C817.72 65.1134 814.433 63.2212 810.952 61.9561C807.47 60.6911 803.751 60.0315 799.934 60.0315H218.399ZM365.018 78.986H356.022C355.082 78.986 354.758 78.2183 355.298 77.2776L358.963 70.9306C359.504 69.9899 359.18 69.233 358.239 69.233H356.022C355.082 69.233 353.871 70.0007 353.33 70.9414L349.665 77.2776C349.114 78.2183 347.914 78.9752 346.973 78.9752H342.832C341.891 78.9752 341.567 78.2075 342.108 77.2668L345.762 70.9306C346.303 69.9899 345.978 69.2222 345.038 69.2222H325.966C325.025 69.2222 324.701 69.9899 325.241 70.9306L325.501 71.3739C326.02 72.2822 326.095 73.6229 325.685 74.4555L315.619 91.8854C315.078 92.8261 315.402 93.5938 316.343 93.5938H330.961C331.901 93.5938 333.112 92.8261 333.653 91.8854L337.307 85.5492C337.848 84.6085 339.059 83.8408 339.999 83.8408H342C347.232 83.8408 353.914 88.0794 356.942 93.3127L358.931 96.7619C359.482 97.7026 360.682 98.4595 361.623 98.4595H364.985C365.926 98.4595 367.137 97.6918 367.678 96.7511L371.332 90.4149C371.873 89.4742 371.937 88.0469 371.462 87.2252L367.678 80.6619C367.137 79.7212 365.926 78.9535 364.985 78.9535L365.018 78.986ZM260.587 85.5708C261.127 84.6302 262.338 83.8625 263.279 83.8625H267.42C268.36 83.8625 268.685 84.6302 268.144 85.5708L267.301 87.0305C266.76 87.9712 267.084 88.7389 268.025 88.7389H282.643C283.583 88.7389 284.794 87.9712 285.335 87.0305L291.8 75.8179C292.341 74.8772 292.406 73.4499 291.93 72.6282L290.957 70.9414C290.416 70.0007 289.205 69.233 288.265 69.233H279.269C278.329 69.233 277.118 70.0007 276.577 70.9414L272.923 77.2776C272.382 78.2183 271.171 78.986 270.231 78.986H266.09C265.149 78.986 264.825 78.2183 265.365 77.2776L269.02 70.9414C269.56 70.0007 269.236 69.233 268.295 69.233H242.25C241.309 69.233 240.985 70.0007 241.525 70.9414L242.369 72.4011C242.909 73.3418 244.12 74.1095 245.061 74.1095H247.439C248.38 74.1095 248.704 74.8772 248.164 75.8179L241.687 87.0305C241.147 87.9712 241.082 89.3985 241.558 90.2203L242.531 91.907C243.071 92.8477 244.282 93.6154 245.223 93.6154H254.218C255.159 93.6154 256.37 92.8477 256.911 91.907L260.565 85.5708H260.587ZM300.396 69.2438C299.455 69.2438 299.131 70.0115 299.671 70.9522L299.931 71.3955C300.471 72.3362 300.536 73.7635 300.06 74.5853L290.73 90.7501C289.822 92.3287 287.8 93.6154 286.211 93.6154H265.192C264.252 93.6154 263.041 94.3831 262.5 95.3238L261.657 96.7835C261.116 97.7242 261.441 98.4919 262.381 98.4919H298.179C301.553 98.4919 305.877 95.7563 307.823 92.3828C310.948 86.9657 314.559 81.2134 317.435 75.7314C317.489 75.6341 317.532 75.5368 317.565 75.4394C317.932 74.5204 317.922 73.3526 317.511 72.639C317.176 72.0551 316.851 71.4712 316.505 70.8982C316.062 70.1629 315.219 69.5466 314.429 69.3303C314.127 69.2546 313.921 69.2438 313.856 69.2438C309.369 69.2114 304.872 69.2438 300.396 69.2438Z" fill="#424242"/>
<path fill-rule="evenodd" clip-rule="evenodd" d="M474.909 582.788C474.282 582.788 473.687 582.615 473.179 582.269C472.671 581.923 472.304 581.447 472.077 580.896C471.849 580.344 471.774 579.739 471.893 579.144C472.012 578.55 472.304 577.998 472.747 577.566L488.338 561.974C489.527 560.784 491.484 560.784 492.673 561.974L508.264 577.566C508.707 578.009 508.999 578.55 509.118 579.144C509.237 579.739 509.161 580.344 508.934 580.896C508.707 581.447 508.339 581.923 507.831 582.269C507.323 582.615 506.728 582.788 506.101 582.788H474.931H474.909Z" fill="#BAED00" stroke="black" stroke-width="0.25" stroke-linejoin="round"/>
</g>
<defs>
<clipPath id="clip0_296_799">
<rect width="981" height="687" fill="white"/>
</clipPath>
</defs>
</svg>
