<svg width="981" height="687" viewBox="0 0 981 687" fill="none" xmlns="http://www.w3.org/2000/svg">
  <g id="TG_HOME" name="TG_HOME">
    <path id="TG_HOME_BG" fill-rule="evenodd" clip-rule="evenodd"
      d="M181.228 7.96887H189.488C191.175 7.96887 192.623 8.35813 194.083 9.20151L204.214 15.0511C206.16 16.1756 207.274 18.1111 207.274 20.3601V34.0272C207.274 36.5574 205.208 38.6226 202.679 38.6226H194.418C192.732 38.6226 191.283 38.2333 189.823 37.39L179.693 31.5403C177.746 30.4158 176.633 28.4804 176.633 26.2313V12.5642C176.633 10.0341 178.698 7.96887 181.228 7.96887Z"
      fill="#171717" stroke="#5E5E5E" stroke-width="0.57" stroke-miterlimit="22.93" />
    <path fill-rule="evenodd" clip-rule="evenodd"
      d="M182.341 21.2251C182.46 21.2251 182.569 21.2792 182.655 21.3549C182.742 21.4414 182.785 21.5387 182.796 21.6684V22.8037H185.001V21.6684C185.001 21.5387 185.055 21.4414 185.142 21.3549C185.228 21.2684 185.336 21.2251 185.466 21.2251C185.585 21.2251 185.693 21.2792 185.78 21.3549C185.866 21.4414 185.909 21.5387 185.92 21.6684V24.9987C185.899 25.269 185.747 25.4204 185.477 25.442C185.347 25.442 185.239 25.3988 185.153 25.3123C185.055 25.2258 185.012 25.1285 185.012 24.9987V23.712H182.806V24.9987C182.785 25.269 182.633 25.4204 182.363 25.442C182.233 25.442 182.125 25.3988 182.039 25.3123C181.941 25.2258 181.898 25.1285 181.898 24.9987V21.6684C181.898 21.5387 181.952 21.4414 182.039 21.3549C182.125 21.2684 182.233 21.2251 182.363 21.2251H182.341ZM190.245 21.3332C190.472 21.3332 190.677 21.4089 190.861 21.5495C191.045 21.69 191.186 21.8522 191.304 22.0469C191.413 22.2415 191.499 22.4469 191.553 22.6632C191.607 22.8794 191.64 23.1065 191.64 23.3336C191.64 23.6363 191.596 23.9283 191.499 24.2094C191.402 24.5013 191.25 24.75 191.045 24.9771C190.84 25.1933 190.569 25.3231 190.256 25.3339H187.888C187.574 25.3231 187.304 25.2041 187.099 24.9771C186.882 24.75 186.731 24.5013 186.645 24.2094C186.558 23.9174 186.515 23.6255 186.515 23.3227C186.515 23.02 186.558 22.7281 186.655 22.4469C186.742 22.155 186.893 21.9063 187.109 21.6792C187.315 21.4522 187.585 21.3332 187.899 21.3224H190.267L190.245 21.3332ZM190.018 24.4364C190.191 24.4364 190.331 24.3608 190.45 24.2418C190.569 24.1229 190.645 23.9823 190.699 23.8201C190.753 23.6579 190.775 23.4957 190.775 23.3336C190.775 23.1714 190.753 23.0092 190.699 22.8578C190.645 22.7064 190.558 22.5659 190.45 22.4361C190.331 22.3172 190.191 22.2523 190.018 22.2415H188.093C187.92 22.2415 187.78 22.3172 187.661 22.4361C187.553 22.5551 187.466 22.6956 187.412 22.8578C187.358 23.0092 187.337 23.1714 187.337 23.3336C187.337 23.4957 187.358 23.6579 187.412 23.8201C187.466 23.9823 187.542 24.1229 187.661 24.2418C187.78 24.3608 187.92 24.4256 188.093 24.4364H190.018ZM193.651 21.1494C193.813 21.1494 193.964 21.171 194.116 21.2359C194.267 21.29 194.418 21.3657 194.559 21.4738C194.58 21.4954 194.602 21.517 194.635 21.5387C194.656 21.517 194.678 21.4954 194.71 21.4738C194.851 21.3657 194.991 21.29 195.143 21.2359C195.294 21.1819 195.445 21.1494 195.597 21.1494C195.748 21.1494 195.91 21.171 196.062 21.2359C196.213 21.29 196.354 21.3657 196.494 21.4738C196.635 21.5819 196.754 21.7225 196.862 21.8955C196.97 22.0685 197.024 22.2847 197.024 22.5226V24.9771C197.002 25.2474 196.851 25.3988 196.581 25.4204C196.451 25.4204 196.343 25.3771 196.256 25.2906C196.159 25.2041 196.116 25.1068 196.116 24.9771V22.5767C196.116 22.4686 196.094 22.3712 196.051 22.3064C196.008 22.2307 195.964 22.1766 195.91 22.1334C195.856 22.0901 195.813 22.0577 195.759 22.036C195.705 22.0144 195.651 22.0036 195.597 22.0036C195.543 22.0036 195.489 22.0036 195.435 22.036C195.381 22.0577 195.337 22.0901 195.283 22.1334C195.229 22.1766 195.186 22.2307 195.143 22.3064C195.099 22.382 195.078 22.4686 195.078 22.5767V24.9771C195.045 25.2474 194.905 25.3988 194.635 25.4204C194.505 25.4204 194.397 25.3771 194.31 25.2906C194.213 25.2041 194.17 25.1068 194.17 24.9771V22.5767C194.17 22.4686 194.148 22.3712 194.105 22.3064C194.061 22.2307 194.018 22.1766 193.964 22.1334C193.91 22.0901 193.867 22.0577 193.813 22.036C193.759 22.0144 193.705 22.0036 193.651 22.0036C193.597 22.0036 193.543 22.0036 193.488 22.036C193.434 22.0577 193.38 22.0901 193.337 22.1334C193.283 22.1766 193.24 22.2307 193.197 22.3064C193.153 22.382 193.132 22.4686 193.132 22.5767V24.9771C193.11 25.2474 192.959 25.3988 192.688 25.4204C192.559 25.4204 192.451 25.3771 192.364 25.2906C192.267 25.2041 192.223 25.1068 192.223 24.9771V22.5226C192.223 22.2739 192.288 22.0685 192.396 21.8955C192.505 21.7225 192.624 21.5819 192.764 21.4738C192.905 21.3657 193.045 21.29 193.207 21.2359C193.359 21.1819 193.51 21.1494 193.661 21.1494H193.651ZM198.981 21.3332H201.608C201.738 21.3332 201.835 21.3873 201.922 21.4738C202.008 21.5603 202.051 21.6684 202.051 21.7982C202.03 22.0685 201.878 22.2199 201.608 22.2415H199.219C199.046 22.2415 198.905 22.3172 198.786 22.4361C198.678 22.5551 198.592 22.6956 198.538 22.8578C198.484 23.0092 198.462 23.1714 198.462 23.3336C198.462 23.4957 198.484 23.6579 198.538 23.8093C198.592 23.9607 198.678 24.1013 198.786 24.231C198.905 24.3499 199.046 24.4148 199.219 24.4256H201.608C201.738 24.4256 201.835 24.4797 201.922 24.5662C202.008 24.6527 202.051 24.7608 202.051 24.8906C202.051 25.0095 201.997 25.1176 201.922 25.2041C201.835 25.2906 201.738 25.3339 201.608 25.3339H198.981C198.667 25.3123 198.397 25.1933 198.202 24.9663C197.997 24.7392 197.846 24.4905 197.759 24.1986C197.673 23.9066 197.629 23.6255 197.629 23.3227C197.629 23.02 197.673 22.7281 197.77 22.4469C197.856 22.1658 198.008 21.9063 198.213 21.6792C198.419 21.4522 198.678 21.3332 198.992 21.3116L198.981 21.3332ZM202.03 23.3119C202.03 23.1822 201.987 23.0741 201.9 22.9876C201.814 22.9011 201.705 22.8578 201.576 22.8578H199.521C199.392 22.8578 199.284 22.9011 199.197 22.9876C199.111 23.0741 199.067 23.1822 199.067 23.3119C199.067 23.4417 199.111 23.5498 199.197 23.6363C199.284 23.7228 199.392 23.7661 199.521 23.7661H201.576C201.705 23.7661 201.814 23.7228 201.9 23.6255C201.987 23.539 202.041 23.4309 202.041 23.3011L202.03 23.3119Z"
      fill="#A6A6A6" />
  </g>
  <g id="TG_TP" name="TG_TP">
    <path id="TG_TP_BG" fill-rule="evenodd" clip-rule="evenodd"
      d="M224.14 7.96887H251.721C254.251 7.96887 256.316 10.0341 256.316 12.5642V34.0164C256.316 36.5466 254.251 38.6118 251.721 38.6118H237.33C235.644 38.6118 234.195 38.2225 232.735 37.3791L222.605 31.5295C220.659 30.405 219.545 28.4696 219.545 26.2205V12.5642C219.545 10.0341 221.61 7.96887 224.14 7.96887Z"
      fill="#171717" stroke="#5E5E5E" stroke-width="0.57" stroke-miterlimit="22.93" />
  </g>
  <g id="TG_STA" name="TG_STA">
    <path id="TG_STA_BG" fill-rule="evenodd" clip-rule="evenodd"
      d="M395.767 7.96887H434.679C436.365 7.96887 437.814 8.35813 439.274 9.20151L449.404 15.0511C451.351 16.1756 452.464 18.1111 452.464 20.3601V34.0272C452.464 36.5574 450.399 38.6226 447.869 38.6226H408.957C407.271 38.6226 405.822 38.2333 404.362 37.39L394.232 31.5403C392.286 30.4158 391.172 28.4804 391.172 26.2313V12.5642C391.172 10.0341 393.237 7.96887 395.767 7.96887Z"
      fill="#171717" stroke="#5E5E5E" stroke-width="0.57" stroke-miterlimit="22.93" />
    <path fill-rule="evenodd" clip-rule="evenodd"
      d="M413.498 21.7657C413.498 21.8955 413.455 22.0036 413.358 22.0901C413.271 22.1766 413.163 22.2307 413.033 22.2307H410.298C410.211 22.2307 410.136 22.2523 410.082 22.2847C410.028 22.3172 409.984 22.3604 409.952 22.4037C409.919 22.4469 409.909 22.4902 409.909 22.5334C409.909 22.5767 409.919 22.6199 409.952 22.6632C409.974 22.7064 410.017 22.7497 410.082 22.7821C410.136 22.8146 410.211 22.8362 410.298 22.8362H412.233C412.547 22.8362 412.817 22.9227 413.022 23.0524C413.228 23.193 413.379 23.3552 413.466 23.5282C413.552 23.712 413.595 23.8958 413.595 24.0796C413.595 24.2634 413.552 24.4473 413.455 24.6203C413.368 24.8041 413.217 24.9554 413.012 25.096C412.806 25.2366 412.547 25.3015 412.222 25.3015H412.179C412.179 25.3015 412.125 25.3015 412.093 25.3015H409.509C409.379 25.3015 409.271 25.2582 409.184 25.1717C409.098 25.0852 409.054 24.9771 409.054 24.8473C409.054 24.7176 409.098 24.6094 409.195 24.5229C409.282 24.4364 409.39 24.3824 409.519 24.3824H412.266C412.352 24.3824 412.428 24.3824 412.482 24.3391C412.536 24.3067 412.579 24.2634 412.612 24.2094C412.644 24.1661 412.655 24.1121 412.655 24.058C412.655 24.0256 412.644 23.9823 412.612 23.9283C412.59 23.8742 412.547 23.8201 412.482 23.7877C412.428 23.7553 412.352 23.7336 412.266 23.7228H410.33C410.017 23.7228 409.746 23.6363 409.541 23.5066C409.336 23.366 409.184 23.2146 409.098 23.0416C409.011 22.8686 408.968 22.6848 408.968 22.501C408.968 22.3172 409.011 22.1442 409.109 21.9712C409.195 21.7982 409.346 21.636 409.552 21.5062C409.757 21.3657 410.017 21.3008 410.341 21.29H410.384C410.384 21.29 410.438 21.29 410.471 21.29H413.044C413.174 21.29 413.282 21.3332 413.368 21.4197C413.455 21.5062 413.498 21.6144 413.498 21.7441V21.7657ZM414.082 21.7657C414.082 21.636 414.125 21.5279 414.212 21.4414C414.298 21.3549 414.406 21.3116 414.536 21.3116H418.515C418.645 21.3116 418.753 21.3549 418.839 21.4414C418.926 21.5279 418.969 21.636 418.969 21.7657C418.969 21.8955 418.926 22.0036 418.839 22.0901C418.753 22.1766 418.645 22.2199 418.515 22.2199H416.99V24.9879C416.958 25.2582 416.817 25.4096 416.536 25.4312C416.407 25.4312 416.298 25.388 416.201 25.3015C416.104 25.215 416.061 25.1068 416.061 24.9879V22.2199H414.525C414.396 22.2199 414.287 22.1766 414.201 22.0793C414.114 21.9928 414.06 21.8847 414.06 21.7549L414.082 21.7657ZM421.066 24.2851C421.066 24.1553 421.11 24.0472 421.196 23.9607C421.283 23.8742 421.391 23.8309 421.521 23.8309H422.569L422.396 23.3227C422.321 23.1389 422.256 22.9551 422.18 22.7929C422.104 22.6307 422.029 22.4794 421.942 22.3388C421.856 22.1982 421.769 22.1334 421.661 22.1225C421.553 22.1225 421.456 22.209 421.369 22.3388C421.283 22.4794 421.207 22.6307 421.131 22.7929C421.066 22.9551 420.991 23.1389 420.915 23.3227L420.266 25.096C420.223 25.1933 420.158 25.269 420.093 25.3339C420.018 25.3988 419.92 25.4312 419.78 25.4312C419.65 25.4312 419.542 25.388 419.455 25.2906C419.369 25.2041 419.337 25.096 419.347 24.9663C419.347 24.9122 419.369 24.8473 419.391 24.8041L420.147 22.8578C420.353 22.3496 420.569 21.9387 420.775 21.6252C420.98 21.3116 421.283 21.1602 421.672 21.1494C422.061 21.1494 422.364 21.3116 422.569 21.6144C422.775 21.9171 422.98 22.3388 423.196 22.8578L423.953 24.8041C423.953 24.8041 423.986 24.9122 423.996 24.9663C423.996 25.096 423.964 25.2041 423.888 25.2906C423.802 25.388 423.694 25.4312 423.564 25.4312C423.413 25.4312 423.304 25.3988 423.229 25.3339C423.153 25.269 423.099 25.1933 423.056 25.096L422.926 24.7392H421.553C421.423 24.7392 421.315 24.6959 421.229 24.5986C421.142 24.5121 421.088 24.404 421.088 24.2743L421.066 24.2851ZM425.413 24.9987C425.391 25.269 425.24 25.4204 424.959 25.442C424.829 25.442 424.721 25.3988 424.624 25.3123C424.526 25.2258 424.483 25.1176 424.483 24.9987V21.7549C424.483 21.6252 424.537 21.517 424.624 21.4414C424.71 21.3549 424.829 21.3116 424.948 21.3116H427.813C427.813 21.3116 427.867 21.3116 427.899 21.3116H427.943C428.256 21.3116 428.527 21.3981 428.732 21.5279C428.937 21.6684 429.089 21.8198 429.175 21.9928C429.262 22.1658 429.316 22.3496 429.316 22.5226C429.316 22.6956 429.273 22.8794 429.186 23.0632C429.1 23.2362 428.948 23.3984 428.743 23.5282C428.537 23.6688 428.267 23.7336 427.954 23.7444H426.753C426.786 23.9715 426.862 24.1445 426.981 24.2526C427.089 24.3608 427.229 24.4148 427.402 24.4148H428.873C429.002 24.4148 429.11 24.4689 429.186 24.5554C429.273 24.6419 429.316 24.7608 429.316 24.8798C429.316 24.9987 429.262 25.1068 429.186 25.1933C429.1 25.2798 429.002 25.3231 428.873 25.3231H427.272C426.937 25.3231 426.635 25.1933 426.353 24.923C426.083 24.6527 425.91 24.3391 425.856 23.9715C425.77 23.5606 425.737 23.3336 425.737 23.2795C425.737 23.1497 425.78 23.0416 425.867 22.9551C425.953 22.8686 426.062 22.8254 426.191 22.8254H427.997C428.083 22.8254 428.159 22.8037 428.213 22.7713C428.267 22.7389 428.31 22.6956 428.343 22.6524C428.375 22.6091 428.386 22.5659 428.386 22.5226C428.386 22.4794 428.375 22.4361 428.343 22.3929C428.321 22.3496 428.278 22.3064 428.213 22.2739C428.159 22.2415 428.083 22.2199 427.997 22.2199H425.597C425.478 22.2199 425.424 22.2847 425.424 22.3929V24.9771L425.413 24.9987ZM429.759 21.7765C429.759 21.6468 429.802 21.5387 429.889 21.4522C429.975 21.3657 430.084 21.3224 430.213 21.3224H434.192C434.322 21.3224 434.43 21.3657 434.516 21.4522C434.603 21.5387 434.646 21.6468 434.646 21.7765C434.646 21.9063 434.603 22.0144 434.516 22.1009C434.43 22.1874 434.322 22.2307 434.192 22.2307H432.668V24.9987C432.635 25.269 432.495 25.4204 432.213 25.442C432.084 25.442 431.976 25.3988 431.878 25.3123C431.781 25.2258 431.738 25.1176 431.738 24.9987V22.2307H430.202C430.073 22.2307 429.965 22.1874 429.878 22.0901C429.792 22.0036 429.738 21.8955 429.738 21.7657L429.759 21.7765Z"
      fill="#A6A6A6" />
  </g>
  <g id="TG_SLE" name="TG_SLE">
    <path id="TG_SLE_BG" fill-rule="evenodd" clip-rule="evenodd"
      d="M288.503 38.6226H260.922C258.392 38.6226 256.327 36.5574 256.327 34.0272V12.5642C256.327 10.0341 258.392 7.96887 260.922 7.96887H275.312C276.999 7.96887 278.448 8.35813 279.907 9.20151L290.038 15.0511C291.984 16.1756 293.098 18.1111 293.098 20.3601V34.0272C293.098 36.5574 291.033 38.6226 288.503 38.6226Z"
      fill="#171717" stroke="#5E5E5E" stroke-width="0.57" stroke-miterlimit="22.93" />
  </g>
  <g id="TG_L3" name="TG_L3">
    <path id="TG_L3_BG" fill-rule="evenodd" clip-rule="evenodd"
      d="M309.953 7.96887H337.534C340.064 7.96887 342.129 10.0341 342.129 12.5642V34.0164C342.129 36.5466 340.064 38.6118 337.534 38.6118H323.144C321.457 38.6118 320.008 38.2225 318.549 37.3791L308.418 31.5295C306.472 30.405 305.358 28.4696 305.358 26.2205V12.5642C305.358 10.0341 307.423 7.96887 309.953 7.96887Z"
      fill="#171717" stroke="#5E5E5E" stroke-width="0.57" stroke-miterlimit="22.93" />
    <path id="TG_L3_CTX" fill-rule="evenodd" clip-rule="evenodd"
      d="M319.381 21.1494C319.511 21.1494 319.63 21.1927 319.716 21.2792C319.814 21.3657 319.857 21.4738 319.868 21.6036V23.312C319.868 23.5066 319.868 23.6796 319.911 23.8418C319.943 24.004 320.019 24.1553 320.138 24.2743C320.257 24.404 320.408 24.4689 320.581 24.4797H322.852C322.982 24.4797 323.09 24.5338 323.176 24.6311C323.263 24.7284 323.306 24.8365 323.306 24.9663C323.306 25.096 323.252 25.2042 323.165 25.2907C323.079 25.3772 322.971 25.4204 322.841 25.4312H320.333C319.998 25.4096 319.727 25.3015 319.511 25.096C319.295 24.8906 319.143 24.6419 319.046 24.3391C318.96 24.0472 318.906 23.7228 318.906 23.3876V21.5927C318.906 21.463 318.96 21.3549 319.046 21.2684C319.133 21.1819 319.241 21.1386 319.37 21.1278L319.381 21.1494ZM323.857 24.9555C323.857 24.8257 323.901 24.7176 323.998 24.6203C324.084 24.523 324.203 24.4797 324.333 24.4797H327.198C327.285 24.4797 327.36 24.4581 327.425 24.4148C327.479 24.3716 327.523 24.3391 327.555 24.2851C327.587 24.2418 327.598 24.1878 327.598 24.1337C327.598 24.0796 327.587 24.0364 327.555 23.9823C327.523 23.9391 327.479 23.8958 327.425 23.8526C327.371 23.8093 327.296 23.7985 327.198 23.7877H324.355C324.225 23.7877 324.106 23.7445 324.02 23.6471C323.922 23.5606 323.879 23.4417 323.879 23.312C323.879 23.1822 323.922 23.0633 324.02 22.9768C324.117 22.8794 324.225 22.8362 324.355 22.8362H327.177C327.263 22.8362 327.339 22.8146 327.404 22.7713C327.458 22.7389 327.512 22.6956 327.533 22.6416C327.566 22.5983 327.577 22.5443 327.577 22.4902C327.577 22.4469 327.566 22.3929 327.533 22.3496C327.501 22.3064 327.458 22.2631 327.404 22.2307C327.35 22.1983 327.274 22.1766 327.177 22.1658H324.333C324.203 22.1658 324.095 22.1226 323.998 22.0253C323.901 21.9388 323.857 21.8306 323.857 21.7009C323.857 21.5711 323.901 21.463 323.998 21.3765C324.095 21.29 324.203 21.2359 324.333 21.2359H327.133C327.468 21.2359 327.739 21.3116 327.955 21.4522C328.171 21.5927 328.323 21.7549 328.42 21.9388C328.506 22.1226 328.561 22.3064 328.561 22.4902C328.561 22.674 328.517 22.8578 328.42 23.0308C328.377 23.1173 328.323 23.193 328.258 23.2687C328.333 23.3552 328.409 23.4417 328.452 23.539C328.539 23.7336 328.593 23.9175 328.593 24.1121C328.593 24.2959 328.55 24.4797 328.452 24.6635C328.355 24.8473 328.204 25.0203 327.987 25.1609C327.771 25.3015 327.501 25.3772 327.177 25.388H327.133C327.133 25.388 327.079 25.388 327.047 25.388H324.355C324.225 25.388 324.106 25.3447 324.02 25.2474C323.933 25.1609 323.879 25.042 323.879 24.9122L323.857 24.9555Z"
      fill="#A6A6A6" />
  </g>
  <g id="TG_R3" name="TG_R3">
    <path fill-rule="evenodd" clip-rule="evenodd"
      d="M374.316 38.6226H346.735C344.205 38.6226 342.14 36.5574 342.14 34.0272V12.5642C342.14 10.0341 344.205 7.96887 346.735 7.96887H361.126C362.812 7.96887 364.261 8.35813 365.721 9.20151L375.851 15.0511C377.798 16.1756 378.911 18.1111 378.911 20.3601V34.0272C378.911 36.5574 376.846 38.6226 374.316 38.6226Z"
      fill="#171717" stroke="#5E5E5E" stroke-width="0.57" stroke-miterlimit="22.93" />
    <path fill-rule="evenodd" clip-rule="evenodd"
      d="M356.282 24.9771C356.25 25.2582 356.098 25.4204 355.817 25.442C355.687 25.442 355.568 25.3988 355.471 25.3123C355.374 25.2258 355.331 25.1177 355.331 24.9771V21.6144C355.331 21.4846 355.385 21.3765 355.482 21.29C355.579 21.2035 355.687 21.1602 355.828 21.1602H358.801C358.801 21.1602 358.855 21.1602 358.888 21.1602H358.931C359.266 21.1602 359.536 21.2467 359.753 21.3873C359.969 21.5279 360.12 21.6901 360.218 21.8739C360.315 22.0577 360.358 22.2415 360.358 22.4253C360.358 22.6091 360.315 22.8038 360.218 22.9876C360.12 23.1714 359.969 23.3336 359.753 23.4741C359.536 23.6147 359.266 23.6904 358.931 23.7012H357.677C357.709 23.9391 357.796 24.1121 357.915 24.231C358.034 24.35 358.174 24.404 358.347 24.404H359.882C360.012 24.404 360.12 24.4581 360.218 24.5554C360.304 24.6527 360.347 24.7608 360.347 24.8906C360.347 25.0203 360.293 25.1285 360.207 25.215C360.12 25.3015 360.012 25.3447 359.882 25.3555H358.217C357.871 25.3555 357.547 25.2258 357.266 24.9447C356.985 24.6635 356.812 24.3283 356.747 23.9499C356.66 23.5282 356.617 23.2795 356.617 23.2363C356.617 23.1065 356.66 22.9876 356.758 22.9011C356.855 22.8038 356.963 22.7605 357.093 22.7605H358.963C359.05 22.7605 359.126 22.7389 359.19 22.6956C359.244 22.6632 359.299 22.6199 359.32 22.5767C359.353 22.5334 359.363 22.4902 359.363 22.4361C359.363 22.3821 359.353 22.3388 359.32 22.2956C359.288 22.2523 359.244 22.2091 359.19 22.1766C359.136 22.1442 359.061 22.1226 358.963 22.1118H356.466C356.347 22.1118 356.282 22.1766 356.282 22.2956V24.9879V24.9771ZM360.985 24.8473C360.985 24.7176 361.028 24.5987 361.126 24.5121C361.212 24.4148 361.331 24.3716 361.461 24.3716H364.326C364.413 24.3716 364.488 24.35 364.553 24.3067C364.607 24.2635 364.661 24.231 364.683 24.177C364.715 24.1337 364.726 24.0796 364.726 24.0256C364.726 23.9715 364.715 23.9283 364.683 23.8742C364.65 23.831 364.607 23.7877 364.553 23.7445C364.499 23.7012 364.423 23.6904 364.326 23.6796H361.472C361.342 23.6796 361.223 23.6363 361.137 23.539C361.039 23.4525 360.996 23.3336 360.996 23.2038C360.996 23.0741 361.039 22.9551 361.137 22.8686C361.234 22.7713 361.342 22.7281 361.472 22.7281H364.294C364.38 22.7281 364.456 22.7064 364.521 22.6632C364.585 22.6308 364.629 22.5875 364.65 22.5334C364.683 22.4902 364.694 22.4361 364.694 22.3821C364.694 22.3388 364.683 22.2848 364.65 22.2415C364.618 22.1983 364.575 22.155 364.521 22.1226C364.467 22.0901 364.391 22.0685 364.294 22.0577H361.439C361.309 22.0577 361.191 22.0144 361.104 21.9171C361.007 21.8306 360.964 21.7225 360.964 21.5927C360.964 21.463 361.007 21.3549 361.104 21.2684C361.201 21.1819 361.309 21.1278 361.439 21.1278H364.25C364.585 21.1278 364.856 21.2035 365.072 21.3441C365.288 21.4846 365.44 21.6468 365.537 21.8306C365.634 22.0144 365.677 22.1983 365.677 22.3821C365.677 22.5659 365.634 22.7497 365.537 22.9335C365.494 23.02 365.44 23.0957 365.375 23.1714C365.45 23.2579 365.526 23.3444 365.569 23.4417C365.656 23.6363 365.71 23.8201 365.71 24.0148C365.71 24.1986 365.667 24.3824 365.569 24.577C365.472 24.7608 365.321 24.9338 365.104 25.0744C364.888 25.215 364.618 25.2907 364.283 25.3015H364.24C364.24 25.3015 364.185 25.3015 364.153 25.3015H361.45C361.32 25.3015 361.201 25.2582 361.115 25.1609C361.018 25.0636 360.974 24.9555 360.974 24.8257L360.985 24.8473Z"
      fill="#A6A6A6" />
  </g>
  <path FILL=fill-rule="evenodd" clip-rule="evenodd"
    d="M496.663 382.182H484.381C483.862 382.182 483.407 381.879 483.213 381.403C483.018 380.917 483.116 380.398 483.483 380.019L489.624 373.878C490.122 373.381 490.922 373.381 491.408 373.878L497.549 380.019C497.917 380.387 498.025 380.917 497.82 381.403C497.614 381.89 497.171 382.182 496.652 382.182H496.663Z"
    fill="#A6A6A6" />
  <path FILL=fill-rule="evenodd" clip-rule="evenodd"
    d="M532.05 464.758L538.191 454.118C538.451 453.664 538.937 453.426 539.456 453.502C539.975 453.567 540.375 453.924 540.516 454.432L542.764 462.822C542.948 463.493 542.548 464.196 541.867 464.369L533.477 466.618C532.969 466.747 532.461 466.585 532.147 466.163C531.834 465.753 531.79 465.212 532.061 464.758H532.05Z"
    fill="#A6A6A6" />
  <path fill-rule="evenodd" clip-rule="evenodd"
    d="M442.852 454.118L448.993 464.758C449.253 465.212 449.221 465.742 448.907 466.164C448.593 466.574 448.085 466.747 447.577 466.618L439.187 464.369C438.517 464.185 438.117 463.493 438.29 462.822L440.539 454.432C440.668 453.924 441.079 453.578 441.598 453.502C442.117 453.437 442.593 453.675 442.863 454.129L442.852 454.118Z"
    fill="#A6A6A6" />
  <path fill-rule="evenodd" clip-rule="evenodd"
    d="M490.522 486.459C504.155 486.459 516.567 481.29 525.93 472.802C525.693 471.797 525.963 470.694 526.741 469.915C527.941 468.715 529.877 468.715 531.077 469.915C532.277 471.116 532.277 473.051 531.077 474.251C530.255 475.073 529.087 475.333 528.039 475.03C518.124 484.037 504.955 489.529 490.511 489.529C476.066 489.529 462.897 484.037 452.983 475.03C451.945 475.333 450.767 475.073 449.956 474.251C448.756 473.051 448.756 471.116 449.956 469.915C451.156 468.715 453.091 468.715 454.291 469.915C455.07 470.694 455.34 471.797 455.102 472.802C464.465 481.279 476.888 486.448 490.511 486.448L490.522 486.459ZM435.122 448.539C434.819 447.425 435.176 446.279 435.954 445.533C435.133 441.716 434.7 437.759 434.7 433.693C434.7 418.274 440.949 404.315 451.048 394.216C457.254 388.01 464.93 383.252 473.493 380.506C473.753 379.457 474.563 378.581 475.677 378.279C477.31 377.846 478.996 378.808 479.429 380.441C479.872 382.074 478.899 383.761 477.266 384.193C476.196 384.485 475.093 384.161 474.347 383.447C466.282 386.042 459.07 390.529 453.221 396.379C443.674 405.926 437.771 419.118 437.771 433.693C437.771 437.499 438.171 441.219 438.938 444.798C439.933 445.09 440.755 445.879 441.047 446.949C441.49 448.582 440.517 450.269 438.884 450.701C437.252 451.145 435.565 450.172 435.133 448.539H435.122ZM545.932 448.539C545.489 450.172 543.813 451.145 542.181 450.701C540.548 450.258 539.575 448.582 540.018 446.949C540.31 445.879 541.132 445.09 542.126 444.798C542.894 441.219 543.294 437.499 543.294 433.693C543.294 419.118 537.391 405.926 527.844 396.379C521.995 390.529 514.773 386.042 506.707 383.447C505.961 384.161 504.869 384.485 503.788 384.193C502.155 383.75 501.182 382.074 501.625 380.441C502.069 378.808 503.744 377.835 505.377 378.279C506.491 378.581 507.302 379.457 507.561 380.506C516.135 383.252 523.8 387.999 530.006 394.216C540.105 404.315 546.354 418.274 546.354 433.693C546.354 437.759 545.921 441.716 545.1 445.533C545.878 446.279 546.235 447.425 545.932 448.539Z"
    fill="#7615E6" />

  <path fill-rule="evenodd" clip-rule="evenodd"
    d="M537.413 426.081C535.391 413.647 528.514 402.521 518.297 395.146C508.08 387.783 495.344 384.777 482.91 386.788C470.477 388.81 459.351 395.687 451.978 405.905C444.615 416.123 441.609 428.86 443.62 441.295C445.642 453.729 452.518 464.855 462.735 472.229C472.952 479.593 485.689 482.599 498.122 480.588C510.556 478.566 521.681 471.689 529.055 461.471C536.418 451.253 539.424 438.516 537.413 426.081Z"
    fill="#424242" />

  <path id="TG_RT_BORDER" fill-rule="evenodd" clip-rule="evenodd"
    d="M666.787 299.466C666.787 309.63 670.819 319.372 678.009 326.562C685.188 333.742 694.941 337.786 705.093 337.786C715.245 337.786 724.998 333.753 732.187 326.562C739.366 319.383 743.41 309.63 743.41 299.477C743.41 289.324 739.377 279.571 732.187 272.38C725.008 265.201 715.256 261.157 705.104 261.157C694.951 261.157 685.199 265.19 678.009 272.38C670.83 279.56 666.787 289.313 666.787 299.466Z"
    fill="#424242" />
  <g id="TG_M2" name="TG_M2">
    <path fill-rule="evenodd" clip-rule="evenodd"
      d="M435.252 152.836C437.587 142.943 435.9 132.53 430.559 123.891C425.218 115.251 416.666 109.077 406.773 106.742C396.88 104.406 386.469 106.093 377.83 111.435C369.191 116.776 363.018 125.329 360.682 135.222C358.347 145.116 360.034 155.528 365.375 164.168C370.716 172.807 379.268 178.981 389.161 181.316C399.054 183.652 409.465 181.965 418.104 176.624C426.743 171.282 432.916 162.73 435.252 152.836Z"
      fill="#424242" />
  </g>
  <path fill-rule="evenodd" clip-rule="evenodd"
    d="M611.787 237.466C621.507 240.407 632.005 239.369 640.968 234.579C649.931 229.789 656.613 221.626 659.554 211.905C662.494 202.185 661.456 191.686 656.667 182.722C651.877 173.758 643.714 167.076 633.994 164.135C624.275 161.194 613.776 162.232 604.813 167.022C595.85 171.812 589.169 179.976 586.228 189.696C583.287 199.417 584.325 209.916 589.115 218.879C593.904 227.843 602.067 234.525 611.787 237.466Z"
    fill="#424242" />
  <g id="TG_X" name="TG_X">
    <path fill-rule="evenodd" clip-rule="evenodd"
      d="M518.568 268.163C526.579 274.413 536.742 277.235 546.83 275.992C556.917 274.748 566.096 269.558 572.346 261.546C578.595 253.534 581.417 243.37 580.173 233.282C578.93 223.194 573.74 214.014 565.729 207.764C557.717 201.514 547.554 198.692 537.467 199.936C527.379 201.179 518.2 206.369 511.951 214.381C505.702 222.394 502.88 232.557 504.123 242.646C505.366 252.734 510.556 261.914 518.568 268.163Z"
      fill="#424242" />
  </g>
  <g id="TG_RB" name="TG_RB">
    <path fill-rule="evenodd" clip-rule="evenodd"
      d="M673.328 207.742C673.328 217.906 677.361 227.648 684.551 234.839C691.73 242.018 701.482 246.062 711.634 246.062C721.786 246.062 731.539 242.029 738.729 234.839C745.908 227.659 749.951 217.906 749.951 207.753C749.951 197.6 745.918 187.847 738.729 180.657C731.55 173.477 721.797 169.433 711.645 169.433C701.493 169.433 691.74 173.466 684.551 180.657C677.372 187.836 673.328 197.589 673.328 207.742Z"
      fill="#424242" />
  </g>
  <g id="TG_M1" name="TG_M1">
    <path fill-rule="evenodd" clip-rule="evenodd"
      d="M159.453 295.011C166.643 302.19 176.384 306.234 186.547 306.234C196.71 306.234 206.452 302.201 213.631 295.011C220.821 287.82 224.853 278.078 224.853 267.914C224.853 257.751 220.821 248.008 213.631 240.829C206.441 233.639 196.699 229.605 186.536 229.605C176.373 229.605 166.632 233.639 159.453 240.829C152.274 248.019 148.23 257.761 148.23 267.925C148.23 278.089 152.263 287.831 159.453 295.011Z"
      fill="#424242" />
    <path id="TG_M1_BG" fill-rule="evenodd" clip-rule="evenodd"
      d="M193.586 238.093C185.672 236.223 177.346 237.574 170.427 241.856C163.518 246.127 158.577 252.971 156.717 260.886C154.847 268.801 156.198 277.127 160.48 284.047C164.751 290.956 171.595 295.898 179.509 297.768C187.423 299.639 195.748 298.287 202.668 294.005C209.576 289.734 214.517 282.89 216.388 274.975C218.258 267.06 216.907 258.735 212.625 251.815C208.355 244.905 201.511 239.964 193.597 238.104L193.586 238.093Z"
      fill="#171717" />
  </g>

  <path fill-rule="evenodd" clip-rule="evenodd"
    d="M357.46 267.839C367.105 271.05 377.625 270.304 386.706 265.763C395.788 261.221 402.708 253.253 405.919 243.608C409.13 233.963 408.384 223.442 403.843 214.36C399.302 205.266 391.334 198.357 381.69 195.146C372.046 191.934 361.526 192.68 352.444 197.222C343.362 201.763 336.442 209.732 333.231 219.377C330.02 229.022 330.766 239.542 335.307 248.625C339.848 257.707 347.816 264.627 357.46 267.839Z"
    fill="#424242" />

  <path fill-rule="evenodd" clip-rule="evenodd"
    d="M440.301 314.917C450.193 317.252 460.605 315.566 469.244 310.224C477.883 304.883 484.056 296.33 486.391 286.437C488.727 276.543 487.04 266.13 481.699 257.491C476.358 248.852 467.806 242.678 457.913 240.342C448.02 238.007 437.609 239.694 428.97 245.035C420.331 250.377 414.158 258.929 411.822 268.823C409.487 278.716 411.174 289.129 416.515 297.768C421.856 306.407 430.408 312.581 440.301 314.917Z"
    fill="#424242" />
  <path fill-rule="evenodd" clip-rule="evenodd"
    d="M268.652 268.52C278.469 271.126 288.924 269.731 297.714 264.627C306.504 259.524 312.905 251.144 315.511 241.326C318.116 231.508 316.722 221.053 311.618 212.262C306.515 203.471 298.136 197.07 288.319 194.465C278.502 191.859 268.047 193.254 259.257 198.357C250.467 203.461 244.066 211.84 241.46 221.658C238.855 231.476 240.249 241.932 245.353 250.722C250.456 259.513 258.835 265.914 268.652 268.52Z"
    fill="#424242" />
  <path fill-rule="evenodd" clip-rule="evenodd"
    d="M585.287 154.566C587.623 144.673 585.936 134.26 580.595 125.621C575.254 116.981 566.702 110.807 556.809 108.472C546.916 106.136 536.504 107.823 527.866 113.165C519.227 118.506 513.053 127.059 510.718 136.952C508.383 146.846 510.069 157.258 515.41 165.898C520.751 174.537 529.304 180.711 539.196 183.046C549.089 185.382 559.501 183.695 568.14 178.354C576.778 173.012 582.952 164.46 585.287 154.566Z"
    fill="#424242" />
  <path fill-rule="evenodd" clip-rule="evenodd"
    d="M621.701 146.694C631.681 148.619 642.006 146.5 650.429 140.802C658.84 135.103 664.646 126.302 666.571 116.322C668.495 106.342 666.376 96.0158 660.678 87.5928C654.98 79.1698 646.179 73.3743 636.2 71.4496C626.221 69.525 615.895 71.6443 607.473 77.3425C599.061 83.0407 593.256 91.8422 591.331 101.822C589.407 111.802 591.526 122.128 597.224 130.551C602.921 138.963 611.722 144.77 621.701 146.694Z"
    fill="#424242" />
  <path fill-rule="evenodd" clip-rule="evenodd"
    d="M783.392 354.459C793.285 356.794 803.697 355.107 812.336 349.766C820.974 344.425 827.148 335.872 829.483 325.978C831.818 316.085 830.132 305.672 824.791 297.033C819.45 288.394 810.898 282.22 801.005 279.884C791.112 277.549 780.7 279.235 772.061 284.577C763.423 289.918 757.249 298.471 754.914 308.365C752.579 318.258 754.265 328.671 759.606 337.31C764.947 345.949 773.499 352.123 783.392 354.459Z"
    fill="#424242" />
  <path fill-rule="evenodd" clip-rule="evenodd"
    d="M789.933 262.735C799.826 265.071 810.238 263.384 818.877 258.043C827.515 252.701 833.689 244.148 836.024 234.255C838.36 224.361 836.673 213.949 831.332 205.31C825.991 196.67 817.439 190.496 807.546 188.161C797.653 185.825 787.241 187.512 778.603 192.853C769.964 198.195 763.791 206.748 761.455 216.641C759.12 226.535 760.806 236.947 766.147 245.586C771.488 254.226 780.041 260.4 789.933 262.735Z"
    fill="#424242" />
  <path fill-rule="evenodd" clip-rule="evenodd"
    d="M579.816 281.42C576.876 291.14 577.914 301.639 582.703 310.603C587.493 319.566 595.656 326.249 605.376 329.19C615.095 332.131 625.594 331.093 634.557 326.303C643.52 321.513 650.201 313.349 653.142 303.629C656.083 293.908 655.045 283.409 650.255 274.445C645.466 265.482 637.303 258.8 627.583 255.859C617.863 252.918 607.365 253.956 598.402 258.746C589.439 263.535 582.757 271.699 579.816 281.42Z"
    fill="#424242" />
  <path fill-rule="evenodd" clip-rule="evenodd"
    d="M560.042 300.071C552.181 293.627 542.094 290.578 531.974 291.572C521.865 292.578 512.567 297.552 506.123 305.413C499.679 313.273 496.63 323.361 497.625 333.482C498.63 343.592 503.604 352.891 511.464 359.335C519.324 365.779 529.412 368.828 539.532 367.834C549.641 366.828 558.939 361.854 565.383 353.994C571.826 346.133 574.875 336.045 573.881 325.924C572.875 315.814 567.902 306.515 560.042 300.071Z"
    fill="#424242" />
  <path fill-rule="evenodd" clip-rule="evenodd"
    d="M593.721 369.791C583.828 367.455 573.416 369.142 564.777 374.484C556.139 379.825 549.965 388.378 547.63 398.271C545.294 408.165 546.981 418.577 552.322 427.217C557.663 435.856 566.215 442.03 576.108 444.365C586.001 446.701 596.413 445.014 605.051 439.673C613.69 434.331 619.863 425.779 622.199 415.885C624.534 405.991 622.848 395.579 617.507 386.94C612.165 378.3 603.613 372.126 593.721 369.791Z"
    fill="#424242" />
  <path fill-rule="evenodd" clip-rule="evenodd"
    d="M403.843 381.685C394.048 378.971 383.582 380.257 374.738 385.264C365.894 390.27 359.407 398.585 356.693 408.381C353.979 418.177 355.266 428.644 360.272 437.489C365.278 446.333 373.592 452.821 383.387 455.535C393.183 458.249 403.649 456.962 412.493 451.956C421.337 446.95 427.824 438.635 430.538 428.838C433.251 419.042 431.965 408.576 426.959 399.731C421.953 390.886 413.639 384.399 403.843 381.685Z"
    fill="#424242" />

  <g id="TG_M4" name="TG_M4">
    <path id="TG_M4_BG" fill-rule="evenodd" clip-rule="evenodd"
      d="M635.995 79.2347C628.08 77.3641 619.755 78.7157 612.836 82.9975C605.927 87.2685 600.986 94.1128 599.116 102.028C597.245 109.942 598.597 118.268 602.878 125.188C607.149 132.097 613.993 137.039 621.907 138.909C629.821 140.78 638.146 139.428 645.066 135.147C651.975 130.876 656.916 124.031 658.775 116.116C660.646 108.202 659.294 99.876 655.013 92.9559C650.742 86.0466 643.898 81.1053 635.984 79.2455L635.995 79.2347Z"
      fill="#171717" />
  </g>
  <g id="TG_M2" name="TG_M2">
    <path id="TG_M2_BG" fill-rule="evenodd" clip-rule="evenodd"
      d="M405.011 114.213C397.097 112.343 388.771 113.694 381.852 117.976C374.943 122.247 370.002 129.092 368.142 137.006C366.272 144.921 367.624 153.247 371.905 160.167C376.176 167.076 383.02 172.018 390.934 173.877C398.848 175.748 407.173 174.396 414.093 170.115C421.001 165.844 425.942 158.999 427.802 151.084C429.673 143.17 428.321 134.844 424.04 127.924C419.769 121.015 412.925 116.073 405.011 114.213Z"
      fill="#171717" />
  </g>



  <g id="TG_R3" name="TG_R3">
    <path id="TG_R3_BG" fill-rule="evenodd" clip-rule="evenodd"
      d="M591.958 377.252C584.044 375.381 575.719 376.733 568.799 381.014C561.89 385.285 556.949 392.13 555.09 400.045C553.219 407.959 554.571 416.285 558.852 423.205C563.123 430.114 569.967 435.056 577.881 436.915C585.795 438.786 594.12 437.434 601.04 433.153C607.949 428.882 612.89 422.037 614.749 414.123C616.62 406.208 615.268 397.882 610.987 390.962C606.716 384.053 599.872 379.111 591.958 377.241V377.252Z"
      fill="#171717" />
  </g>
  <g id="TG_L3" name="TG_L3">
    <path id="TG_L3_BG" fill-rule="evenodd" clip-rule="evenodd"
      d="M400.654 388.778C392.739 386.907 384.414 388.259 377.495 392.541C370.586 396.812 365.645 403.656 363.775 411.571C361.904 419.486 363.256 427.811 367.537 434.731C371.808 441.641 378.652 446.582 386.566 448.442C394.48 450.312 402.805 448.961 409.725 444.679C416.634 440.408 421.575 433.564 423.434 425.649C425.305 417.734 423.953 409.408 419.672 402.488C415.401 395.579 408.557 390.638 400.643 388.778H400.654Z"
      fill="#171717" />
  </g>
  <g id="TG_M3" name="TG_M3">
    <path id="TG_M3_BG" fill-rule="evenodd" clip-rule="evenodd"
      d="M555.046 115.933C547.132 114.062 538.807 115.414 531.888 119.695C524.979 123.966 520.038 130.811 518.178 138.726C516.308 146.64 517.659 154.966 521.941 161.886C526.211 168.795 533.055 173.737 540.969 175.607C548.884 177.478 557.209 176.126 564.128 171.845C571.037 167.574 575.978 160.729 577.849 152.814C579.719 144.9 578.368 136.574 574.086 129.654C569.815 122.745 562.972 117.803 555.057 115.944L555.046 115.933Z"
      fill="#171717" />
  </g>
  <path fill-rule="evenodd" clip-rule="evenodd"
    d="M498.976 397.893C494.219 396.768 489.354 396.617 484.629 397.385C479.904 398.152 475.331 399.839 471.179 402.402C467.028 404.964 463.481 408.305 460.681 412.187C457.892 416.069 455.848 420.491 454.724 425.238C453.599 429.995 453.448 434.861 454.215 439.586C454.983 444.311 456.67 448.885 459.232 453.037C461.795 457.189 465.135 460.736 469.017 463.536C472.898 466.326 477.32 468.369 482.067 469.494C486.824 470.618 491.689 470.77 496.414 470.002C501.139 469.234 505.712 467.548 509.864 464.985C514.016 462.422 517.562 459.081 520.362 455.2C523.152 451.318 525.195 446.895 526.32 442.149C527.444 437.391 527.595 432.526 526.828 427.8C526.06 423.075 524.373 418.502 521.811 414.35C519.249 410.197 515.908 406.651 512.026 403.851C508.145 401.061 503.723 399.017 498.976 397.893ZM484.143 394.368C489.257 393.535 494.544 393.708 499.679 394.919C504.815 396.13 509.615 398.347 513.821 401.374C518.027 404.402 521.638 408.251 524.417 412.749C527.195 417.247 529.023 422.2 529.855 427.314C530.688 432.428 530.515 437.716 529.304 442.852C528.093 447.988 525.876 452.788 522.849 456.994C519.822 461.201 515.973 464.812 511.475 467.591C506.977 470.37 502.025 472.197 496.911 473.03C491.797 473.862 486.51 473.689 481.375 472.478C476.239 471.267 471.439 469.05 467.233 466.023C463.027 462.995 459.416 459.146 456.637 454.648C453.859 450.15 452.032 445.198 451.199 440.084C450.367 434.969 450.539 429.682 451.75 424.546C452.961 419.41 455.178 414.609 458.205 410.403C461.232 406.197 465.081 402.585 469.579 399.807C474.077 397.028 479.029 395.2 484.143 394.368Z"
    fill="#A6A6A6" />

  <g id="TG_X" name="TG_X">
    <path id="TG_X_BG"
      d="M563.805 259.645C575.776 247.674 575.776 228.265 563.805 216.294C551.835 204.323 532.428 204.323 520.458 216.294C508.487 228.265 508.487 247.674 520.458 259.645C532.428 271.616 551.835 271.616 563.805 259.645Z"
      fill="#171717" />
  </g>
  <g id="TG_LT" name="TG_LT">
    <path id="TG_LT_BG"
      d="M795.188 347.745C812.034 346.078 824.34 331.07 822.673 314.222C821.006 297.375 805.999 285.069 789.153 286.735C772.307 288.402 760.001 303.411 761.668 320.258C763.334 337.105 778.342 349.412 795.188 347.745Z"
      fill="#171717" />
  </g>
  <g id="TG_RB" name="TG_RB">
    <path id="TG_RB_BG"
      d="M739.954 219.471C746.432 203.83 739.005 185.899 723.365 179.42C707.725 172.942 689.795 180.369 683.317 196.01C676.839 211.651 684.266 229.582 699.905 236.061C715.545 242.54 733.475 235.112 739.954 219.471Z"
      fill="#171717" />
  </g>
  <g id="TG_LB" name="TG_LB">
    <path ID="TG_LB_BG"
      d="M805.777 255.324C822.253 251.435 832.457 234.925 828.568 218.448C824.679 201.972 808.171 191.767 791.695 195.656C775.22 199.545 765.016 216.055 768.904 232.531C772.793 249.008 789.301 259.213 805.777 255.324Z"
      fill="#171717" />
  </g>

  <g id="TG_Y" name="TG_Y">
    <path id="TG_Y_BG"
      d="M629.933 230.65C646.409 226.761 656.613 210.251 652.724 193.774C648.835 177.297 632.327 167.093 615.851 170.981C599.375 174.87 589.172 191.38 593.06 207.857C596.949 224.334 613.457 234.538 629.933 230.65Z"
      fill="#171717" />
  </g>
  <g id="TG_B" name="TG_B">
    <path id="TG_B_BG"
      d="M623.529 322.385C640.005 318.496 650.209 301.986 646.32 285.509C642.431 269.033 625.923 258.828 609.447 262.717C592.971 266.606 582.768 283.115 586.656 299.592C590.545 316.069 607.053 326.274 623.529 322.385Z"
      fill="#171717" />
  </g>
  <g id="TG_A" name="TG_A">
    <path id="TG_A_BG"
      d="M538.757 360.249C555.603 358.582 567.909 343.574 566.242 326.726C564.575 309.879 549.568 297.573 532.722 299.24C515.875 300.906 503.57 315.915 505.237 332.762C506.903 349.61 521.911 361.916 538.757 360.249Z"
      fill="#171717" />
  </g>
  <g id="TG_RT" name="TG_RT">
    <path id="TG_RT_BG"
      d="M712.125 329.33C728.6 325.441 738.804 308.932 734.916 292.455C731.027 275.978 714.519 265.773 698.043 269.662C681.567 273.551 671.363 290.061 675.252 306.538C679.141 323.015 695.649 333.219 712.125 329.33Z"
      fill="#171717" />
  </g>
  <g id="TG_DOWN" name="TG_DOWN">
    <path id="TG_DOWN_BG" fill-rule="evenodd" clip-rule="evenodd"
      d="M376.619 201.666C368.705 199.795 360.38 201.147 353.46 205.429C346.551 209.7 341.61 216.544 339.74 224.459C337.869 232.374 339.221 240.699 343.502 247.619C347.773 254.529 354.617 259.47 362.531 261.33C370.445 263.2 378.771 261.849 385.69 257.567C392.599 253.296 397.54 246.452 399.4 238.537C401.27 230.622 399.918 222.296 395.637 215.376C391.366 208.467 384.522 203.526 376.608 201.655L376.619 201.666Z"
      fill="#171717" />
  </g>
  <g id="TG_LEFT" name="TG_LEFT">
    <path id="TG_LEFT_BG" fill-rule="evenodd" clip-rule="evenodd"
      d="M308.31 238.537C310.18 230.622 308.829 222.296 304.547 215.376C300.277 208.467 293.433 203.526 285.519 201.655C277.604 199.784 269.279 201.136 262.36 205.418C255.451 209.689 250.51 216.533 248.64 224.448C246.769 232.363 248.121 240.688 252.402 247.609C256.673 254.518 263.517 259.459 271.431 261.319C279.345 263.189 287.67 261.838 294.59 257.556C301.499 253.285 306.44 246.441 308.299 238.526L308.31 238.537Z"
      fill="#171717" />
  </g>
  <g id="TG_RIGHT" name="TG_RIGHT">
    <path id="TG_RIGHT_BG" fill-rule="evenodd" clip-rule="evenodd"
      d="M419.272 270.596C417.401 278.511 418.753 286.837 423.034 293.757C427.305 300.666 434.149 305.607 442.063 307.467C449.977 309.338 458.302 307.986 465.222 303.704C472.131 299.433 477.072 292.589 478.931 284.674C480.802 276.759 479.45 268.434 475.169 261.514C470.898 254.604 464.054 249.663 456.14 247.792C448.226 245.922 439.901 247.273 432.981 251.555C426.072 255.826 421.131 262.67 419.261 270.585L419.272 270.596Z"
      fill="#171717" />
  </g>
  <g id="TG_UP" name="TG_UP">
    <path id="TG_UP_BG" fill-rule="evenodd" clip-rule="evenodd"
      d="M499.323 396.401C489.43 394.065 479.018 395.752 470.379 401.093C461.741 406.435 455.567 414.988 453.232 424.881C450.896 434.775 452.583 445.187 457.924 453.826C463.265 462.466 471.817 468.64 481.71 470.975C491.603 473.311 502.015 471.624 510.653 466.282C519.292 460.941 525.466 452.388 527.801 442.495C530.136 432.601 528.45 422.189 523.109 413.549C517.768 404.91 509.215 398.736 499.323 396.401Z"
      fill="#171717" />
  </g>
  <path fill-rule="evenodd" clip-rule="evenodd"
    d="M232.141 21.6252C232.141 21.4954 232.184 21.3765 232.281 21.29C232.378 21.1927 232.487 21.1494 232.616 21.1494H236.746C236.876 21.1494 236.995 21.1927 237.092 21.29C237.179 21.3873 237.222 21.4954 237.222 21.636C237.222 21.7765 237.179 21.8847 237.082 21.9712C236.984 22.0685 236.876 22.1117 236.746 22.1117H235.157V24.9879C235.125 25.269 234.973 25.4312 234.692 25.4528C234.562 25.4528 234.444 25.4096 234.346 25.3231C234.249 25.2366 234.206 25.1285 234.206 24.9879V22.1117H232.616C232.487 22.1117 232.368 22.0685 232.281 21.9712C232.184 21.8847 232.141 21.7657 232.141 21.636V21.6252ZM239.655 24.9663C239.622 25.2474 239.471 25.3988 239.19 25.4312C239.06 25.4312 238.941 25.388 238.844 25.3015C238.747 25.215 238.703 25.1068 238.703 24.9771V21.6252C238.703 21.4954 238.757 21.3873 238.855 21.3008C238.952 21.2143 239.06 21.171 239.19 21.171H242.174C242.596 21.1819 242.909 21.2792 243.115 21.4414C243.331 21.6035 243.482 21.7982 243.58 22.0144C243.677 22.2307 243.72 22.4469 243.72 22.6632C243.72 22.8794 243.677 23.1065 243.58 23.3227C243.482 23.539 243.331 23.7228 243.115 23.8958C242.898 24.0688 242.628 24.1445 242.293 24.1445H240.498C240.368 24.1445 240.249 24.1013 240.163 24.0039C240.066 23.9174 240.022 23.7985 240.022 23.6687C240.022 23.539 240.066 23.4201 240.163 23.3336C240.26 23.2362 240.368 23.193 240.498 23.193H242.336C242.423 23.193 242.498 23.1606 242.563 23.1065C242.617 23.0524 242.671 22.9767 242.693 22.9011C242.725 22.8254 242.736 22.7389 242.736 22.6632C242.736 22.5875 242.725 22.5118 242.693 22.4361C242.661 22.3604 242.617 22.2847 242.563 22.2307C242.509 22.1766 242.433 22.1442 242.336 22.1334H239.839C239.72 22.1334 239.655 22.1982 239.655 22.3172V24.9987V24.9663Z"
    fill="#A6A6A6" />
  <path fill-rule="evenodd" clip-rule="evenodd"
    d="M271.063 21.7333C271.063 21.8631 271.02 21.9712 270.923 22.0685C270.836 22.1658 270.717 22.2091 270.588 22.2091H267.755C267.668 22.2091 267.593 22.2307 267.528 22.2739C267.474 22.3064 267.431 22.3496 267.398 22.3929C267.366 22.4361 267.355 22.4794 267.355 22.5334C267.355 22.5875 267.366 22.6308 267.398 22.674C267.431 22.7173 267.474 22.7605 267.528 22.7929C267.582 22.8254 267.658 22.847 267.755 22.8578H269.766C270.101 22.8578 270.371 22.9443 270.588 23.0849C270.804 23.2255 270.955 23.3985 271.053 23.5823C271.139 23.7661 271.193 23.9607 271.193 24.1553C271.193 24.35 271.15 24.5338 271.053 24.7176C270.955 24.9014 270.804 25.0744 270.588 25.215C270.371 25.3555 270.101 25.4312 269.777 25.4312H269.733C269.733 25.4312 269.679 25.4312 269.647 25.4312H266.976C266.847 25.4312 266.728 25.388 266.641 25.2907C266.555 25.2042 266.501 25.0852 266.501 24.9555C266.501 24.8257 266.544 24.7176 266.641 24.6203C266.728 24.523 266.847 24.4797 266.976 24.4797H269.82C269.906 24.4797 269.982 24.4689 270.047 24.4256C270.101 24.3932 270.144 24.35 270.177 24.2959C270.209 24.2418 270.22 24.1986 270.22 24.1445C270.22 24.1121 270.209 24.0688 270.177 24.004C270.144 23.9499 270.101 23.8958 270.047 23.8634C269.993 23.8201 269.917 23.8093 269.82 23.7985H267.809C267.474 23.7985 267.204 23.712 266.987 23.5715C266.771 23.4309 266.62 23.2687 266.522 23.0849C266.436 22.9011 266.382 22.7173 266.382 22.5334C266.382 22.3496 266.425 22.1658 266.522 21.982C266.62 21.7982 266.771 21.636 266.987 21.4954C267.204 21.3549 267.474 21.2792 267.798 21.2684H267.841C267.841 21.2684 267.895 21.2684 267.928 21.2684H270.588C270.717 21.2684 270.836 21.3116 270.923 21.4089C271.009 21.5062 271.063 21.6144 271.063 21.7441V21.7333ZM274.015 21.2576H276.75C276.88 21.2576 276.988 21.3116 277.075 21.4089C277.161 21.5062 277.204 21.6144 277.204 21.7441C277.183 22.0253 277.031 22.1766 276.74 22.2091H274.242C274.058 22.2091 273.918 22.2848 273.799 22.4145C273.68 22.5443 273.593 22.6848 273.539 22.847C273.485 23.0092 273.464 23.1714 273.464 23.3444C273.464 23.5174 273.485 23.6796 273.539 23.8418C273.593 24.004 273.68 24.1553 273.799 24.2743C273.918 24.404 274.069 24.4689 274.242 24.4797H276.74C276.869 24.4797 276.977 24.5338 277.064 24.6311C277.15 24.7284 277.194 24.8365 277.194 24.9663C277.194 25.096 277.14 25.2042 277.053 25.2907C276.967 25.3772 276.858 25.4204 276.729 25.4312H273.993C273.669 25.4096 273.388 25.2907 273.172 25.0528C272.955 24.8149 272.804 24.5554 272.707 24.2526C272.62 23.9499 272.566 23.6471 272.566 23.3444C272.566 23.0416 272.609 22.7281 272.707 22.4361C272.804 22.1442 272.955 21.8739 273.172 21.636C273.388 21.3981 273.658 21.2792 273.983 21.2576H274.015ZM277.194 23.3228C277.194 23.193 277.15 23.0741 277.053 22.9876C276.956 22.8903 276.848 22.847 276.718 22.847H274.577C274.447 22.847 274.329 22.8903 274.242 22.9768C274.156 23.0741 274.112 23.1822 274.112 23.312C274.112 23.4417 274.156 23.5606 274.253 23.6471C274.35 23.7336 274.458 23.7877 274.588 23.7877H276.729C276.858 23.7877 276.967 23.7445 277.064 23.6471C277.161 23.5606 277.204 23.4417 277.204 23.312L277.194 23.3228ZM279.118 21.1494C279.248 21.1494 279.367 21.1927 279.453 21.2792C279.551 21.3657 279.594 21.4738 279.605 21.6036V23.312C279.605 23.5066 279.605 23.6796 279.648 23.8418C279.68 24.004 279.756 24.1553 279.875 24.2743C279.994 24.404 280.145 24.4689 280.318 24.4797H282.589C282.718 24.4797 282.827 24.5338 282.913 24.6311C283 24.7284 283.043 24.8365 283.043 24.9663C283.043 25.096 282.989 25.2042 282.902 25.2907C282.816 25.3772 282.708 25.4204 282.578 25.4312H280.07C279.734 25.4096 279.464 25.3015 279.248 25.096C279.032 24.8906 278.88 24.6419 278.783 24.3391C278.697 24.0472 278.642 23.7228 278.642 23.3876V21.5927C278.642 21.463 278.697 21.3549 278.783 21.2684C278.869 21.1819 278.978 21.1386 279.107 21.1278L279.118 21.1494Z"
    fill="#A6A6A6" />
</svg>
