<svg width="26" height="26" viewBox="0 0 26 26" fill="none" xmlns="http://www.w3.org/2000/svg">
<path d="M13.0111 19.1498C16.3018 19.1498 18.9694 16.4822 18.9694 13.1915C18.9694 9.90081 16.3018 7.23315 13.0111 7.23315C9.72042 7.23315 7.05276 9.90081 7.05276 13.1915C7.05276 16.4822 9.72042 19.1498 13.0111 19.1498Z" stroke="currentColor" stroke-width="1.73333" stroke-linejoin="round"/>
<path d="M21.1035 4.88031L19.7708 6.22063" stroke="currentColor" stroke-width="1.73333" stroke-linecap="round"/>
<path d="M5.99484 19.9036L4.88611 21.0186" stroke="currentColor" stroke-width="1.73333" stroke-linecap="round"/>
<path d="M13 22.3997V24.0247" stroke="currentColor" stroke-width="1.73333" stroke-linecap="round"/>
<path d="M23.8332 12.6498H21.6666" stroke="currentColor" stroke-width="1.73333" stroke-linecap="round"/>
<path d="M20.33 19.6821L21.6666 21.0186" stroke="currentColor" stroke-width="1.73333" stroke-linecap="round"/>
<path fill-rule="evenodd" clip-rule="evenodd" d="M13.0111 9.39984C10.917 9.39984 9.21945 11.0974 9.21945 13.1915C9.21945 15.2856 10.917 16.9832 13.0111 16.9832" fill="currentColor"/>
<path d="M2.16678 13.1915H4.33345" stroke="currentColor" stroke-width="1.73333" stroke-linecap="round"/>
<path d="M5.4407 4.88025L6.55264 5.99216" stroke="currentColor" stroke-width="1.73333" stroke-linecap="round"/>
<path d="M13 1.81659V3.98326" stroke="currentColor" stroke-width="1.73333" stroke-linecap="round"/>
</svg>
