<svg width="8" height="10" viewBox="0 0 8 10" fill="none" xmlns="http://www.w3.org/2000/svg">
<path fill-rule="evenodd" clip-rule="evenodd" d="M3.66992 6.04727C4.06996 6.04727 4.39429 6.37165 4.39429 6.77171C4.39429 7.17178 4.06996 7.49616 3.66992 7.49616C3.26988 7.49616 2.94548 7.17178 2.94548 6.77171C2.94548 6.37165 3.26988 6.04727 3.66992 6.04727ZM3.66992 0.943726C3.03202 0.943726 2.44816 1.20323 2.0265 1.62492C1.60484 2.04661 1.34535 2.63049 1.34535 3.26843V3.90638C1.04262 3.928 0.761532 4.06857 0.556108 4.27401C0.329059 4.50107 0.188477 4.81463 0.188477 5.14983V8.3936C0.188477 8.73961 0.329059 9.05317 0.556108 9.26942C0.783156 9.48568 1.0967 9.63705 1.43186 9.63705H5.89715C6.24313 9.63705 6.54586 9.49649 6.77291 9.26942C6.99995 9.04236 7.14047 8.7288 7.14047 8.3936V5.14983C7.14047 4.80382 6.99995 4.49026 6.77291 4.27401C6.56748 4.06857 6.29714 3.93881 5.9836 3.90638V3.26843C5.9836 2.63049 5.72411 2.04661 5.30245 1.62492C4.88079 1.20323 4.29699 0.943726 3.6591 0.943726H3.66992ZM5.09709 3.90638H2.24275V3.26843C2.24275 2.87918 2.40494 2.52236 2.66443 2.26286C2.92391 2.00336 3.28069 1.84117 3.66992 1.84117C4.05914 1.84117 4.41593 2.00336 4.67541 2.26286C4.93489 2.52236 5.09709 2.87918 5.09709 3.26843V3.90638ZM5.89715 4.80382H1.43186C1.33456 4.80382 1.24802 4.84707 1.18315 4.91195C1.11827 4.97682 1.07505 5.06332 1.07505 5.16064V8.40442C1.07505 8.50173 1.11827 8.58823 1.18315 8.65311C1.24802 8.71798 1.33456 8.76123 1.43186 8.76123H5.89715C5.99446 8.76123 6.08093 8.71798 6.1458 8.66392C6.21067 8.59904 6.25389 8.51254 6.25389 8.41523V5.17145C6.25389 5.07414 6.21067 4.98764 6.1458 4.92276C6.08093 4.85789 5.99446 4.81464 5.89715 4.81464V4.80382Z" fill="#A6A6A6"/>
</svg>
