<svg width="210" height="40" viewBox="0 0 210 30" fill="none" xmlns="http://www.w3.org/2000/svg">
<g clip-path="url(#clip0_2811_14114)">
<path d="M35.8161 22.8108H27.4867C27.0074 22.8108 26.5616 22.5935 26.2465 22.2413C25.2007 21.0794 23.3404 20.6448 21.5405 21.8167C21.3595 21.9352 21.2019 22.0899 21.0813 22.2677C19.2847 24.9142 21.1751 27.722 23.7326 27.722C24.7382 27.722 25.6398 27.2875 26.2566 26.5962C26.5683 26.2473 27.004 26.0334 27.4766 26.0334H34.177V29.4107C34.177 29.9867 33.8653 30.52 33.3558 30.8063L25.8443 35.0658C24.5404 35.8031 22.9248 35.8031 21.6209 35.0658L15.3999 31.5371C14.096 30.7998 13.2882 29.4238 13.2882 27.9458V20.8917C13.2882 19.4137 14.096 18.0378 15.3999 17.3005L21.6209 13.7718C22.9214 13.0344 24.5404 13.0311 25.8443 13.7718L34.9982 18.9628C35.7859 19.4105 36.7881 19.1438 37.2406 18.3736C37.6931 17.6033 37.425 16.6158 36.6406 16.1714L27.4833 10.9837C25.1672 9.67031 22.2913 9.67031 19.9752 10.9837L13.7541 14.5124C11.438 15.8258 10 18.2715 10 20.895V27.9491C10 30.5726 11.438 33.0217 13.7541 34.335L19.9752 37.8637C21.1316 38.5221 22.4321 38.848 23.7292 38.848C25.0264 38.848 26.3269 38.5188 27.4833 37.8637L36.6373 32.6727C37.1468 32.3864 37.4585 31.8531 37.4585 31.277V24.4237C37.4585 23.5317 36.7244 22.8108 35.8161 22.8108Z" fill="#C61C20"/>
<path d="M61.2131 23.0253L54.9183 22.9726C54.1507 23.0023 53.2323 23.7001 53.2256 24.6119C53.2189 25.5237 53.9663 26.2676 54.8948 26.2742L59.5204 26.3137V29.4573C59.5204 29.8128 59.2221 30.1025 58.8601 30.1025H50.7318C50.3698 30.1025 50.0748 29.8161 50.0748 29.4573V19.3913C50.0748 19.0358 50.3664 18.7461 50.7318 18.7461H61.203C62.1315 18.7461 62.8823 18.0055 62.8823 17.097C62.8823 16.1884 62.1281 15.4478 61.203 15.4478H50.7318C48.5162 15.4478 46.7129 17.2188 46.7129 19.3946V29.4573C46.7129 31.6331 48.5162 33.4041 50.7318 33.4041H58.8601C61.079 33.4041 62.8823 31.6331 62.8823 29.4573V24.6777C62.8823 23.7692 62.1382 23.0352 61.2131 23.0286V23.0253Z" fill="white"/>
<path d="M157.234 15.4478H149.705C147.49 15.4478 145.687 17.2187 145.687 19.3946V29.4573C145.687 31.6331 147.49 33.404 149.705 33.404H157.234C159.449 33.404 161.253 31.6331 161.253 29.4573V19.3913C161.253 17.2155 159.449 15.4445 157.234 15.4445V15.4478ZM157.891 29.4573C157.891 29.8128 157.599 30.1025 157.234 30.1025H149.705C149.343 30.1025 149.048 29.8161 149.048 29.4573V19.3913C149.048 19.0358 149.34 18.7461 149.705 18.7461H157.234C157.596 18.7461 157.891 19.0325 157.891 19.3913V29.454V29.4573Z" fill="white"/>
<path d="M78.8841 30.0992H69.7972C69.4352 30.0992 69.1402 29.8128 69.1402 29.454V26.0701H77.9892C78.9176 26.0701 79.6685 25.3295 79.6685 24.421C79.6685 23.5125 78.9143 22.7719 77.9892 22.7719H69.1402V19.3946C69.1402 19.0391 69.4319 18.7494 69.7972 18.7494H78.8841C79.8126 18.7494 80.5634 18.0088 80.5634 17.1003C80.5634 16.1917 79.8092 15.4511 78.8841 15.4511H69.7972C67.5816 15.4511 65.7783 17.222 65.7783 19.3979V29.4606C65.7783 31.6364 67.5816 33.4074 69.7972 33.4074H78.8841C79.8126 33.4074 80.5634 32.6667 80.5634 31.7582C80.5634 30.8497 79.8092 30.1091 78.8841 30.1091V30.0992Z" fill="white"/>
<path d="M96.5648 30.0992H87.4779C87.1159 30.0992 86.8209 29.8128 86.8209 29.454V26.0701H95.6698C96.5983 26.0701 97.3491 25.3295 97.3491 24.421C97.3491 23.5125 96.595 22.7719 95.6698 22.7719H86.8209V19.3946C86.8209 19.0391 87.1125 18.7494 87.4779 18.7494H96.5648C97.4933 18.7494 98.2441 18.0088 98.2441 17.1003C98.2441 16.1917 97.4899 15.4511 96.5648 15.4511H87.4779C85.2623 15.4511 83.459 17.222 83.459 19.3979V29.4606C83.459 31.6364 85.2623 33.4074 87.4779 33.4074H96.5648C97.4933 33.4074 98.2441 32.6667 98.2441 31.7582C98.2441 30.8497 97.4899 30.1091 96.5648 30.1091V30.0992Z" fill="white"/>
<path d="M178.32 15.4478C177.392 15.4478 176.641 16.1884 176.641 17.0969V27.2057L167.122 16.037C166.666 15.5037 165.922 15.3062 165.261 15.5432C164.598 15.7802 164.155 16.3991 164.155 17.0936V31.7483C164.155 32.6601 164.909 33.3974 165.835 33.3974C166.76 33.3974 167.514 32.6568 167.514 31.7483V21.6394L177.033 32.8082C177.358 33.19 177.834 33.4007 178.32 33.4007C178.511 33.4007 178.706 33.3678 178.893 33.3019C179.557 33.0649 180 32.4461 180 31.7516V17.0969C180 16.1851 179.245 15.4478 178.32 15.4478Z" fill="white"/>
<path d="M110.636 24.421L114.343 17.9001C114.799 17.1035 114.504 16.0996 113.696 15.6552C112.905 15.2174 111.866 15.4906 111.41 16.2905L107.73 22.7685H104.509V17.0969C104.509 16.1851 103.755 15.4478 102.83 15.4478C101.905 15.4478 101.15 16.1884 101.15 17.0969V31.7516C101.15 32.6634 101.905 33.4007 102.83 33.4007C103.755 33.4007 104.509 32.6601 104.509 31.7516V26.0734H107.727L111.41 32.5548C111.715 33.0979 112.289 33.4007 112.875 33.4007C113.157 33.4007 113.435 33.3316 113.693 33.1901C114.504 32.7457 114.796 31.7417 114.34 30.9451L110.633 24.421H110.636Z" fill="white"/>
<path d="M141.571 15.5103C140.693 15.27 139.751 15.7671 139.496 16.646L136.493 26.9622L131.653 16.4188C131.619 16.3431 131.556 16.2937 131.512 16.2279C131.445 16.1259 131.388 16.0238 131.298 15.9382C131.214 15.8592 131.117 15.8033 131.023 15.744C130.949 15.6979 130.895 15.6321 130.812 15.5959C130.795 15.5893 130.775 15.5893 130.755 15.5827C130.647 15.5399 130.533 15.5301 130.419 15.507C130.319 15.4906 130.218 15.4577 130.118 15.4577C130.017 15.4577 129.917 15.4906 129.816 15.507C129.702 15.5268 129.588 15.5399 129.481 15.5827C129.464 15.5893 129.444 15.586 129.424 15.5959C129.344 15.6321 129.287 15.6979 129.216 15.744C129.119 15.8066 129.018 15.8592 128.938 15.9415C128.851 16.0271 128.794 16.1259 128.73 16.2246C128.683 16.2937 128.619 16.3464 128.586 16.4221L123.749 26.9654L120.746 16.6493C120.488 15.7737 119.553 15.2667 118.671 15.5136C117.78 15.7638 117.263 16.6789 117.515 17.5512L121.778 32.2058C121.969 32.8708 122.566 33.3481 123.27 33.4007C123.313 33.404 123.354 33.404 123.394 33.404C124.051 33.404 124.654 33.0255 124.926 32.433L130.118 21.1161L135.313 32.433C135.585 33.0255 136.188 33.404 136.845 33.404C136.885 33.404 136.929 33.404 136.969 33.4007C137.673 33.3481 138.27 32.8708 138.461 32.2058L142.724 17.5512C142.979 16.6789 142.463 15.7638 141.568 15.5136L141.571 15.5103Z" fill="white"/>
</g>
<defs>
<clipPath id="clip0_2811_14114">
<rect width="170" height="28.8485" fill="white" transform="translate(10 10)"/>
</clipPath>
</defs>
</svg>
