<svg width="210" height="70" viewBox="0 0 210 55" fill="none" xmlns="http://www.w3.org/2000/svg">
<path d="M27.7968 45.9539L32.6132 44.4641L20 51.7409L37.2955 21.8017L27.7968 45.9539Z" fill="white"/>
<path d="M47.6664 47.8562L43.9677 44.4297L56.5764 51.715L22.0007 51.7066L47.6664 47.8562Z" fill="white"/>
<path d="M39.409 29.6458L38.2913 34.5621L38.2958 20L55.576 49.9476L39.409 29.6458Z" fill="white"/>
<path d="M38.2965 37.1178L41.8313 43.286H34.7626L38.2965 37.1178Z" fill="#FF0000"/>
<path d="M86.5696 38.6555V51.6947H90.2511V38.6555H86.5696Z" fill="white"/>
<path d="M107.555 38.6555L102.11 45.4437L96.663 38.6555H93.2108V51.6947H96.8923V44.5233L102.108 50.9659L107.324 44.5233V51.6947H111.006V38.6555H107.555Z" fill="white"/>
<path d="M129.194 38.6931H116.321L112.894 41.8374H121.984L112.894 51.6947H125.728L129.194 48.511H120.834L129.194 38.6931Z" fill="white"/>
<path d="M156.766 38.6931V46.4787L149.058 38.6931H145.645V51.6947H149.326V43.8322L157.035 51.6947H160.448V38.6931H156.766Z" fill="white"/>
<path d="M163.341 38.6555V51.6947H167.022V38.6555H163.341Z" fill="white"/>
<path d="M134.354 48.5572H144.134L140.721 51.7408H130.672V46.985L134.162 43.803H144.134L140.721 46.985H134.354V48.5572Z" fill="white"/>
<path d="M134.162 38.664L130.672 41.8477H140.721L144.134 38.664H134.162Z" fill="white"/>
<path d="M182.417 48.434C181.994 47.8969 181.574 47.3221 181.151 46.7849C180.729 46.2101 180.345 45.6729 179.962 45.1734L184.872 38.6537H180.499C179.962 39.3825 179.387 40.1113 178.85 40.8777C178.275 41.6441 177.699 42.3729 177.163 43.064L173.827 38.6537H169.494C169.877 39.1516 170.261 39.6887 170.683 40.2259C171.066 40.8007 171.489 41.3379 171.91 41.9127C172.332 42.4875 172.753 43.0247 173.176 43.5995C173.598 44.1367 173.981 44.6738 174.402 45.1717L169.494 51.6913H173.827L177.163 47.2434L180.499 51.6913H184.872C184.489 51.1934 184.106 50.6563 183.683 50.1191C183.26 49.5854 182.84 49.0105 182.417 48.434Z" fill="white"/>
<path d="M77.3864 38.6555L85.249 51.6947H80.9533L74.9315 41.7228L73.0908 38.6555H76.7723H77.3864Z" fill="white"/>
<path d="M73.0907 38.6555H76.7723L74.9315 41.7229L68.9097 51.6947H64.5764L72.4766 38.6555H73.0907Z" fill="white"/>
</svg>
