<svg width="30" height="30" viewBox="0 0 30 30" fill="none" xmlns="http://www.w3.org/2000/svg">
<path d="M11.4274 26.9821C9.33294 26.3585 7.46863 25.2008 5.99242 23.6669C6.54313 23.0142 6.875 22.1709 6.875 21.2501C6.875 19.179 5.19607 17.5001 3.125 17.5001C2.99972 17.5001 2.87587 17.5063 2.75374 17.5183C2.58737 16.7048 2.5 15.8627 2.5 15.0001C2.5 13.6934 2.70048 12.4336 3.07237 11.2497C3.08988 11.2499 3.10743 11.2501 3.125 11.2501C5.19607 11.2501 6.875 9.57113 6.875 7.50007C6.875 6.9055 6.73663 6.34332 6.49038 5.84382C7.93594 4.49969 9.70031 3.49377 11.6576 2.95197C12.2778 4.16762 13.5417 5.00008 15 5.00008C16.4583 5.00008 17.7223 4.16762 18.3424 2.95197C20.2997 3.49377 22.0641 4.49969 23.5096 5.84382C23.2634 6.34332 23.125 6.9055 23.125 7.50007C23.125 9.57113 24.8039 11.2501 26.875 11.2501C26.8926 11.2501 26.9101 11.2499 26.9276 11.2497C27.2995 12.4336 27.5 13.6934 27.5 15.0001C27.5 15.8627 27.4126 16.7048 27.2463 17.5183C27.1241 17.5063 27.0003 17.5001 26.875 17.5001C24.8039 17.5001 23.125 19.179 23.125 21.2501C23.125 22.1709 23.4569 23.0142 24.0076 23.6669C22.5314 25.2008 20.6671 26.3585 18.5726 26.9821C18.0893 25.47 16.6725 24.3751 15 24.3751C13.3275 24.3751 11.9108 25.47 11.4274 26.9821Z" stroke="currentColor" stroke-width="2" stroke-linejoin="round"/>
<path d="M15 19.375C17.4162 19.375 19.375 17.4162 19.375 15C19.375 12.5838 17.4162 10.625 15 10.625C12.5838 10.625 10.625 12.5838 10.625 15C10.625 17.4162 12.5838 19.375 15 19.375Z" stroke="currentColor" stroke-width="2" stroke-linejoin="round"/>
</svg>
