<svg width="8" height="10" viewBox="0 0 8 10" fill="none" xmlns="http://www.w3.org/2000/svg">
<path fill-rule="evenodd" clip-rule="evenodd" d="M3.58537 6.0472C3.9854 6.0472 4.30974 6.37158 4.30974 6.77164C4.30974 7.17171 3.9854 7.49609 3.58537 7.49609C3.18533 7.49609 2.86099 7.17171 2.86099 6.77164C2.86099 6.37158 3.18533 6.0472 3.58537 6.0472ZM2.66639 2.1871C2.91506 1.97085 3.23939 1.85191 3.58537 1.85191C3.97459 1.85191 4.33137 2.0141 4.59086 2.2736C4.85034 2.53311 5.01253 2.88992 5.01253 3.27918V3.91712H1.35813C1.01215 3.91712 0.698614 4.05768 0.482377 4.28475C0.255329 4.51181 0.114746 4.82538 0.114746 5.16057V8.40435C0.114746 8.75035 0.255329 9.06391 0.482377 9.28017C0.709425 9.49642 1.02297 9.64779 1.35813 9.64779H5.82342C6.1694 9.64779 6.47213 9.50723 6.69918 9.28017C6.92622 9.0531 7.06674 8.73954 7.06674 8.40435V5.16057C7.06674 4.81456 6.92622 4.501 6.69918 4.28475C6.49375 4.07931 6.22348 3.94956 5.90993 3.91712V3.27918C5.90993 2.64123 5.65044 2.05735 5.22878 1.63566C4.80712 1.21397 4.22326 0.954468 3.58537 0.954468C3.01234 0.954468 2.49337 1.15991 2.09333 1.50591C1.99602 1.59241 1.94195 1.71135 1.94195 1.85191C1.94195 2.1006 2.14742 2.30604 2.39609 2.30604C2.51502 2.30604 2.62311 2.26279 2.69879 2.1871H2.66639ZM5.8126 4.80375H1.34731C1.25 4.80375 1.16353 4.847 1.09866 4.91188C1.03379 4.97675 0.990501 5.06325 0.990501 5.16057V8.40435C0.990501 8.50166 1.03379 8.58816 1.09866 8.65304C1.16353 8.71791 1.25 8.76116 1.34731 8.76116H5.8126C5.9099 8.76116 5.99638 8.71791 6.06125 8.66385C6.12612 8.59897 6.16941 8.51247 6.16941 8.41516V5.17138C6.16941 5.07407 6.12612 4.98757 6.06125 4.92269C5.99638 4.85782 5.9099 4.81456 5.8126 4.81456V4.80375Z" fill="#A6A6A6"/>
</svg>
