<svg width="10" height="13" viewBox="0 0 10 13" fill="none" xmlns="http://www.w3.org/2000/svg">
<path fill-rule="evenodd" clip-rule="evenodd" d="M5.09229 11.5884C6.48702 11.5884 7.75202 11.0478 8.69265 10.172C8.76833 10.0963 8.87641 10.0531 8.99534 10.0531C9.24402 10.0531 9.44942 10.2585 9.44942 10.5072C9.44942 10.6369 9.39536 10.7559 9.30886 10.8316V10.8424C8.20606 11.8696 6.72489 12.4967 5.10311 12.4967C3.48134 12.4967 2.0001 11.8696 0.897298 10.8424C0.799992 10.7559 0.735095 10.6369 0.735095 10.4964C0.735095 10.2477 0.940567 10.0422 1.18924 10.0422C1.31898 10.0422 1.42709 10.0963 1.51358 10.1828C2.45421 11.0586 3.7192 11.5884 5.10311 11.5884H5.09229ZM1.48111 2.43018C1.40543 2.50586 1.29735 2.54912 1.17842 2.54912C0.929744 2.54912 0.724338 2.34368 0.724338 2.09499C0.724338 1.95442 0.78917 1.83548 0.886476 1.74898C1.98928 0.721787 3.47052 0.105469 5.09229 0.105469C6.71406 0.105469 8.1953 0.7326 9.29811 1.74898C9.39541 1.83548 9.46024 1.95442 9.46024 2.09499C9.46024 2.34368 9.25484 2.54912 9.00617 2.54912C8.87642 2.54912 8.76832 2.49505 8.68182 2.41936C7.7412 1.54354 6.47619 1.01373 5.08147 1.01373C3.68674 1.01373 2.42174 1.55436 1.48111 2.43018ZM1.66496 7.97704C1.45954 7.66348 1.24328 7.2526 1.03786 6.73359L0.281017 4.78732C0.281017 4.78732 0.248605 4.6792 0.237793 4.62513C0.237793 4.49538 0.270202 4.38726 0.345885 4.30076C0.432379 4.21426 0.540484 4.16019 0.670226 4.16019C0.81078 4.16019 0.91894 4.19263 0.983811 4.25751C1.05949 4.32238 1.11352 4.39807 1.15677 4.49538L1.80552 6.27946C1.8812 6.46328 1.94602 6.64709 2.0217 6.80928C2.08658 6.97147 2.1731 7.12285 2.2596 7.26341C2.34609 7.40397 2.44335 7.46885 2.55147 7.47966C2.65959 7.47966 2.7461 7.39316 2.83259 7.26341C2.91909 7.12285 3.00563 6.97147 3.08131 6.80928C3.15699 6.64709 3.22181 6.46328 3.29749 6.27946L3.93542 4.49538C3.97867 4.39807 4.04351 4.32238 4.10838 4.25751C4.17325 4.19263 4.29218 4.16019 4.44354 4.16019C4.57328 4.16019 4.68146 4.20344 4.76795 4.30076C4.85444 4.38726 4.88685 4.5062 4.87604 4.62513C4.87604 4.69001 4.85444 4.74407 4.83282 4.78732L4.07598 6.73359C3.87055 7.2526 3.6543 7.67429 3.44887 7.97704C3.24345 8.27979 2.9407 8.44198 2.55147 8.44198C2.15144 8.44198 1.84874 8.27979 1.64332 7.96623L1.66496 7.97704ZM9.82788 4.75489C9.82788 4.88464 9.78462 4.99276 9.68732 5.07926C9.60082 5.16576 9.49272 5.21983 9.36298 5.21983H6.61673C6.53023 5.21983 6.4546 5.24145 6.40055 5.27389C6.34649 5.30633 6.30318 5.34958 6.27074 5.39283C6.23831 5.43608 6.22752 5.47933 6.22752 5.52258C6.22752 5.56583 6.23831 5.60908 6.27074 5.65233C6.29237 5.69558 6.33567 5.73883 6.40055 5.77127C6.4546 5.80371 6.53023 5.82533 6.61673 5.82533H8.56291C8.88727 5.82533 9.14673 5.91183 9.35215 6.0524C9.55758 6.19296 9.70891 6.35515 9.79541 6.52815C9.8819 6.71197 9.92515 6.89578 9.92515 7.07959C9.92515 7.26341 9.88189 7.44722 9.78459 7.62022C9.69809 7.80404 9.54675 7.95541 9.34133 8.09598C9.13591 8.23654 8.87644 8.30142 8.55209 8.30142H8.5088C8.5088 8.30142 8.45479 8.30142 8.42235 8.30142H5.82749C5.69775 8.30142 5.58964 8.25817 5.50315 8.17167C5.41665 8.08517 5.37341 7.97704 5.37341 7.84729C5.37341 7.71754 5.41666 7.60941 5.51397 7.52291C5.60046 7.4256 5.70857 7.38235 5.83831 7.38235H8.59531C8.68181 7.38235 8.7575 7.38235 8.81156 7.3391C8.86562 7.30666 8.90886 7.26341 8.9413 7.20934C8.97373 7.16609 8.98452 7.11203 8.98452 7.05797C8.98452 7.02553 8.97373 6.98228 8.9413 6.92822C8.91967 6.87415 8.87643 6.82009 8.81156 6.78765C8.7575 6.75522 8.68181 6.73359 8.59531 6.72278H6.6492C6.32484 6.72278 6.06538 6.63628 5.85995 6.50653C5.65453 6.36596 5.50313 6.21459 5.41663 6.04158C5.33014 5.86858 5.2869 5.68477 5.2869 5.50095C5.2869 5.31714 5.33015 5.14414 5.42745 4.97114C5.51395 4.79814 5.66529 4.63595 5.87071 4.5062C6.07614 4.36563 6.33566 4.30076 6.66002 4.28994H6.70324C6.70324 4.28994 6.75732 4.28994 6.78976 4.28994H9.36298C9.49272 4.28994 9.60082 4.33319 9.68732 4.41969C9.77381 4.5062 9.81705 4.61432 9.81705 4.74407L9.82788 4.75489Z" fill="#A6A6A6"/>
</svg>
