<svg xmlns="http://www.w3.org/2000/svg" viewBox="0 0 70.87 70.87"><defs><style>.cls-1{fill:#424242;}.cls-1,.cls-2,.cls-3{fill-rule:evenodd;}.cls-2{fill:#171717;}.cls-3{fill:#a6a6a6;}</style></defs><g id="图层_2" data-name="图层 2"><g id="鍥惧眰_1" data-name="鍥惧眰 1"><path class="cls-1" d="M69.92,43.57a35.45,35.45,0,1,0-15.86,22A35.44,35.44,0,0,0,69.92,43.57Z"/><path class="cls-2" d="M42,7.84a28.35,28.35,0,1,0,17.6,12.69A28.4,28.4,0,0,0,42,7.84Z"/><path class="cls-3" d="M37.09,30.47h7.1A2.82,2.82,0,0,1,47,33.29a2.78,2.78,0,0,1-1,2.14,2.82,2.82,0,0,1-1.83,5h-7.1V39h7.1a1.47,1.47,0,0,0,0-2.93h-7.1V34.75h7.1a1.46,1.46,0,1,0,0-2.92h-7.1V30.47Zm-8.27,1a2.79,2.79,0,0,1,2.14-1,2.82,2.82,0,0,1,2.82,2.82v7.1H32.42v-7.1a1.46,1.46,0,0,0-2.92,0v7.1H28.14v-7.1a1.46,1.46,0,0,0-2.92,0v7.1H23.86v-7.1a2.82,2.82,0,0,1,5-1.83Z"/></g></g></svg>