<svg xmlns="http://www.w3.org/2000/svg" viewBox="0 0 70.87 70.87"><defs><style>.cls-1{fill:#424242;}.cls-1,.cls-2,.cls-4{fill-rule:evenodd;}.cls-2{fill:#7615e6;}.cls-3{fill:#171717;}.cls-4{fill:#a6a6a6;}</style></defs><g id="图层_2" data-name="图层 2"><g id="鍥惧眰_1" data-name="鍥惧眰 1"><path class="cls-1" d="M27.29,69.92a35.43,35.43,0,1,0-22-15.86A35.43,35.43,0,0,0,27.29,69.92Z"/><path class="cls-2" d="M35.43,62.36a26.92,26.92,0,1,0-19-7.88,26.84,26.84,0,0,0,19,7.88Z"/><circle class="cls-3" cx="35.43" cy="35.43" r="28.35" transform="translate(-7.19 9.09) rotate(-13.28)"/><path class="cls-4" d="M37.09,30.47h6.43a2.83,2.83,0,0,1,2.12,4.69,2.81,2.81,0,0,1-1.45,5.23h-7.1V30.47ZM38.44,39h5.75a1.47,1.47,0,0,0,0-2.93H38.44V39Zm0-4.29h5.08a1.46,1.46,0,1,0,0-2.92H38.44v2.92ZM26.68,39h7.1v1.35h-7.1a2.82,2.82,0,0,1-2.82-2.82v-7.1h1.36v7.1A1.46,1.46,0,0,0,26.68,39Z"/></g></g></svg>