<svg xmlns="http://www.w3.org/2000/svg" viewBox="0 0 70.87 70.87"><defs><style>.cls-1{fill:#424242;}.cls-1,.cls-2,.cls-3{fill-rule:evenodd;}.cls-2{fill:#171717;}.cls-3{fill:#a6a6a6;}</style></defs><g id="图层_2" data-name="图层 2"><g id="鍥惧眰_1" data-name="鍥惧眰 1"><path class="cls-1" d="M27.29,69.92a35.43,35.43,0,1,0-22-15.86A35.39,35.39,0,0,0,27.29,69.92Z"/><path class="cls-2" d="M7.84,28.92a28.36,28.36,0,1,0,12.69-17.6A28.4,28.4,0,0,0,7.84,28.92Z"/><path class="cls-3" d="M33.27,26.11l-.58-.34a2.84,2.84,0,0,0-4.25,2.46V42.64a2.84,2.84,0,0,0,4.25,2.45l2.8-1.61h0l9.68-5.59a2.83,2.83,0,0,0,0-4.91l-11.9-6.87Z"/></g></g></svg>