<svg xmlns="http://www.w3.org/2000/svg" viewBox="0 0 70.87 70.87"><defs><style>.cls-1{fill:#424242;}.cls-1,.cls-2,.cls-4{fill-rule:evenodd;}.cls-2{fill:#171717;}.cls-3,.cls-4{fill:#a6a6a6;}</style></defs><g id="图层_2" data-name="图层 2"><g id="鍥惧眰_1" data-name="鍥惧眰 1"><path class="cls-1" d="M44.89,1.29A35.41,35.41,0,1,0,66.27,18,35.43,35.43,0,0,0,44.89,1.29Z"/><path class="cls-2" d="M42,7.84a28.35,28.35,0,1,0,17.6,12.69A28.4,28.4,0,0,0,42,7.84Z"/><path class="cls-3" d="M26.89,37a1.09,1.09,0,0,0-.05-.17c0-.13-.08-.27-.13-.39l-.1-.18-.09-.15a1,1,0,0,1-.1-.17l-.14-.16A3.07,3.07,0,0,0,26,35.5a2.83,2.83,0,0,0-1.89-.75H19.41A1.46,1.46,0,0,1,18,33.29h0a1.48,1.48,0,0,1,1.47-1.46h7.1V30.47H19.41a2.79,2.79,0,0,0-1.89.75,3.07,3.07,0,0,0-.25.26c0,.05-.09.1-.13.16a2.14,2.14,0,0,0-.2.32l-.09.18a2.24,2.24,0,0,0-.14.39s0,.11-.05.16a3.05,3.05,0,0,0-.06.6h0a2.91,2.91,0,0,0,.06.6,1.09,1.09,0,0,1,.05.17,2.46,2.46,0,0,0,.14.38c0,.07.06.12.09.18s.07.1.1.15a1,1,0,0,0,.1.17l.13.17a3.07,3.07,0,0,0,.25.26,2.82,2.82,0,0,0,1.89.74h4.73a1.46,1.46,0,0,1,1.46,1.46h0A1.46,1.46,0,0,1,24.14,39H17v1.35h7.11A2.75,2.75,0,0,0,26,39.65a3.07,3.07,0,0,0,.25-.26l.14-.17a3.21,3.21,0,0,0,.19-.31l.1-.18c.05-.13.09-.26.13-.39a1.09,1.09,0,0,0,.05-.17,2.9,2.9,0,0,0,.07-.6h0A2.88,2.88,0,0,0,26.89,37Z"/><path class="cls-4" d="M48,39h7.1v1.35H48a2.82,2.82,0,0,1-2.82-2.82v-7.1h1.36v7.1A1.46,1.46,0,0,0,48,39Z"/><path class="cls-3" d="M40.79,31.83V30.47H33.68a2.85,2.85,0,0,0-2.82,2.82v4.28A2.81,2.81,0,0,0,32.22,40a2.73,2.73,0,0,0,1.46.42h7.11V39H33.68a1.47,1.47,0,0,1-1.46-1.47V33.29a1.47,1.47,0,0,1,1.46-1.46h7.11Z"/><rect class="cls-3" x="33.06" y="34.86" width="7.72" height="1.35"/></g></g></svg>