<svg xmlns="http://www.w3.org/2000/svg" viewBox="0 0 70.87 70.87"><defs><style>.cls-1{fill:#424242;}.cls-1,.cls-2,.cls-3{fill-rule:evenodd;}.cls-2{fill:#171717;}.cls-3,.cls-4{fill:#a6a6a6;}</style></defs><g id="图层_2" data-name="图层 2"><g id="鍥惧眰_1" data-name="鍥惧眰 1"><path class="cls-1" d="M44.89,1.29A35.41,35.41,0,1,0,66.27,18,35.43,35.43,0,0,0,44.89,1.29Z"/><path class="cls-2" d="M42,7.84a28.35,28.35,0,1,0,17.6,12.69A28.4,28.4,0,0,0,42,7.84Z"/><polygon class="cls-3" points="37.09 30.47 47.01 30.47 47.01 31.83 42.73 31.83 42.73 40.4 41.37 40.4 41.37 31.83 37.09 31.83 37.09 30.47 37.09 30.47"/><path class="cls-4" d="M34.15,37a1.09,1.09,0,0,0,0-.17c0-.13-.08-.26-.13-.39l-.1-.17-.09-.16-.1-.17-.14-.16a3,3,0,0,0-.24-.26,2.78,2.78,0,0,0-1.89-.74H26.68a1.47,1.47,0,0,1-1.46-1.47h0a1.46,1.46,0,0,1,1.46-1.46h7.1V30.47H26.67a2.83,2.83,0,0,0-1.89.75,2,2,0,0,0-.24.26l-.14.16a3.37,3.37,0,0,0-.19.32l-.1.18c-.05.12-.09.26-.13.39a1.42,1.42,0,0,0-.05.16,2.46,2.46,0,0,0-.07.6h0a2.35,2.35,0,0,0,.07.6,1.09,1.09,0,0,0,.05.17c0,.13.08.26.13.39l.1.18.09.15a1.4,1.4,0,0,0,.1.16,2.09,2.09,0,0,0,.14.17,2,2,0,0,0,.24.26,2.82,2.82,0,0,0,1.89.74H31.4a1.47,1.47,0,0,1,1.46,1.46h0A1.46,1.46,0,0,1,31.4,39H24.3v1.35h7.11a2.78,2.78,0,0,0,1.89-.74l.24-.26a2.09,2.09,0,0,0,.14-.17,3.21,3.21,0,0,0,.19-.31l.1-.18c.05-.13.09-.26.13-.39a1.09,1.09,0,0,0,0-.17,2.88,2.88,0,0,0,.07-.59h0A2.88,2.88,0,0,0,34.15,37Z"/></g></g></svg>