<svg xmlns="http://www.w3.org/2000/svg" viewBox="0 0 70.87 70.87"><defs><style>.cls-1{fill:#424242;}.cls-1,.cls-2,.cls-3{fill-rule:evenodd;}.cls-2{fill:#171717;}.cls-3,.cls-4{fill:#a6a6a6;}</style></defs><g id="图层_2" data-name="图层 2"><g id="鍥惧眰_1" data-name="鍥惧眰 1"><path class="cls-1" d="M44.89,1.29A35.41,35.41,0,1,0,66.27,18,35.43,35.43,0,0,0,44.89,1.29Z"/><path class="cls-2" d="M42,7.84a28.35,28.35,0,1,0,17.6,12.69A28.4,28.4,0,0,0,42,7.84Z"/><path class="cls-3" d="M24,40.39V30.47h6.72a2.72,2.72,0,0,1,1.75,4.8,2.72,2.72,0,0,1-1.27,5.12H24Zm7.2-4.48H25v3.53h6.25a1.77,1.77,0,1,0,0-3.53Zm-.48-4.49H25V35h5.77a1.77,1.77,0,0,0,0-3.54Z"/><path class="cls-4" d="M47.18,31.83V30.47h-7.1a2.84,2.84,0,0,0-2.82,2.82v4.28A2.8,2.8,0,0,0,38.61,40a2.74,2.74,0,0,0,1.47.42h7.1V39h-7.1a1.47,1.47,0,0,1-1.47-1.47V33.29a1.47,1.47,0,0,1,1.47-1.46h7.1Z"/></g></g></svg>