<svg xmlns="http://www.w3.org/2000/svg" viewBox="0 0 70.87 70.87"><defs><style>.cls-1{fill:#424242;}.cls-1,.cls-2,.cls-3{fill-rule:evenodd;}.cls-2{fill:#171717;}.cls-3{fill:#a6a6a6;}</style></defs><g id="图层_2" data-name="图层 2"><g id="鍥惧眰_1" data-name="鍥惧眰 1"><path class="cls-1" d="M24.23,1.82A35.43,35.43,0,1,1,3.74,19.59,35.45,35.45,0,0,1,24.23,1.82Z"/><path class="cls-2" d="M42,63a28.33,28.33,0,1,1,17.6-12.68A28.36,28.36,0,0,1,42,63Z"/><path class="cls-3" d="M44.76,37.6l.33.58a2.84,2.84,0,0,1-2.45,4.25H28.23a2.84,2.84,0,0,1-2.46-4.25l1.62-2.8h0L33,25.69a2.84,2.84,0,0,1,4.91,0L44.76,37.6Z"/></g></g></svg>