<svg xmlns="http://www.w3.org/2000/svg" viewBox="0 0 70.87 70.87"><defs><style>.cls-1{fill:#424242;}.cls-1,.cls-2,.cls-3{fill-rule:evenodd;}.cls-2{fill:#171717;}.cls-3{fill:#a6a6a6;}</style></defs><g id="图层_2" data-name="图层 2"><g id="鍥惧眰_1" data-name="鍥惧眰 1"><path class="cls-1" d="M26.34,69.68A35.43,35.43,0,1,0,4.79,53.22,35.43,35.43,0,0,0,26.34,69.68Z"/><path class="cls-2" d="M63,42a28.33,28.33,0,1,0-12.68,17.6A28.36,28.36,0,0,0,63,42Z"/><path class="cls-3" d="M37.6,44.76l.58.33a2.84,2.84,0,0,0,4.25-2.45V28.23a2.84,2.84,0,0,0-4.25-2.46l-2.8,1.62h0L25.69,33a2.84,2.84,0,0,0,0,4.91L37.6,44.76Z"/></g></g></svg>